<svg width="257" height="38" viewBox="0 0 257 38" fill="none" xmlns="http://www.w3.org/2000/svg">
<path d="M57.6133 1.60388C58.1997 1.60388 58.786 1.60388 59.3902 1.60388C59.3902 13.1667 59.3902 24.7296 59.3902 36.6428C58.8038 36.6428 58.2174 36.6428 57.6133 36.6428C57.6133 25.08 57.6133 13.5171 57.6133 1.60388Z" fill="#A2C148"/>
<path d="M107.62 23.0714C108.416 23.0714 109.212 23.0714 110.032 23.0714C110.226 23.2602 110.208 23.4561 110.243 23.7184C110.258 23.8296 110.274 23.9407 110.289 24.0552C110.305 24.1761 110.321 24.2969 110.338 24.4213C110.354 24.5444 110.371 24.6674 110.388 24.7942C110.442 25.1889 110.495 25.5837 110.547 25.9785C110.584 26.2454 110.62 26.5123 110.656 26.7792C110.745 27.435 110.833 28.0908 110.92 28.7467C110.93 28.6793 110.939 28.6118 110.948 28.5423C111.045 27.8418 111.141 27.1413 111.239 26.441C111.275 26.1794 111.311 25.9177 111.347 25.6561C111.398 25.2806 111.451 24.9052 111.503 24.5298C111.519 24.4123 111.535 24.2948 111.551 24.1738C111.567 24.0651 111.582 23.9565 111.598 23.8445C111.611 23.7486 111.624 23.6527 111.638 23.5539C111.682 23.3182 111.682 23.3182 111.809 23.0714C112.605 23.0714 113.4 23.0714 114.22 23.0714C114.22 26.3693 114.22 29.6671 114.22 33.0649C113.634 33.0649 113.048 33.0649 112.443 33.0649C112.401 31.6806 112.36 30.2963 112.316 28.8701C112.107 30.2544 111.898 31.6387 111.682 33.0649C111.179 33.0649 110.677 33.0649 110.159 33.0649C109.895 32.1517 109.768 31.2274 109.635 30.2889C109.557 29.7393 109.478 29.1897 109.397 28.6234C109.355 30.0891 109.313 31.5548 109.27 33.0649C108.726 33.0649 108.181 33.0649 107.62 33.0649C107.62 29.7671 107.62 26.4692 107.62 23.0714Z" fill="#2A2A2A"/>
<path d="M67.3862 23.0714C68.182 23.0714 68.9778 23.0714 69.7977 23.0714C69.992 23.2602 69.9736 23.4561 70.009 23.7184C70.0242 23.8296 70.0394 23.9407 70.0551 24.0552C70.0711 24.1761 70.0871 24.2969 70.1036 24.4213C70.1204 24.5444 70.1371 24.6674 70.1543 24.7942C70.2078 25.1889 70.2606 25.5837 70.3133 25.9785C70.3494 26.2454 70.3855 26.5123 70.4217 26.7792C70.5104 27.435 70.5985 28.0908 70.6862 28.7467C70.6954 28.6793 70.7047 28.6118 70.7142 28.5423C70.8105 27.8418 70.9073 27.1413 71.0046 26.441C71.0408 26.1794 71.0769 25.9177 71.1128 25.6561C71.1643 25.2806 71.2165 24.9052 71.2687 24.5298C71.2847 24.4123 71.3007 24.2948 71.3172 24.1738C71.3325 24.0651 71.3477 23.9565 71.3634 23.8445C71.3766 23.7486 71.3899 23.6527 71.4035 23.5539C71.4477 23.3182 71.4477 23.3182 71.5746 23.0714C72.3704 23.0714 73.1662 23.0714 73.9861 23.0714C73.9861 26.3693 73.9861 29.6671 73.9861 33.0649C73.3998 33.0649 72.8134 33.0649 72.2092 33.0649C72.1674 31.6806 72.1255 30.2963 72.0823 28.8701C71.8729 30.2544 71.6635 31.6387 71.4477 33.0649C70.9451 33.0649 70.4425 33.0649 69.9247 33.0649C69.6613 32.1517 69.5336 31.2274 69.4011 30.2889C69.3226 29.7393 69.244 29.1897 69.1631 28.6234C69.1212 30.0891 69.0794 31.5548 69.0362 33.0649C68.4917 33.0649 67.9472 33.0649 67.3862 33.0649C67.3862 29.7671 67.3862 26.4692 67.3862 23.0714Z" fill="#2A2A2A"/>
<path d="M202.811 6.53894C203.607 6.53894 204.403 6.53894 205.223 6.53894C205.417 6.72778 205.399 6.9236 205.434 7.18597C205.449 7.29712 205.464 7.40826 205.48 7.52278C205.496 7.64358 205.512 7.76439 205.529 7.88885C205.545 8.01191 205.562 8.13497 205.579 8.26175C205.633 8.65644 205.686 9.05122 205.738 9.446C205.774 9.71292 205.811 9.97984 205.847 10.2467C205.935 10.9025 206.024 11.5584 206.111 12.2143C206.12 12.1468 206.13 12.0793 206.139 12.0098C206.236 11.3093 206.332 10.6089 206.43 9.90848C206.466 9.64689 206.502 9.38528 206.538 9.12364C206.589 8.74814 206.642 8.37271 206.694 7.99729C206.71 7.87982 206.726 7.76235 206.742 7.64132C206.758 7.53266 206.773 7.42399 206.788 7.31203C206.802 7.21614 206.815 7.12025 206.829 7.02146C206.873 6.78569 206.873 6.78569 207 6.53894C207.795 6.53894 208.591 6.53894 209.411 6.53894C209.411 9.8368 209.411 13.1347 209.411 16.5324C208.825 16.5324 208.238 16.5324 207.634 16.5324C207.592 15.1482 207.551 13.7639 207.507 12.3376C207.298 13.7219 207.089 15.1062 206.873 16.5324C206.37 16.5324 205.868 16.5324 205.35 16.5324C205.086 15.6192 204.959 14.6949 204.826 13.7565C204.748 13.2068 204.669 12.6572 204.588 12.0909C204.546 13.5566 204.504 15.0223 204.461 16.5324C203.917 16.5324 203.372 16.5324 202.811 16.5324C202.811 13.2346 202.811 9.93673 202.811 6.53894Z" fill="#2A2A2A"/>
<path d="M49.4191 24.1818C49.5032 24.2213 49.5874 24.2608 49.6741 24.3015C50.2304 24.5734 50.6752 24.8896 51.1404 25.2922C50.7052 25.4374 50.4526 25.3924 50.0204 25.2518C49.9014 25.2142 49.7823 25.1767 49.6596 25.1381C49.4698 25.077 49.4698 25.077 49.2763 25.0146C44.6487 23.5826 39.8186 23.9026 35.0447 24.2537C33.0941 24.3938 31.1524 24.4567 29.1965 24.4653C28.9284 24.4665 28.6604 24.4683 28.3923 24.4707C25.9566 24.4898 23.6038 24.2547 21.2346 23.6961C21.0366 23.6518 21.0366 23.6518 20.8345 23.6067C18.2962 23.0244 18.2962 23.0244 17.3794 22.3312C17.7911 22.2011 18.0588 22.2186 18.4771 22.3177C18.5928 22.3441 18.7085 22.3704 18.8277 22.3976C19.0139 22.4411 19.0139 22.4411 19.2039 22.4854C23.7277 23.484 27.9343 23.1436 32.4751 22.4392C38.2394 21.5488 44.0824 21.6525 49.4191 24.1818Z" fill="#7FB241"/>
<path d="M174.508 23.0714C175.22 23.0714 175.932 23.0714 176.665 23.0714C176.991 23.9667 177.229 24.8693 177.451 25.7934C177.569 26.2794 177.686 26.7655 177.808 27.2662C177.85 25.8819 177.892 24.4976 177.935 23.0714C178.479 23.0714 179.024 23.0714 179.585 23.0714C179.585 26.3693 179.585 29.6671 179.585 33.0649C178.956 33.0649 178.328 33.0649 177.681 33.0649C177.22 31.2328 176.759 29.4006 176.285 27.513C176.243 29.3451 176.201 31.1773 176.158 33.0649C175.613 33.0649 175.069 33.0649 174.508 33.0649C174.508 29.7671 174.508 26.4692 174.508 23.0714Z" fill="#2A2A2A"/>
<path d="M216.519 6.53894C217.231 6.53894 217.943 6.53894 218.676 6.53894C219.001 7.43427 219.239 8.33686 219.462 9.26094C219.579 9.74696 219.697 10.233 219.819 10.7337C219.86 9.34946 219.902 7.96517 219.945 6.53894C220.49 6.53894 221.034 6.53894 221.595 6.53894C221.595 9.8368 221.595 13.1347 221.595 16.5324C220.967 16.5324 220.339 16.5324 219.692 16.5324C219.231 14.7003 218.77 12.8682 218.295 10.9805C218.254 12.8126 218.212 14.6448 218.169 16.5324C217.624 16.5324 217.08 16.5324 216.519 16.5324C216.519 13.2346 216.519 9.93673 216.519 6.53894Z" fill="#2A2A2A"/>
<path d="M163.085 6.53894C163.797 6.53894 164.509 6.53894 165.243 6.53894C165.568 7.43427 165.806 8.33686 166.028 9.26094C166.146 9.74696 166.264 10.233 166.385 10.7337C166.427 9.34946 166.469 7.96517 166.512 6.53894C167.056 6.53894 167.601 6.53894 168.162 6.53894C168.162 9.8368 168.162 13.1347 168.162 16.5324C167.534 16.5324 166.905 16.5324 166.258 16.5324C165.797 14.7003 165.337 12.8682 164.862 10.9805C164.82 12.8126 164.778 14.6448 164.735 16.5324C164.19 16.5324 163.646 16.5324 163.085 16.5324C163.085 13.2346 163.085 9.93673 163.085 6.53894Z" fill="#2A2A2A"/>
<path d="M122.724 6.53894C123.436 6.53894 124.148 6.53894 124.882 6.53894C125.207 7.43427 125.445 8.33686 125.667 9.26094C125.785 9.74696 125.902 10.233 126.024 10.7337C126.066 9.34946 126.108 7.96517 126.151 6.53894C126.695 6.53894 127.24 6.53894 127.801 6.53894C127.801 9.8368 127.801 13.1347 127.801 16.5324C127.172 16.5324 126.544 16.5324 125.897 16.5324C125.436 14.7003 124.975 12.8682 124.501 10.9805C124.459 12.8126 124.417 14.6448 124.374 16.5324C123.829 16.5324 123.285 16.5324 122.724 16.5324C122.724 13.2346 122.724 9.93673 122.724 6.53894Z" fill="#2A2A2A"/>
<path d="M222.738 6.53894C226.346 6.53894 226.346 6.53894 227.02 7.0898C227.716 7.96838 227.629 8.92645 227.561 9.99349C227.44 10.4695 227.206 10.8193 226.926 11.2273C227.028 11.3392 227.13 11.4512 227.236 11.5665C227.791 12.1755 227.719 12.8891 227.727 13.6639C227.731 13.7711 227.735 13.8783 227.739 13.9888C227.746 14.7286 227.629 15.305 227.18 15.9156C225.78 16.9989 224.881 16.5324 222.738 16.5324C222.738 13.2346 222.738 9.93673 222.738 6.53894ZM224.515 8.14284C224.515 8.91641 224.515 9.68998 224.515 10.487C225.345 10.5813 225.345 10.5813 225.646 10.2826C225.9 9.75039 225.863 9.20914 225.784 8.63634C225.606 8.28826 225.606 8.28826 225.276 8.14284C225.025 8.14284 224.774 8.14284 224.515 8.14284ZM224.515 12.0909C224.515 13.0273 224.515 13.9637 224.515 14.9286C225.426 15.0027 225.426 15.0027 225.781 14.8052C225.989 14.4089 225.96 14.0053 225.95 13.5714C225.951 13.482 225.951 13.3926 225.952 13.3006C225.947 12.8335 225.929 12.6112 225.657 12.2143C225.28 12.1736 224.903 12.1328 224.515 12.0909Z" fill="#2A2A2A"/>
<path d="M155.525 23.1563C156.118 23.4943 156.416 23.8425 156.622 24.4872C156.779 25.1296 156.778 25.7636 156.777 26.4209C156.777 26.5508 156.778 26.6806 156.779 26.8144C156.779 27.088 156.779 27.3615 156.779 27.635C156.778 28.0506 156.781 28.4661 156.785 28.8817C156.785 29.1487 156.785 29.4157 156.785 29.6827C156.786 29.8055 156.787 29.9282 156.788 30.0547C156.783 30.8683 156.642 31.5594 156.358 32.3247C156.609 32.3247 156.861 32.3247 157.12 32.3247C157.12 32.854 157.12 33.3833 157.12 33.9286C155.953 34.0042 155.953 34.0042 155.454 33.6356C155.216 33.3117 155.216 33.3117 155.216 33.0649C155.09 33.126 155.09 33.126 154.962 33.1883C154.068 33.2776 153.281 33.2424 152.55 32.6948C152.068 32.1052 151.901 31.656 151.893 30.9125C151.892 30.7749 151.89 30.6373 151.888 30.4956C151.887 30.3468 151.886 30.198 151.886 30.0446C151.884 29.8914 151.883 29.7382 151.882 29.5803C151.881 29.2556 151.879 28.9309 151.878 28.6061C151.877 28.2743 151.875 27.9425 151.87 27.6107C151.865 27.1317 151.863 26.6527 151.862 26.1737C151.859 26.0261 151.857 25.8785 151.855 25.7265C151.857 24.8647 151.936 24.2934 152.423 23.5649C153.321 22.8704 154.46 22.6734 155.525 23.1563ZM153.851 24.7062C153.581 25.0736 153.549 25.3971 153.547 25.8341C153.546 25.9432 153.546 26.0524 153.545 26.1648C153.545 26.2824 153.545 26.4 153.544 26.5212C153.544 26.6424 153.544 26.7637 153.543 26.8886C153.542 27.1451 153.542 27.4017 153.542 27.6583C153.542 28.0504 153.54 28.4424 153.537 28.8345C153.537 29.0838 153.537 29.3331 153.536 29.5824C153.536 29.6995 153.535 29.8166 153.534 29.9373C153.529 30.7305 153.529 30.7305 153.82 31.461C154.124 31.5943 154.124 31.5943 154.454 31.5844C154.866 31.3719 154.866 31.3719 154.962 30.9675C154.974 30.779 154.979 30.59 154.98 30.4011C154.981 30.2866 154.982 30.1721 154.983 30.0542C154.983 29.9308 154.983 29.8074 154.983 29.6803C154.984 29.5533 154.984 29.4263 154.984 29.2954C154.985 29.0267 154.985 28.758 154.985 28.4893C154.986 28.078 154.988 27.6667 154.99 27.2554C154.991 26.9944 154.991 26.7335 154.991 26.4725C154.992 26.2878 154.992 26.2878 154.994 26.0994C154.993 25.9845 154.993 25.8696 154.993 25.7513C154.993 25.6505 154.993 25.5497 154.993 25.4458C154.958 25.1347 154.882 24.9379 154.708 24.6753C154.344 24.5393 154.177 24.4802 153.851 24.7062Z" fill="#2A2A2A"/>
<path d="M146.641 23.1563C147.233 23.4943 147.531 23.8425 147.738 24.4872C147.894 25.1296 147.893 25.7636 147.892 26.4209C147.893 26.5508 147.894 26.6806 147.894 26.8144C147.895 27.088 147.895 27.3615 147.894 27.635C147.894 28.0506 147.897 28.4661 147.9 28.8817C147.9 29.1487 147.9 29.4157 147.9 29.6827C147.902 29.8055 147.903 29.9282 147.904 30.0547C147.898 30.8683 147.757 31.5594 147.473 32.3247C147.725 32.3247 147.976 32.3247 148.235 32.3247C148.235 32.854 148.235 33.3833 148.235 33.9286C147.068 34.0042 147.068 34.0042 146.569 33.6356C146.331 33.3117 146.331 33.3117 146.331 33.0649C146.206 33.126 146.206 33.126 146.077 33.1883C145.183 33.2776 144.396 33.2424 143.666 32.6948C143.183 32.1052 143.016 31.656 143.009 30.9125C143.007 30.7749 143.006 30.6373 143.004 30.4956C143.003 30.3468 143.002 30.198 143.001 30.0446C143 29.8914 142.999 29.7382 142.998 29.5803C142.996 29.2556 142.995 28.9309 142.994 28.6061C142.993 28.2743 142.99 27.9425 142.986 27.6107C142.981 27.1317 142.978 26.6527 142.977 26.1737C142.975 26.0261 142.973 25.8785 142.97 25.7265C142.973 24.8647 143.052 24.2934 143.539 23.5649C144.437 22.8704 145.575 22.6734 146.641 23.1563ZM144.967 24.7062C144.697 25.0736 144.665 25.3971 144.663 25.8341C144.662 25.9432 144.661 26.0524 144.66 26.1648C144.66 26.2824 144.66 26.4 144.66 26.5212C144.659 26.6424 144.659 26.7637 144.659 26.8886C144.658 27.1451 144.658 27.4017 144.658 27.6583C144.657 28.0504 144.655 28.4424 144.653 28.8345C144.652 29.0838 144.652 29.3331 144.652 29.5824C144.651 29.6995 144.65 29.8166 144.649 29.9373C144.644 30.7305 144.644 30.7305 144.935 31.461C145.24 31.5943 145.24 31.5943 145.57 31.5844C145.982 31.3719 145.982 31.3719 146.077 30.9675C146.09 30.779 146.095 30.59 146.096 30.4011C146.097 30.2866 146.097 30.1721 146.098 30.0542C146.098 29.9308 146.099 29.8074 146.099 29.6803C146.099 29.5533 146.1 29.4263 146.1 29.2954C146.101 29.0267 146.101 28.758 146.101 28.4893C146.101 28.078 146.103 27.6667 146.106 27.2554C146.106 26.9944 146.106 26.7335 146.107 26.4725C146.108 26.2878 146.108 26.2878 146.109 26.0994C146.109 25.9845 146.109 25.8696 146.108 25.7513C146.108 25.6505 146.109 25.5497 146.109 25.4458C146.073 25.1347 145.998 24.9379 145.823 24.6753C145.46 24.5393 145.292 24.4802 144.967 24.7062Z" fill="#2A2A2A"/>
<path d="M70.9955 6.62379C71.5881 6.96185 71.8862 7.31004 72.0928 7.95473C72.2492 8.59712 72.248 9.23112 72.2474 9.88845C72.2479 10.0183 72.2485 10.1482 72.249 10.282C72.2498 10.5555 72.2498 10.829 72.2493 11.1026C72.2489 11.5182 72.2519 11.9337 72.2551 12.3492C72.2554 12.6162 72.2555 12.8832 72.2553 13.1502C72.2565 13.273 72.2577 13.3958 72.2589 13.5223C72.2534 14.3358 72.1121 15.0269 71.8285 15.7922C72.0798 15.7922 72.3311 15.7922 72.59 15.7922C72.59 16.3215 72.59 16.8508 72.59 17.3961C71.4231 17.4717 71.4231 17.4717 70.9241 17.1031C70.6862 16.7792 70.6862 16.7792 70.6862 16.5325C70.5605 16.5935 70.5605 16.5935 70.4323 16.6559C69.5383 16.7451 68.7512 16.7099 68.0208 16.1623C67.5381 15.5728 67.3714 15.1235 67.3637 14.38C67.3621 14.2425 67.3605 14.1049 67.3588 13.9631C67.3579 13.8143 67.3569 13.6655 67.356 13.5122C67.3549 13.3589 67.3539 13.2057 67.3529 13.0478C67.3511 12.7231 67.3497 12.3984 67.3488 12.0737C67.3476 11.7418 67.345 11.41 67.3409 11.0782C67.3355 10.5992 67.3335 10.1203 67.3322 9.64122C67.33 9.49364 67.3277 9.34607 67.3254 9.19403C67.3277 8.3322 67.4068 7.76094 67.8939 7.03247C68.7916 6.33793 69.93 6.14097 70.9955 6.62379ZM69.3218 8.17371C69.0518 8.54109 69.02 8.86466 69.0178 9.30163C69.0169 9.41076 69.0161 9.5199 69.0153 9.63234C69.0152 9.74994 69.015 9.86753 69.0149 9.98869C69.0144 10.1099 69.014 10.2312 69.0136 10.3561C69.0129 10.6127 69.0126 10.8693 69.0127 11.1258C69.0124 11.5179 69.0101 11.9099 69.0077 12.302C69.0073 12.5513 69.0071 12.8007 69.0069 13.05C69.006 13.1671 69.0051 13.2842 69.0042 13.4048C68.9993 14.198 68.9993 14.198 69.29 14.9286C69.5948 15.0619 69.5948 15.0619 69.9246 15.052C70.3369 14.8395 70.3369 14.8395 70.4323 14.4351C70.4446 14.2465 70.4499 14.0575 70.4508 13.8686C70.4516 13.7541 70.4524 13.6396 70.4532 13.5217C70.4534 13.3983 70.4535 13.2749 70.4536 13.1478C70.4541 13.0208 70.4545 12.8938 70.4549 12.7629C70.4556 12.4942 70.4559 12.2255 70.4558 11.9568C70.4561 11.5455 70.4584 11.1342 70.4608 10.7229C70.4612 10.462 70.4615 10.201 70.4616 9.94002C70.4629 9.75532 70.4629 9.75532 70.4643 9.56689C70.4639 9.45203 70.4636 9.33717 70.4632 9.21882C70.4633 9.11802 70.4635 9.01722 70.4637 8.91337C70.4285 8.60221 70.3527 8.40544 70.1785 8.14286C69.8147 8.00687 69.6473 7.94768 69.3218 8.17371Z" fill="#2A2A2A"/>
<path d="M245.457 6.53894C249.116 6.53894 249.116 6.53894 249.812 7.17896C250.381 8.10151 250.446 9.28459 250.203 10.3222C250.059 10.7577 249.908 11.0909 249.645 11.474C249.726 11.5809 249.807 11.6878 249.891 11.7979C250.295 12.4407 250.296 13.0682 250.32 13.8095C250.325 13.9685 250.331 14.1276 250.336 14.2914C250.341 14.4575 250.346 14.6236 250.351 14.7898C250.357 14.9588 250.362 15.1278 250.368 15.2968C250.381 15.7086 250.394 16.1205 250.407 16.5324C249.82 16.5324 249.234 16.5324 248.63 16.5324C248.458 16.1985 248.478 15.9237 248.467 15.5503C248.462 15.403 248.458 15.2557 248.453 15.104C248.448 14.9494 248.444 14.7948 248.439 14.6355C248.431 14.3313 248.421 14.027 248.412 13.7227C248.408 13.5873 248.404 13.4519 248.4 13.3124C248.38 13.0094 248.338 12.7507 248.249 12.461C247.914 12.4203 247.579 12.3796 247.234 12.3376C247.234 13.7219 247.234 15.1062 247.234 16.5324C246.647 16.5324 246.061 16.5324 245.457 16.5324C245.457 13.2346 245.457 9.93673 245.457 6.53894ZM247.234 8.14284C247.234 8.99784 247.234 9.85284 247.234 10.7337C247.966 10.8022 247.966 10.8022 248.376 10.487C248.505 10.1106 248.524 9.84025 248.527 9.446C248.529 9.27066 248.529 9.27066 248.532 9.09178C248.502 8.75004 248.44 8.55222 248.249 8.26621C247.929 8.08766 247.929 8.08766 247.234 8.14284Z" fill="#2A2A2A"/>
<path d="M174.635 6.53894C178.294 6.53894 178.294 6.53894 178.99 7.17896C179.559 8.10151 179.624 9.28459 179.381 10.3222C179.237 10.7577 179.086 11.0909 178.823 11.474C178.904 11.5809 178.985 11.6878 179.069 11.7979C179.473 12.4407 179.474 13.0682 179.498 13.8095C179.503 13.9685 179.509 14.1276 179.514 14.2914C179.519 14.4575 179.524 14.6236 179.529 14.7898C179.535 14.9588 179.54 15.1278 179.546 15.2968C179.559 15.7086 179.572 16.1205 179.585 16.5324C178.998 16.5324 178.412 16.5324 177.808 16.5324C177.636 16.1985 177.656 15.9237 177.645 15.5503C177.64 15.403 177.636 15.2557 177.631 15.104C177.626 14.9494 177.622 14.7948 177.617 14.6355C177.609 14.3313 177.599 14.027 177.59 13.7227C177.586 13.5873 177.582 13.4519 177.578 13.3124C177.558 13.0094 177.516 12.7507 177.427 12.461C177.092 12.4203 176.757 12.3796 176.412 12.3376C176.412 13.7219 176.412 15.1062 176.412 16.5324C175.825 16.5324 175.239 16.5324 174.635 16.5324C174.635 13.2346 174.635 9.93673 174.635 6.53894ZM176.412 8.14284C176.412 8.99784 176.412 9.85284 176.412 10.7337C177.144 10.8022 177.144 10.8022 177.554 10.487C177.683 10.1106 177.702 9.84025 177.705 9.446C177.707 9.27066 177.707 9.27066 177.71 9.09178C177.68 8.75004 177.618 8.55222 177.427 8.26621C177.107 8.08766 177.107 8.08766 176.412 8.14284Z" fill="#2A2A2A"/>
<path d="M137.193 23.0714C140.366 23.0714 140.366 23.0714 141.254 23.4415C141.824 24.01 142.046 24.5655 142.053 25.3526C142.054 25.4852 142.056 25.6178 142.058 25.7545C142.058 25.8966 142.058 26.0388 142.059 26.1852C142.059 26.3326 142.06 26.48 142.061 26.6319C142.062 26.9435 142.063 27.2552 142.063 27.5668C142.063 28.042 142.068 28.5171 142.073 28.9923C142.074 29.2955 142.074 29.5987 142.074 29.9019C142.076 30.0433 142.078 30.1847 142.08 30.3304C142.075 31.1776 141.977 31.7278 141.508 32.448C140.327 33.5674 138.878 33.0649 137.193 33.0649C137.193 29.7671 137.193 26.4692 137.193 23.0714ZM138.97 24.6753C138.97 26.9146 138.97 29.1539 138.97 31.461C139.781 31.5375 139.781 31.5375 140.101 31.3129C140.28 31.0254 140.287 30.8353 140.288 30.4998C140.289 30.38 140.291 30.2602 140.292 30.1367C140.291 30.0076 140.29 29.8784 140.29 29.7453C140.29 29.6125 140.29 29.4797 140.291 29.3429C140.291 29.0621 140.29 28.7812 140.289 28.5004C140.287 28.0698 140.289 27.6394 140.291 27.2089C140.291 26.9362 140.29 26.6636 140.29 26.391C140.29 26.2618 140.291 26.1327 140.292 25.9996C140.291 25.8798 140.289 25.76 140.288 25.6365C140.288 25.5311 140.288 25.4256 140.287 25.317C140.256 25.0422 140.256 25.0422 140.101 24.8234C139.781 24.5988 139.781 24.5988 138.97 24.6753Z" fill="#2A2A2A"/>
<path d="M146.077 6.53894C146.664 6.53894 147.25 6.53894 147.854 6.53894C147.854 7.8418 147.854 9.14465 147.854 10.487C148.315 10.487 148.776 10.487 149.25 10.487C149.25 9.18414 149.25 7.88128 149.25 6.53894C149.837 6.53894 150.423 6.53894 151.027 6.53894C151.027 9.8368 151.027 13.1347 151.027 16.5324C150.441 16.5324 149.855 16.5324 149.25 16.5324C149.25 15.0667 149.25 13.601 149.25 12.0909C148.79 12.0909 148.329 12.0909 147.854 12.0909C147.854 13.5566 147.854 15.0223 147.854 16.5324C147.268 16.5324 146.682 16.5324 146.077 16.5324C146.077 13.2346 146.077 9.93673 146.077 6.53894Z" fill="#2A2A2A"/>
<path d="M105.717 6.53894C106.303 6.53894 106.889 6.53894 107.493 6.53894C107.535 7.63823 107.577 8.73751 107.62 9.87011C108.123 8.77082 108.626 7.67154 109.143 6.53894C109.73 6.53894 110.316 6.53894 110.92 6.53894C110.799 7.13057 110.752 7.24647 110.385 7.67391C109.721 8.57786 109.194 9.46347 109.306 10.5995C109.649 12.5828 110.359 14.5178 111.047 16.4091C111.005 16.4498 110.963 16.4905 110.92 16.5324C110.334 16.5324 109.748 16.5324 109.143 16.5324C108.578 14.6392 108.578 14.6392 108.001 12.7078C107.637 13.2979 107.572 13.4461 107.555 14.0866C107.551 14.2293 107.546 14.3721 107.542 14.5191C107.537 14.7409 107.537 14.7409 107.533 14.9671C107.529 15.1173 107.524 15.2675 107.52 15.4223C107.51 15.7923 107.501 16.1624 107.493 16.5324C106.907 16.5324 106.321 16.5324 105.717 16.5324C105.717 13.2346 105.717 9.93673 105.717 6.53894Z" fill="#2A2A2A"/>
<path d="M161.363 23.1563C161.956 23.4942 162.254 23.8424 162.461 24.4869C162.617 25.1308 162.616 25.7665 162.615 26.4253C162.616 26.5554 162.616 26.6856 162.617 26.8197C162.618 27.0937 162.618 27.3678 162.617 27.6418C162.617 28.0588 162.62 28.4756 162.623 28.8926C162.623 29.1599 162.623 29.4273 162.623 29.6947C162.624 29.8181 162.626 29.9416 162.627 30.0687C162.621 30.9886 162.47 31.7638 161.974 32.556C161.404 33.0793 160.874 33.2114 160.11 33.2423C159.443 33.2218 158.922 33.0946 158.389 32.6948C157.906 32.1052 157.739 31.656 157.732 30.9125C157.73 30.7749 157.728 30.6373 157.727 30.4956C157.726 30.3468 157.725 30.198 157.724 30.0446C157.723 29.8914 157.722 29.7382 157.721 29.5803C157.719 29.2556 157.718 28.9309 157.717 28.6061C157.716 28.2743 157.713 27.9425 157.709 27.6107C157.703 27.1317 157.701 26.6527 157.7 26.1737C157.698 26.0261 157.696 25.8785 157.693 25.7265C157.696 24.8647 157.775 24.2934 158.262 23.5649C159.16 22.8704 160.298 22.6734 161.363 23.1563ZM159.69 24.7062C159.42 25.0736 159.388 25.3971 159.386 25.8341C159.385 25.9432 159.384 26.0524 159.383 26.1648C159.383 26.2824 159.383 26.4 159.383 26.5212C159.382 26.6424 159.382 26.7637 159.382 26.8886C159.381 27.1451 159.381 27.4017 159.381 27.6583C159.38 28.0504 159.378 28.4424 159.376 28.8345C159.375 29.0838 159.375 29.3331 159.375 29.5824C159.374 29.6995 159.373 29.8166 159.372 29.9373C159.367 30.7305 159.367 30.7305 159.658 31.461C159.963 31.5943 159.963 31.5943 160.293 31.5844C160.705 31.3719 160.705 31.3719 160.8 30.9675C160.812 30.779 160.818 30.59 160.819 30.4011C160.819 30.2866 160.82 30.1721 160.821 30.0542C160.821 29.9308 160.821 29.8074 160.822 29.6803C160.822 29.5533 160.822 29.4263 160.823 29.2954C160.823 29.0267 160.824 28.758 160.824 28.4893C160.824 28.078 160.826 27.6667 160.829 27.2554C160.829 26.9944 160.829 26.7335 160.829 26.4725C160.831 26.2878 160.831 26.2878 160.832 26.0994C160.832 25.9845 160.831 25.8696 160.831 25.7513C160.831 25.6505 160.831 25.5497 160.832 25.4458C160.796 25.1347 160.721 24.9379 160.546 24.6753C160.183 24.5393 160.015 24.4802 159.69 24.7062Z" fill="#2A2A2A"/>
<path d="M199.892 23.0714C200.478 23.0714 201.065 23.0714 201.669 23.0714C201.711 25.7586 201.753 28.4457 201.796 31.2143C202.005 31.2957 202.215 31.3771 202.43 31.461C202.634 31.324 202.634 31.324 202.811 31.0909C202.871 30.7298 202.871 30.7298 202.866 30.3127C202.868 30.1522 202.871 29.9917 202.874 29.8263C202.874 29.651 202.875 29.4757 202.876 29.3005C202.878 29.1212 202.88 28.9419 202.883 28.7627C202.889 28.2911 202.893 27.8195 202.896 27.348C202.9 26.8666 202.906 26.3853 202.911 25.904C202.922 24.9598 202.931 24.0156 202.938 23.0714C203.483 23.0714 204.027 23.0714 204.588 23.0714C204.599 24.1643 204.609 25.2572 204.614 26.3501C204.617 26.8577 204.621 27.3652 204.626 27.8728C204.632 28.3632 204.635 28.8535 204.636 29.3439C204.637 29.5305 204.639 29.717 204.642 29.9035C204.668 31.7388 204.668 31.7388 204.08 32.5714C203.27 33.1986 202.55 33.282 201.542 33.1883C200.941 33.0278 200.541 32.7856 200.217 32.263C199.935 31.6482 199.876 31.1979 199.877 30.5228C199.877 30.4421 199.877 30.3614 199.877 30.2783C199.878 30.0126 199.879 29.7469 199.88 29.4812C199.88 29.2966 199.88 29.112 199.88 28.9273C199.881 28.4422 199.882 27.957 199.883 27.4718C199.884 26.9765 199.885 26.4811 199.886 25.9857C199.887 25.0143 199.889 24.0428 199.892 23.0714Z" fill="#2A2A2A"/>
<path d="M128.943 6.53894C129.53 6.53894 130.116 6.53894 130.72 6.53894C130.762 9.22608 130.804 11.9132 130.847 14.6818C131.056 14.7632 131.266 14.8447 131.482 14.9286C131.685 14.7916 131.685 14.7916 131.862 14.5584C131.923 14.1974 131.923 14.1974 131.917 13.7802C131.92 13.6197 131.922 13.4592 131.925 13.2938C131.926 13.1185 131.927 12.9433 131.927 12.768C131.929 12.5887 131.932 12.4095 131.934 12.2302C131.94 11.7586 131.944 11.2871 131.947 10.8155C131.951 10.3342 131.957 9.85285 131.963 9.37154C131.974 8.42735 131.982 7.48317 131.989 6.53894C132.534 6.53894 133.078 6.53894 133.639 6.53894C133.651 7.63185 133.66 8.72472 133.666 9.81767C133.668 10.3252 133.672 10.8328 133.678 11.3403C133.683 11.8307 133.686 12.3211 133.687 12.8115C133.688 12.998 133.69 13.1845 133.693 13.371C133.719 15.2063 133.719 15.2063 133.132 16.0389C132.321 16.6661 131.601 16.7495 130.593 16.6558C129.992 16.4953 129.592 16.2531 129.268 15.7305C128.986 15.1157 128.927 14.6655 128.929 13.9903C128.929 13.9096 128.929 13.8289 128.929 13.7458C128.929 13.4801 128.93 13.2144 128.931 12.9487C128.931 12.7641 128.931 12.5795 128.931 12.3949C128.932 11.9097 128.933 11.4245 128.934 10.9394C128.936 10.444 128.936 9.94861 128.937 9.45323C128.938 8.4818 128.941 7.51037 128.943 6.53894Z" fill="#2A2A2A"/>
<path d="M184.209 6.60832C184.788 6.93191 185.033 7.37986 185.245 7.99053C185.318 8.38247 185.308 8.76275 185.304 9.16068C185.303 9.31654 185.302 9.4724 185.301 9.63298C185.299 9.75194 185.298 9.8709 185.296 9.99347C184.752 9.99347 184.207 9.99347 183.646 9.99347C183.603 9.48141 183.603 9.48141 183.559 8.96935C183.53 8.62476 183.53 8.62476 183.392 8.2662C183.099 8.22548 182.806 8.18477 182.504 8.14282C182.336 8.76126 182.359 9.37822 182.36 10.0127C182.36 10.1336 182.36 10.2545 182.36 10.3791C182.36 10.6342 182.36 10.8893 182.36 11.1444C182.361 11.5343 182.36 11.9241 182.36 12.314C182.36 12.5622 182.36 12.8104 182.36 13.0586C182.36 13.1749 182.36 13.2913 182.359 13.4111C182.361 13.9322 182.366 14.4208 182.504 14.9285C182.944 14.8675 182.944 14.8675 183.392 14.8052C183.549 14.3471 183.564 13.9029 183.591 13.4249C183.596 13.3324 183.602 13.2399 183.607 13.1446C183.621 12.9168 183.634 12.6889 183.646 12.461C183.395 12.461 183.144 12.461 182.885 12.461C182.885 11.9317 182.885 11.4024 182.885 10.8571C183.68 10.8571 184.476 10.8571 185.296 10.8571C185.305 11.4014 185.313 11.9454 185.317 12.4897C185.319 12.6744 185.322 12.8592 185.325 13.0439C185.364 15.2646 185.364 15.2646 184.614 16.1469C183.978 16.647 183.401 16.7111 182.604 16.6944C182.07 16.6362 181.66 16.4815 181.235 16.1623C180.752 15.5727 180.585 15.1234 180.578 14.38C180.576 14.2424 180.574 14.1048 180.573 13.9631C180.572 13.8143 180.571 13.6654 180.57 13.5121C180.569 13.3589 180.568 13.2057 180.567 13.0478C180.565 12.7231 180.564 12.3983 180.563 12.0736C180.561 11.7418 180.559 11.41 180.555 11.0782C180.549 10.5991 180.547 10.1202 180.546 9.64117C180.544 9.4936 180.542 9.34603 180.539 9.19399C180.542 8.33216 180.621 7.7609 181.108 7.03243C182.005 6.33794 183.137 6.14969 184.209 6.60832Z" fill="#2A2A2A"/>
<path d="M132.721 23.0574C132.816 23.058 132.911 23.0587 133.009 23.0593C133.112 23.0597 133.214 23.0601 133.32 23.0605C133.428 23.0616 133.536 23.0626 133.647 23.0637C133.756 23.0642 133.864 23.0648 133.976 23.0654C134.244 23.0668 134.513 23.069 134.781 23.0714C134.981 24.2832 135.179 25.4951 135.377 26.7071C135.469 27.2699 135.561 27.8326 135.654 28.3953C135.743 28.9384 135.832 29.4816 135.92 30.0249C135.954 30.232 135.988 30.4392 136.022 30.6463C136.07 30.9365 136.118 31.2269 136.165 31.5172C136.179 31.6027 136.193 31.6881 136.208 31.7762C136.279 32.2176 136.305 32.6142 136.305 33.0649C135.718 33.0649 135.132 33.0649 134.528 33.0649C134.444 32.4542 134.36 31.8435 134.274 31.2142C133.771 31.2142 133.269 31.2142 132.751 31.2142C132.743 31.3272 132.735 31.4401 132.727 31.5564C132.717 31.703 132.706 31.8497 132.695 32.0008C132.685 32.1468 132.675 32.2928 132.664 32.4432C132.624 32.8181 132.624 32.8181 132.497 33.0649C131.952 33.0649 131.408 33.0649 130.847 33.0649C131.117 31.071 131.42 29.0827 131.737 27.0953C131.803 26.6847 131.868 26.274 131.932 25.8633C131.995 25.4677 132.058 25.0722 132.121 24.6767C132.144 24.5293 132.167 24.382 132.191 24.2301C132.213 24.0956 132.234 23.9611 132.257 23.8226C132.276 23.7039 132.294 23.5852 132.314 23.463C132.394 23.0778 132.394 23.0778 132.721 23.0574ZM133.512 26.1558C133.247 27.2978 133.127 28.4475 133.005 29.6103C133.34 29.6103 133.675 29.6103 134.02 29.6103C133.951 28.4452 133.825 27.3088 133.639 26.1558C133.597 26.1558 133.555 26.1558 133.512 26.1558Z" fill="#2B2B2B"/>
<path d="M241.112 6.5249C241.207 6.52555 241.302 6.52619 241.4 6.52686C241.502 6.52726 241.605 6.52766 241.711 6.52807C241.819 6.5291 241.927 6.53013 242.038 6.5312C242.146 6.53175 242.255 6.53231 242.366 6.53288C242.635 6.53434 242.903 6.53656 243.172 6.53891C243.371 7.75073 243.57 8.96262 243.768 10.1746C243.86 10.7374 243.952 11.3002 244.044 11.8629C244.134 12.406 244.223 12.9492 244.311 13.4924C244.345 13.6996 244.379 13.9067 244.413 14.1138C244.461 14.404 244.508 14.6944 244.555 14.9848C244.57 15.0702 244.584 15.1557 244.599 15.2437C244.669 15.6851 244.695 16.0817 244.695 16.5324C244.109 16.5324 243.522 16.5324 242.918 16.5324C242.834 15.9217 242.751 15.311 242.664 14.6818C242.162 14.6818 241.659 14.6818 241.141 14.6818C241.134 14.7947 241.126 14.9076 241.118 15.0239C241.107 15.1706 241.097 15.3172 241.086 15.4683C241.076 15.6143 241.065 15.7603 241.055 15.9107C241.014 16.2857 241.014 16.2857 240.888 16.5324C240.343 16.5324 239.799 16.5324 239.238 16.5324C239.508 14.5385 239.811 12.5502 240.128 10.5628C240.194 10.1522 240.258 9.74154 240.323 9.3308C240.386 8.93522 240.449 8.53974 240.512 8.14425C240.535 7.99688 240.558 7.8495 240.582 7.69766C240.603 7.56317 240.625 7.42867 240.647 7.2901C240.666 7.17144 240.685 7.05278 240.705 6.93052C240.785 6.54531 240.785 6.54531 241.112 6.5249ZM241.903 9.62332C241.638 10.7653 241.518 11.915 241.395 13.0779C241.73 13.0779 242.065 13.0779 242.411 13.0779C242.341 11.9127 242.215 10.7764 242.03 9.62332C241.988 9.62332 241.946 9.62332 241.903 9.62332Z" fill="#2B2B2B"/>
<path d="M230.069 6.5249C230.164 6.52555 230.26 6.52619 230.357 6.52686C230.46 6.52726 230.563 6.52766 230.669 6.52807C230.776 6.5291 230.884 6.53013 230.996 6.5312C231.104 6.53175 231.212 6.53231 231.324 6.53288C231.593 6.53434 231.861 6.53656 232.13 6.53891C232.329 7.75073 232.528 8.96262 232.726 10.1746C232.818 10.7374 232.91 11.3002 233.002 11.8629C233.092 12.406 233.18 12.9492 233.269 13.4924C233.303 13.6996 233.337 13.9067 233.371 14.1138C233.419 14.404 233.466 14.6944 233.513 14.9848C233.527 15.0702 233.542 15.1557 233.556 15.2437C233.627 15.6851 233.653 16.0817 233.653 16.5324C233.067 16.5324 232.48 16.5324 231.876 16.5324C231.792 15.9217 231.708 15.311 231.622 14.6818C231.12 14.6818 230.617 14.6818 230.099 14.6818C230.091 14.7947 230.084 14.9076 230.076 15.0239C230.065 15.1706 230.055 15.3172 230.044 15.4683C230.033 15.6143 230.023 15.7603 230.012 15.9107C229.972 16.2857 229.972 16.2857 229.845 16.5324C229.301 16.5324 228.756 16.5324 228.195 16.5324C228.466 14.5385 228.769 12.5502 229.086 10.5628C229.151 10.1522 229.216 9.74154 229.281 9.3308C229.343 8.93522 229.406 8.53974 229.469 8.14425C229.493 7.99688 229.516 7.8495 229.54 7.69766C229.561 7.56317 229.583 7.42867 229.605 7.2901C229.624 7.17144 229.643 7.05278 229.662 6.93052C229.743 6.54531 229.743 6.54531 230.069 6.5249ZM230.861 9.62332C230.595 10.7653 230.475 11.915 230.353 13.0779C230.688 13.0779 231.023 13.0779 231.368 13.0779C231.299 11.9127 231.173 10.7764 230.988 9.62332C230.946 9.62332 230.904 9.62332 230.861 9.62332Z" fill="#2B2B2B"/>
<path d="M212.047 6.5249C212.142 6.52555 212.237 6.52619 212.335 6.52686C212.437 6.52726 212.54 6.52766 212.646 6.52807C212.754 6.5291 212.862 6.53013 212.973 6.5312C213.081 6.53175 213.19 6.53231 213.301 6.53288C213.57 6.53434 213.839 6.53656 214.107 6.53891C214.306 7.75073 214.505 8.96262 214.703 10.1746C214.795 10.7374 214.887 11.3002 214.979 11.8629C215.069 12.406 215.158 12.9492 215.246 13.4924C215.28 13.6996 215.314 13.9067 215.348 14.1138C215.396 14.404 215.443 14.6944 215.49 14.9848C215.505 15.0702 215.519 15.1557 215.534 15.2437C215.604 15.6851 215.63 16.0817 215.63 16.5324C215.044 16.5324 214.457 16.5324 213.853 16.5324C213.77 15.9217 213.686 15.311 213.599 14.6818C213.097 14.6818 212.594 14.6818 212.076 14.6818C212.069 14.7947 212.061 14.9076 212.053 15.0239C212.042 15.1706 212.032 15.3172 212.021 15.4683C212.011 15.6143 212 15.7603 211.99 15.9107C211.95 16.2857 211.95 16.2857 211.823 16.5324C211.278 16.5324 210.734 16.5324 210.173 16.5324C210.443 14.5385 210.746 12.5502 211.063 10.5628C211.129 10.1522 211.194 9.74154 211.258 9.3308C211.321 8.93522 211.384 8.53974 211.447 8.14425C211.47 7.99688 211.493 7.8495 211.517 7.69766C211.539 7.56317 211.56 7.42867 211.582 7.2901C211.601 7.17144 211.62 7.05278 211.64 6.93052C211.72 6.54531 211.72 6.54531 212.047 6.5249ZM212.838 9.62332C212.573 10.7653 212.453 11.915 212.33 13.0779C212.665 13.0779 213 13.0779 213.346 13.0779C213.276 11.9127 213.151 10.7764 212.965 9.62332C212.923 9.62332 212.881 9.62332 212.838 9.62332Z" fill="#2B2B2B"/>
<path d="M195.928 6.5249C196.023 6.52555 196.118 6.52619 196.216 6.52686C196.318 6.52726 196.421 6.52766 196.527 6.52807C196.635 6.5291 196.743 6.53013 196.854 6.5312C196.962 6.53175 197.071 6.53231 197.182 6.53288C197.451 6.53434 197.72 6.53656 197.988 6.53891C198.187 7.75073 198.386 8.96262 198.584 10.1746C198.676 10.7374 198.768 11.3002 198.861 11.8629C198.95 12.406 199.039 12.9492 199.127 13.4924C199.161 13.6996 199.195 13.9067 199.229 14.1138C199.277 14.404 199.324 14.6944 199.372 14.9848C199.386 15.0702 199.4 15.1557 199.415 15.2437C199.486 15.6851 199.511 16.0817 199.511 16.5324C198.925 16.5324 198.339 16.5324 197.734 16.5324C197.651 15.9217 197.567 15.311 197.481 14.6818C196.978 14.6818 196.475 14.6818 195.958 14.6818C195.95 14.7947 195.942 14.9076 195.934 15.0239C195.924 15.1706 195.913 15.3172 195.902 15.4683C195.892 15.6143 195.881 15.7603 195.871 15.9107C195.831 16.2857 195.831 16.2857 195.704 16.5324C195.159 16.5324 194.615 16.5324 194.054 16.5324C194.324 14.5385 194.627 12.5502 194.944 10.5628C195.01 10.1522 195.075 9.74154 195.139 9.3308C195.202 8.93522 195.265 8.53974 195.328 8.14425C195.351 7.99688 195.374 7.8495 195.398 7.69766C195.42 7.56317 195.441 7.42867 195.464 7.2901C195.482 7.17144 195.501 7.05278 195.521 6.93052C195.601 6.54531 195.601 6.54531 195.928 6.5249ZM196.719 9.62332C196.454 10.7653 196.334 11.915 196.211 13.0779C196.546 13.0779 196.882 13.0779 197.227 13.0779C197.158 11.9127 197.032 10.7764 196.846 9.62332C196.804 9.62332 196.762 9.62332 196.719 9.62332Z" fill="#2B2B2B"/>
<path d="M118.379 6.5249C118.474 6.52555 118.569 6.52619 118.667 6.52686C118.77 6.52726 118.872 6.52766 118.978 6.52807C119.086 6.5291 119.194 6.53013 119.305 6.5312C119.413 6.53175 119.522 6.53231 119.634 6.53288C119.902 6.53434 120.171 6.53656 120.439 6.53891C120.639 7.75073 120.837 8.96262 121.035 10.1746C121.127 10.7374 121.219 11.3002 121.312 11.8629C121.401 12.406 121.49 12.9492 121.578 13.4924C121.612 13.6996 121.646 13.9067 121.68 14.1138C121.728 14.404 121.776 14.6944 121.823 14.9848C121.837 15.0702 121.851 15.1557 121.866 15.2437C121.937 15.6851 121.962 16.0817 121.962 16.5324C121.376 16.5324 120.79 16.5324 120.186 16.5324C120.102 15.9217 120.018 15.311 119.932 14.6818C119.429 14.6818 118.927 14.6818 118.409 14.6818C118.401 14.7947 118.393 14.9076 118.385 15.0239C118.375 15.1706 118.364 15.3172 118.353 15.4683C118.343 15.6143 118.333 15.7603 118.322 15.9107C118.282 16.2857 118.282 16.2857 118.155 16.5324C117.61 16.5324 117.066 16.5324 116.505 16.5324C116.775 14.5385 117.078 12.5502 117.395 10.5628C117.461 10.1522 117.526 9.74154 117.59 9.3308C117.653 8.93522 117.716 8.53974 117.779 8.14425C117.802 7.99688 117.825 7.8495 117.849 7.69766C117.871 7.56317 117.892 7.42867 117.915 7.2901C117.934 7.17144 117.952 7.05278 117.972 6.93052C118.052 6.54531 118.052 6.54531 118.379 6.5249ZM119.17 9.62332C118.905 10.7653 118.785 11.915 118.663 13.0779C118.998 13.0779 119.333 13.0779 119.678 13.0779C119.609 11.9127 119.483 10.7764 119.297 9.62332C119.255 9.62332 119.213 9.62332 119.17 9.62332Z" fill="#2B2B2B"/>
<path d="M90.4561 6.5249C90.5512 6.52555 90.6462 6.52619 90.7442 6.52686C90.8468 6.52726 90.9495 6.52766 91.0553 6.52807C91.1632 6.5291 91.2711 6.53013 91.3822 6.5312C91.4906 6.53175 91.599 6.53231 91.7107 6.53288C91.9793 6.53434 92.248 6.53656 92.5166 6.53891C92.7157 7.75073 92.9144 8.96262 93.1123 10.1746C93.2043 10.7374 93.2964 11.3002 93.3889 11.8629C93.4782 12.406 93.5671 12.9492 93.6556 13.4924C93.6894 13.6996 93.7234 13.9067 93.7576 14.1138C93.8055 14.404 93.8527 14.6944 93.8998 14.9848C93.9141 15.0702 93.9283 15.1557 93.943 15.2437C94.0139 15.6851 94.0396 16.0817 94.0396 16.5324C93.4533 16.5324 92.8669 16.5324 92.2627 16.5324C92.179 15.9217 92.0952 15.311 92.0089 14.6818C91.5063 14.6818 91.0037 14.6818 90.4858 14.6818C90.4782 14.7947 90.4705 14.9076 90.4625 15.0239C90.4519 15.1706 90.4413 15.3172 90.4303 15.4683C90.42 15.6143 90.4097 15.7603 90.3991 15.9107C90.3589 16.2857 90.3589 16.2857 90.232 16.5324C89.6875 16.5324 89.143 16.5324 88.582 16.5324C88.8523 14.5385 89.1553 12.5502 89.4726 10.5628C89.538 10.1522 89.6029 9.74154 89.6676 9.3308C89.73 8.93522 89.7931 8.53974 89.8562 8.14425C89.8793 7.99688 89.9025 7.8495 89.9263 7.69766C89.9479 7.56317 89.9696 7.42867 89.9919 7.2901C90.0107 7.17144 90.0296 7.05278 90.049 6.93052C90.1295 6.54531 90.1295 6.54531 90.4561 6.5249ZM91.2474 9.62332C90.9821 10.7653 90.8622 11.915 90.7397 13.0779C91.0748 13.0779 91.4098 13.0779 91.7551 13.0779C91.6858 11.9127 91.56 10.7764 91.3743 9.62332C91.3324 9.62332 91.2905 9.62332 91.2474 9.62332Z" fill="#2B2B2B"/>
<path d="M74.5911 6.5249C74.6862 6.52555 74.7812 6.52619 74.8792 6.52686C74.9818 6.52726 75.0845 6.52766 75.1903 6.52807C75.2982 6.5291 75.4061 6.53013 75.5172 6.5312C75.6256 6.53175 75.734 6.53231 75.8457 6.53288C76.1143 6.53434 76.383 6.53656 76.6516 6.53891C76.8508 7.75073 77.0494 8.96262 77.2473 10.1746C77.3393 10.7374 77.4314 11.3002 77.5239 11.8629C77.6132 12.406 77.7021 12.9492 77.7906 13.4924C77.8244 13.6996 77.8584 13.9067 77.8926 14.1138C77.9405 14.404 77.9877 14.6944 78.0348 14.9848C78.0491 15.0702 78.0633 15.1557 78.078 15.2437C78.1489 15.6851 78.1747 16.0817 78.1747 16.5324C77.5883 16.5324 77.0019 16.5324 76.3978 16.5324C76.314 15.9217 76.2302 15.311 76.1439 14.6818C75.6413 14.6818 75.1387 14.6818 74.6209 14.6818C74.6132 14.7947 74.6055 14.9076 74.5976 15.0239C74.5869 15.1706 74.5763 15.3172 74.5653 15.4683C74.555 15.6143 74.5447 15.7603 74.5341 15.9107C74.4939 16.2857 74.4939 16.2857 74.367 16.5324C73.8225 16.5324 73.278 16.5324 72.717 16.5324C72.9873 14.5385 73.2904 12.5502 73.6076 10.5628C73.673 10.1522 73.7379 9.74154 73.8026 9.3308C73.865 8.93522 73.9281 8.53974 73.9912 8.14425C74.0143 7.99688 74.0375 7.8495 74.0613 7.69766C74.083 7.56317 74.1046 7.42867 74.1269 7.2901C74.1457 7.17144 74.1646 7.05278 74.184 6.93052C74.2645 6.54531 74.2645 6.54531 74.5911 6.5249ZM75.3824 9.62332C75.1171 10.7653 74.9972 11.915 74.8747 13.0779C75.2098 13.0779 75.5448 13.0779 75.8901 13.0779C75.8209 11.9127 75.695 10.7764 75.5093 9.62332C75.4674 9.62332 75.4255 9.62332 75.3824 9.62332Z" fill="#2B2B2B"/>
<path d="M143.967 6.55434C144.619 7.00702 144.991 7.44998 145.154 8.22137C145.224 8.80934 145.231 9.40316 145.189 9.99346C145.062 10.1168 145.062 10.1168 144.721 10.1332C144.582 10.1329 144.443 10.1326 144.301 10.1323C144.162 10.1326 144.023 10.1329 143.88 10.1332C143.539 10.1168 143.539 10.1168 143.412 9.99346C143.382 9.68182 143.359 9.37275 143.341 9.06043C143.335 8.97272 143.33 8.885 143.324 8.79464C143.311 8.57739 143.298 8.36011 143.285 8.14281C142.992 8.14281 142.699 8.14281 142.397 8.14281C142.397 10.3821 142.397 12.6214 142.397 14.9285C142.69 14.9285 142.983 14.9285 143.285 14.9285C143.293 14.7696 143.301 14.6108 143.308 14.4471C143.319 14.24 143.33 14.0329 143.341 13.8258C143.346 13.721 143.351 13.6161 143.356 13.508C143.361 13.4082 143.366 13.3084 143.372 13.2056C143.377 13.1132 143.381 13.0208 143.386 12.9256C143.412 12.7077 143.412 12.7077 143.539 12.5844C143.793 12.5722 144.047 12.5684 144.301 12.5689C144.439 12.5686 144.578 12.5683 144.721 12.568C145.062 12.5844 145.062 12.5844 145.189 12.7077C145.262 14.0202 145.318 15.1939 144.393 16.2307C143.824 16.6931 143.209 16.7093 142.497 16.6944C141.963 16.6362 141.553 16.4815 141.128 16.1623C140.645 15.5727 140.478 15.1234 140.47 14.38C140.469 14.2424 140.467 14.1048 140.466 13.9631C140.465 13.8143 140.464 13.6654 140.463 13.5121C140.462 13.3589 140.461 13.2056 140.46 13.0478C140.458 12.723 140.456 12.3983 140.455 12.0736C140.454 11.7418 140.452 11.41 140.448 11.0782C140.442 10.5991 140.44 10.1202 140.439 9.64116C140.437 9.49359 140.434 9.34602 140.432 9.19398C140.434 8.33215 140.514 7.76089 141.001 7.03242C141.886 6.3477 142.893 6.20607 143.967 6.55434Z" fill="#2B2B2B"/>
<path d="M47.8221 17.3798C47.948 17.3796 47.948 17.3796 48.0764 17.3794C48.2538 17.3793 48.4312 17.3795 48.6086 17.3801C48.8765 17.3807 49.1444 17.3801 49.4123 17.3793C50.2935 17.3789 51.1554 17.4005 52.0288 17.5195C51.9591 18.2657 51.7871 18.9144 51.5212 19.6169C51.4487 19.608 51.3762 19.5991 51.3015 19.5899C49.6804 19.3767 49.6804 19.3767 48.0943 19.6169C48.0524 19.6984 48.0105 19.7798 47.9674 19.8637C48.1235 19.858 48.2795 19.8522 48.4403 19.8463C48.6476 19.8417 48.8548 19.8372 49.0621 19.8328C49.1646 19.8287 49.2672 19.8246 49.3729 19.8203C50.0689 19.8093 50.4633 19.9016 51.0135 20.3572C51.3149 20.9433 51.1823 21.6939 51.0055 22.3004C50.6526 22.8758 50.273 23.2757 49.6307 23.5409C48.8709 23.7019 48.2213 23.4133 47.5274 23.1395C46.8389 22.8682 46.1461 22.658 45.4289 22.47C45.3279 22.4435 45.2269 22.417 45.1228 22.3897C44.8866 22.3284 44.6501 22.268 44.4136 22.2078C44.4555 22.045 44.4973 21.8821 44.5405 21.7143C45.6714 21.7143 46.8022 21.7143 47.9674 21.7143C48.0093 21.6329 48.0511 21.5515 48.0943 21.4676C47.9196 21.474 47.9196 21.474 47.7413 21.4806C46.0637 21.5166 46.0637 21.5166 45.302 21.0974C44.9368 20.6564 44.8963 20.3034 44.9292 19.7557C45.0503 18.9316 45.3019 18.2837 46.0001 17.774C46.5868 17.3916 47.1247 17.3804 47.8221 17.3798Z" fill="#9CBE46"/>
<path d="M184.075 23.0868C184.797 23.5887 185.091 24.037 185.263 24.8676C185.306 25.2538 185.296 25.644 185.296 26.0324C184.71 26.0324 184.123 26.0324 183.519 26.0324C183.477 25.5846 183.435 25.1367 183.392 24.6753C183.099 24.6753 182.806 24.6753 182.504 24.6753C182.404 25.6531 182.404 25.6531 182.797 26.5259C183.109 26.8782 183.451 27.1974 183.793 27.5213C183.854 27.5796 183.916 27.6379 183.979 27.698C184.041 27.7558 184.102 27.8137 184.165 27.8733C184.983 28.6616 185.286 29.4619 185.328 30.5665C185.316 31.3011 185.22 31.9841 184.71 32.554C184 33.1766 183.405 33.2265 182.464 33.2143C181.81 33.1643 181.473 32.9237 181.013 32.4866C180.425 31.7405 180.444 30.883 180.473 29.9805C181.06 29.9805 181.646 29.9805 182.25 29.9805C182.292 30.469 182.334 30.9576 182.377 31.461C182.674 31.4295 182.971 31.3879 183.265 31.3376C183.46 30.9586 183.421 30.6464 183.392 30.2272C183.102 29.5211 182.681 29.003 182.076 28.5308C181.284 27.8902 180.657 26.9797 180.557 25.9722C180.539 24.2209 180.539 24.2209 181.108 23.5649C181.993 22.8802 183 22.7385 184.075 23.0868Z" fill="#2A2A2A"/>
<path d="M134.528 6.53894C135.114 6.53894 135.7 6.53894 136.304 6.53894C136.479 7.34872 136.62 8.15158 136.722 8.97274C136.743 9.13443 136.743 9.13443 136.764 9.29938C136.807 9.63865 136.849 9.978 136.891 10.3173C136.921 10.5495 136.95 10.7816 136.98 11.0138C137.051 11.5784 137.122 12.143 137.193 12.7078C137.202 12.6396 137.211 12.5714 137.221 12.5011C137.318 11.7906 137.414 11.0801 137.511 10.3696C137.547 10.1046 137.584 9.83949 137.62 9.57441C137.671 9.1931 137.723 8.81182 137.775 8.43055C137.791 8.3123 137.807 8.19404 137.824 8.0722C137.839 7.96109 137.854 7.84998 137.87 7.73551C137.883 7.63825 137.897 7.54099 137.91 7.44078C137.957 7.13851 138.02 6.83869 138.081 6.53894C138.626 6.53894 139.17 6.53894 139.731 6.53894C139.645 7.71009 139.491 8.8654 139.314 10.0263C139.286 10.215 139.258 10.4037 139.23 10.5925C139.156 11.0842 139.082 11.5758 139.007 12.0674C138.931 12.5711 138.856 13.0749 138.78 13.5786C138.632 14.5633 138.484 15.5479 138.335 16.5324C137.581 16.5324 136.827 16.5324 136.051 16.5324C135.798 15.5195 135.646 14.4952 135.494 13.4644C135.466 13.276 135.438 13.0876 135.41 12.8992C135.352 12.5067 135.293 12.1141 135.235 11.7215C135.161 11.2182 135.086 10.715 135.011 10.2118C134.953 9.82382 134.895 9.4358 134.838 9.04777C134.81 8.86212 134.783 8.67647 134.755 8.49084C134.716 8.23224 134.678 7.97359 134.64 7.71493C134.618 7.56787 134.597 7.42081 134.574 7.26929C134.528 6.90907 134.528 6.90907 134.528 6.53894Z" fill="#2A2A2A"/>
<path d="M169.304 6.53894C170.77 6.53894 172.236 6.53894 173.746 6.53894C173.746 7.06823 173.746 7.59751 173.746 8.14284C172.867 8.14284 171.987 8.14284 171.081 8.14284C171.081 8.91641 171.081 9.68998 171.081 10.487C171.793 10.487 172.505 10.487 173.239 10.487C173.239 11.0163 173.239 11.5456 173.239 12.0909C172.526 12.0909 171.814 12.0909 171.081 12.0909C171.081 13.0273 171.081 13.9637 171.081 14.9286C171.96 14.9286 172.84 14.9286 173.746 14.9286C173.746 15.4578 173.746 15.9871 173.746 16.5324C172.28 16.5324 170.814 16.5324 169.304 16.5324C169.304 13.2346 169.304 9.93673 169.304 6.53894Z" fill="#2A2A2A"/>
<path d="M157.754 6.53894C159.22 6.53894 160.686 6.53894 162.196 6.53894C162.196 7.06823 162.196 7.59751 162.196 8.14284C161.317 8.14284 160.437 8.14284 159.531 8.14284C159.531 8.91641 159.531 9.68998 159.531 10.487C160.243 10.487 160.955 10.487 161.689 10.487C161.689 11.0163 161.689 11.5456 161.689 12.0909C160.977 12.0909 160.265 12.0909 159.531 12.0909C159.531 13.0273 159.531 13.9637 159.531 14.9286C160.411 14.9286 161.29 14.9286 162.196 14.9286C162.196 15.4578 162.196 15.9871 162.196 16.5324C160.73 16.5324 159.265 16.5324 157.754 16.5324C157.754 13.2346 157.754 9.93673 157.754 6.53894Z" fill="#2A2A2A"/>
<path d="M31.3407 17.5195C32.1244 17.5073 32.908 17.4984 33.6918 17.4924C33.9584 17.49 34.2249 17.4866 34.4914 17.4823C34.8748 17.4763 35.2582 17.4735 35.6417 17.4713C35.82 17.4675 35.82 17.4675 36.0019 17.4636C36.5464 17.4634 36.8428 17.4699 37.3148 17.7539C37.7856 18.2518 37.7298 18.71 37.721 19.3639C37.6697 19.9284 37.5547 20.1658 37.1791 20.604C36.7015 20.9141 36.2141 21.0973 35.656 21.2208C35.7817 21.4244 35.9073 21.628 36.0368 21.8377C35.7169 21.8795 35.397 21.9205 35.077 21.9611C34.9875 21.9729 34.8981 21.9846 34.806 21.9968C34.2379 22.068 33.6905 22.0962 33.1176 22.0845C33.0757 22.003 33.0338 21.9216 32.9907 21.8377C32.9488 21.9599 32.9069 22.082 32.8638 22.2079C32.4963 22.2702 32.1288 22.3317 31.7611 22.3929C31.6575 22.4106 31.5538 22.4282 31.4471 22.4464C31.2955 22.4715 31.2955 22.4715 31.1409 22.497C31.0485 22.5125 30.9561 22.528 30.8609 22.544C30.553 22.5811 30.2546 22.5835 29.9446 22.578C30.1229 21.917 30.3013 21.2561 30.4799 20.5952C30.5406 20.3704 30.6013 20.1455 30.662 19.9207C30.7491 19.5975 30.8364 19.2745 30.9238 18.9514C30.9644 18.8004 30.9644 18.8004 31.0059 18.6464C31.1086 18.2671 31.2131 17.8918 31.3407 17.5195ZM33.6253 19.3702C33.5415 19.6959 33.4578 20.0216 33.3715 20.3572C33.5749 20.3672 33.7786 20.3744 33.9823 20.3803C34.0956 20.3846 34.209 20.3889 34.3258 20.3933C34.6459 20.3819 34.6459 20.3819 34.8747 20.1914C35.0591 19.9827 35.0591 19.9827 34.9818 19.6555C34.9386 19.5143 34.9386 19.5143 34.8945 19.3702C34.4757 19.3702 34.0568 19.3702 33.6253 19.3702Z" fill="#6FAC3E"/>
<path d="M118.028 23.0714C118.656 23.0714 119.284 23.0714 119.932 23.0714C120.371 24.5371 120.371 24.5371 120.82 26.0325C121.113 25.0553 121.406 24.0782 121.709 23.0714C122.253 23.0714 122.798 23.0714 123.359 23.0714C123.485 23.3182 123.485 23.3182 123.339 23.776C123.264 23.9768 123.189 24.1775 123.114 24.378C122.04 27.3406 121.437 29.9211 121.582 33.0649C120.995 33.0649 120.409 33.0649 119.805 33.0649C119.815 32.7941 119.825 32.5232 119.835 32.2442C119.896 29.3298 119.31 26.8669 118.276 24.1381C118.136 23.7656 118.028 23.4715 118.028 23.0714Z" fill="#2A2A2A"/>
<path d="M90.8667 23.0714C91.495 23.0714 92.1232 23.0714 92.7705 23.0714C93.2103 24.5371 93.2103 24.5371 93.659 26.0325C93.9522 25.0553 94.2453 24.0782 94.5474 23.0714C95.0919 23.0714 95.6364 23.0714 96.1974 23.0714C96.3243 23.3182 96.3243 23.3182 96.1776 23.776C96.1032 23.9768 96.0281 24.1775 95.9525 24.378C94.8787 27.3406 94.2757 29.9211 94.4205 33.0649C93.8341 33.0649 93.2477 33.0649 92.6436 33.0649C92.6536 32.7941 92.6636 32.5232 92.6738 32.2442C92.735 29.3298 92.1484 26.8669 91.115 24.1381C90.9748 23.7656 90.8667 23.4715 90.8667 23.0714Z" fill="#2A2A2A"/>
<path d="M188.85 6.53894C189.478 6.53894 190.106 6.53894 190.754 6.53894C191.193 8.00465 191.193 8.00465 191.642 9.49998C191.935 8.52284 192.228 7.54569 192.531 6.53894C193.075 6.53894 193.62 6.53894 194.181 6.53894C194.307 6.78569 194.307 6.78569 194.161 7.24351C194.086 7.44437 194.011 7.64501 193.936 7.84548C192.862 10.8082 192.259 13.3886 192.404 16.5324C191.817 16.5324 191.231 16.5324 190.627 16.5324C190.637 16.2616 190.647 15.9908 190.657 15.7117C190.718 12.7973 190.132 10.3344 189.098 7.60563C188.958 7.23315 188.85 6.93907 188.85 6.53894Z" fill="#2A2A2A"/>
<path d="M78.0476 6.53894C78.6759 6.53894 79.3041 6.53894 79.9514 6.53894C80.3912 8.00465 80.3912 8.00465 80.8399 9.49998C81.1331 8.52284 81.4262 7.54569 81.7283 6.53894C82.2728 6.53894 82.8173 6.53894 83.3783 6.53894C83.5052 6.78569 83.5052 6.78569 83.3585 7.24351C83.2841 7.44437 83.209 7.64501 83.1334 7.84548C82.0596 10.8082 81.4566 13.3886 81.6014 16.5324C81.015 16.5324 80.4286 16.5324 79.8245 16.5324C79.8345 16.2616 79.8445 15.9908 79.8547 15.7117C79.916 12.7973 79.3293 10.3344 78.2959 7.60563C78.1557 7.23315 78.0476 6.93907 78.0476 6.53894Z" fill="#2A2A2A"/>
<path d="M38.8291 17.5195C40.8814 17.5195 42.9337 17.5195 45.0482 17.5195C44.8807 18.171 44.7132 18.8224 44.5405 19.4936C43.3678 19.4936 42.195 19.4936 40.9867 19.4936C40.9867 19.6157 40.9867 19.7378 40.9867 19.8637C42.0757 19.8637 43.1647 19.8637 44.2867 19.8637C44.1598 20.8507 44.1598 20.8507 44.0329 21.3442C42.8601 21.3442 41.6874 21.3442 40.4791 21.3442C40.4791 21.4663 40.4791 21.5885 40.4791 21.7143C39.5995 21.7143 38.7199 21.7143 37.8137 21.7143C37.9565 20.4651 37.9565 20.4651 38.1474 19.8208C38.1831 19.6983 38.2189 19.5759 38.2557 19.4497C38.301 19.2988 38.3462 19.1478 38.3928 18.9923C38.6088 18.2633 38.6088 18.2633 38.8291 17.5195Z" fill="#86B542"/>
<path d="M205.35 23.0714C206.983 23.0714 208.617 23.0714 210.3 23.0714C210.3 23.6007 210.3 24.13 210.3 24.6753C209.797 24.6753 209.294 24.6753 208.776 24.6753C208.776 27.4439 208.776 30.2124 208.776 33.0649C208.19 33.0649 207.604 33.0649 207 33.0649C207 30.2963 207 27.5278 207 24.6753C206.455 24.6753 205.911 24.6753 205.35 24.6753C205.35 24.146 205.35 23.6167 205.35 23.0714Z" fill="#2A2A2A"/>
<path d="M194.181 23.0714C195.814 23.0714 197.448 23.0714 199.131 23.0714C199.131 23.6007 199.131 24.13 199.131 24.6753C198.628 24.6753 198.125 24.6753 197.608 24.6753C197.608 27.4439 197.608 30.2124 197.608 33.0649C197.021 33.0649 196.435 33.0649 195.831 33.0649C195.831 30.2963 195.831 27.5278 195.831 24.6753C195.286 24.6753 194.742 24.6753 194.181 24.6753C194.181 24.146 194.181 23.6167 194.181 23.0714Z" fill="#2A2A2A"/>
<path d="M185.804 23.0714C187.437 23.0714 189.071 23.0714 190.754 23.0714C190.754 23.6007 190.754 24.13 190.754 24.6753C190.251 24.6753 189.748 24.6753 189.231 24.6753C189.231 27.4439 189.231 30.2124 189.231 33.0649C188.644 33.0649 188.058 33.0649 187.454 33.0649C187.454 30.2963 187.454 27.5278 187.454 24.6753C186.909 24.6753 186.365 24.6753 185.804 24.6753C185.804 24.146 185.804 23.6167 185.804 23.0714Z" fill="#2A2A2A"/>
<path d="M163.212 23.0714C164.845 23.0714 166.479 23.0714 168.162 23.0714C168.162 23.6007 168.162 24.13 168.162 24.6753C167.659 24.6753 167.156 24.6753 166.639 24.6753C166.639 27.4439 166.639 30.2124 166.639 33.0649C166.052 33.0649 165.466 33.0649 164.862 33.0649C164.862 30.2963 164.862 27.5278 164.862 24.6753C164.317 24.6753 163.773 24.6753 163.212 24.6753C163.212 24.146 163.212 23.6167 163.212 23.0714Z" fill="#2A2A2A"/>
<path d="M126.151 23.0714C127.784 23.0714 129.418 23.0714 131.101 23.0714C131.101 23.6007 131.101 24.13 131.101 24.6753C130.598 24.6753 130.096 24.6753 129.578 24.6753C129.578 27.4439 129.578 30.2124 129.578 33.0649C128.991 33.0649 128.405 33.0649 127.801 33.0649C127.801 30.2963 127.801 27.5278 127.801 24.6753C127.256 24.6753 126.712 24.6753 126.151 24.6753C126.151 24.146 126.151 23.6167 126.151 23.0714Z" fill="#2A2A2A"/>
<path d="M96.959 6.53894C98.5925 6.53894 100.226 6.53894 101.909 6.53894C101.909 7.06823 101.909 7.59751 101.909 8.14284C101.406 8.14284 100.904 8.14284 100.386 8.14284C100.386 10.9114 100.386 13.68 100.386 16.5324C99.7995 16.5324 99.2131 16.5324 98.609 16.5324C98.609 13.7639 98.609 10.9953 98.609 8.14284C98.0645 8.14284 97.52 8.14284 96.959 8.14284C96.959 7.61355 96.959 7.08427 96.959 6.53894Z" fill="#2A2A2A"/>
<path d="M83.886 6.53894C85.5195 6.53894 87.1529 6.53894 88.8359 6.53894C88.8359 7.06823 88.8359 7.59751 88.8359 8.14284C88.3333 8.14284 87.8307 8.14284 87.3129 8.14284C87.3129 10.9114 87.3129 13.68 87.3129 16.5324C86.7265 16.5324 86.1401 16.5324 85.536 16.5324C85.536 13.7639 85.536 10.9953 85.536 8.14284C84.9915 8.14284 84.447 8.14284 83.886 8.14284C83.886 7.61355 83.886 7.08427 83.886 6.53894Z" fill="#2A2A2A"/>
<path d="M102.543 23.0714C103.13 23.0714 103.716 23.0714 104.32 23.0714C104.32 25.84 104.32 28.6086 104.32 31.461C105.158 31.461 105.996 31.461 106.859 31.461C106.859 31.9903 106.859 32.5196 106.859 33.0649C105.435 33.0649 104.011 33.0649 102.543 33.0649C102.543 29.7671 102.543 26.4692 102.543 23.0714Z" fill="#2A2A2A"/>
<path d="M83.1245 23.0714C83.7109 23.0714 84.2973 23.0714 84.9014 23.0714C84.9014 25.84 84.9014 28.6086 84.9014 31.461C85.7391 31.461 86.5768 31.461 87.4398 31.461C87.4398 31.9903 87.4398 32.5196 87.4398 33.0649C86.0158 33.0649 84.5917 33.0649 83.1245 33.0649C83.1245 29.7671 83.1245 26.4692 83.1245 23.0714Z" fill="#2A2A2A"/>
<path d="M78.0476 23.0714C78.634 23.0714 79.2204 23.0714 79.8245 23.0714C79.8245 25.84 79.8245 28.6086 79.8245 31.461C80.6622 31.461 81.4999 31.461 82.3629 31.461C82.3629 31.9903 82.3629 32.5196 82.3629 33.0649C80.9389 33.0649 79.5148 33.0649 78.0476 33.0649C78.0476 29.7671 78.0476 26.4692 78.0476 23.0714Z" fill="#2A2A2A"/>
<path d="M234.415 6.53894C235.001 6.53894 235.587 6.53894 236.191 6.53894C236.191 9.30751 236.191 12.0761 236.191 14.9286C237.029 14.9286 237.867 14.9286 238.73 14.9286C238.73 15.4578 238.73 15.9871 238.73 16.5324C237.306 16.5324 235.882 16.5324 234.415 16.5324C234.415 13.2346 234.415 9.93673 234.415 6.53894Z" fill="#2A2A2A"/>
<path d="M111.809 6.53894C112.395 6.53894 112.981 6.53894 113.585 6.53894C113.585 9.30751 113.585 12.0761 113.585 14.9286C114.423 14.9286 115.261 14.9286 116.124 14.9286C116.124 15.4578 116.124 15.9871 116.124 16.5324C114.7 16.5324 113.276 16.5324 111.809 16.5324C111.809 13.2346 111.809 9.93673 111.809 6.53894Z" fill="#2A2A2A"/>
<path d="M211.188 23.0714C211.774 23.0714 212.361 23.0714 212.965 23.0714C212.965 26.3693 212.965 29.6671 212.965 33.0649C212.379 33.0649 211.792 33.0649 211.188 33.0649C211.188 29.7671 211.188 26.4692 211.188 23.0714Z" fill="#2A2A2A"/>
<path d="M191.515 23.0714C192.102 23.0714 192.688 23.0714 193.292 23.0714C193.292 26.3693 193.292 29.6671 193.292 33.0649C192.706 33.0649 192.119 33.0649 191.515 33.0649C191.515 29.7671 191.515 26.4692 191.515 23.0714Z" fill="#2A2A2A"/>
<path d="M171.462 23.0714C172.048 23.0714 172.634 23.0714 173.239 23.0714C173.239 26.3693 173.239 29.6671 173.239 33.0649C172.652 33.0649 172.066 33.0649 171.462 33.0649C171.462 29.7671 171.462 26.4692 171.462 23.0714Z" fill="#2A2A2A"/>
<path d="M148.997 23.0714C149.583 23.0714 150.169 23.0714 150.773 23.0714C150.773 26.3693 150.773 29.6671 150.773 33.0649C150.187 33.0649 149.601 33.0649 148.997 33.0649C148.997 29.7671 148.997 26.4692 148.997 23.0714Z" fill="#2A2A2A"/>
<path d="M115.363 23.0714C115.949 23.0714 116.535 23.0714 117.139 23.0714C117.139 26.3693 117.139 29.6671 117.139 33.0649C116.553 33.0649 115.967 33.0649 115.363 33.0649C115.363 29.7671 115.363 26.4692 115.363 23.0714Z" fill="#2A2A2A"/>
<path d="M99.6243 23.0714C100.211 23.0714 100.797 23.0714 101.401 23.0714C101.401 26.3693 101.401 29.6671 101.401 33.0649C100.815 33.0649 100.228 33.0649 99.6243 33.0649C99.6243 29.7671 99.6243 26.4692 99.6243 23.0714Z" fill="#2A2A2A"/>
<path d="M88.2014 23.0714C88.7878 23.0714 89.3742 23.0714 89.9783 23.0714C89.9783 26.3693 89.9783 29.6671 89.9783 33.0649C89.3919 33.0649 88.8056 33.0649 88.2014 33.0649C88.2014 29.7671 88.2014 26.4692 88.2014 23.0714Z" fill="#2A2A2A"/>
<path d="M75.1284 23.0714C75.7148 23.0714 76.3012 23.0714 76.9053 23.0714C76.9053 26.3693 76.9053 29.6671 76.9053 33.0649C76.3189 33.0649 75.7326 33.0649 75.1284 33.0649C75.1284 29.7671 75.1284 26.4692 75.1284 23.0714Z" fill="#2A2A2A"/>
<path d="M251.295 6.53894C251.882 6.53894 252.468 6.53894 253.072 6.53894C253.072 9.8368 253.072 13.1347 253.072 16.5324C252.486 16.5324 251.899 16.5324 251.295 16.5324C251.295 13.2346 251.295 9.93673 251.295 6.53894Z" fill="#2A2A2A"/>
<path d="M186.312 6.53894C186.898 6.53894 187.484 6.53894 188.088 6.53894C188.088 9.8368 188.088 13.1347 188.088 16.5324C187.502 16.5324 186.916 16.5324 186.312 16.5324C186.312 13.2346 186.312 9.93673 186.312 6.53894Z" fill="#2A2A2A"/>
<path d="M152.17 6.53894C152.756 6.53894 153.342 6.53894 153.947 6.53894C153.947 9.8368 153.947 13.1347 153.947 16.5324C153.36 16.5324 152.774 16.5324 152.17 16.5324C152.17 13.2346 152.17 9.93673 152.17 6.53894Z" fill="#2A2A2A"/>
<path d="M102.67 6.53894C103.257 6.53894 103.843 6.53894 104.447 6.53894C104.447 9.8368 104.447 13.1347 104.447 16.5324C103.861 16.5324 103.275 16.5324 102.67 16.5324C102.67 13.2346 102.67 9.93673 102.67 6.53894Z" fill="#2A2A2A"/>
<path d="M50.7278 25.9245C50.8299 25.9645 50.9321 26.0045 51.0374 26.0458C51.1309 26.0849 51.2244 26.1241 51.3208 26.1645C51.4027 26.1985 51.4846 26.2326 51.569 26.2677C51.8303 26.4388 51.9101 26.6168 52.0287 26.896C51.9195 26.8667 51.9195 26.8667 51.8081 26.8368C51.5704 26.7733 51.3326 26.7104 51.0947 26.6478C50.8518 26.5838 50.609 26.5195 50.3666 26.4538C50.0722 26.374 49.7773 26.2957 49.4824 26.2175C49.3921 26.1926 49.3018 26.1678 49.2088 26.1422C47.0773 25.5829 45.0197 25.4888 42.823 25.5071C42.5272 25.5081 42.2315 25.5089 41.9358 25.5096C41.163 25.5117 40.3902 25.5159 39.6174 25.5207C38.3811 25.528 37.1448 25.5322 35.9085 25.5362C35.4813 25.5379 35.054 25.5406 34.6268 25.5434C30.6514 25.5647 30.6514 25.5647 29.4368 25.2921C29.4368 25.2107 29.4368 25.1293 29.4368 25.0454C29.5092 25.0449 29.5816 25.0444 29.6562 25.0439C31.7513 25.0193 33.8177 24.8534 35.9015 24.6493C41.0061 24.1511 45.8865 24.0059 50.7278 25.9245Z" fill="#95BC45"/>
<path d="M27.66 17.5195C28.5815 17.5195 29.5029 17.5195 30.4523 17.5195C30.3629 18.1278 30.2611 18.668 30.0998 19.2555C30.0781 19.3349 30.0563 19.4144 30.0339 19.4963C29.9882 19.6629 29.9422 19.8294 29.896 19.9958C29.8256 20.2493 29.7563 20.503 29.6871 20.7567C29.6423 20.9195 29.5974 21.0822 29.5525 21.2449C29.4919 21.4644 29.4919 21.4644 29.43 21.6884C29.3238 22.0389 29.2162 22.3707 29.0562 22.7013C28.2315 23.0798 27.1528 22.9748 26.2639 22.9481C26.3471 22.2798 26.4966 21.6499 26.6809 21.0015C26.7089 20.9014 26.7369 20.8013 26.7657 20.6982C26.8544 20.3813 26.9439 20.0647 27.0334 19.748C27.094 19.532 27.1546 19.3161 27.2151 19.1001C27.3628 18.573 27.5114 18.0463 27.66 17.5195Z" fill="#5EA53A"/>
<path d="M24.1061 17.5195C24.9857 17.5195 25.8652 17.5195 26.7715 17.5195C26.6776 18.1583 26.5586 18.7534 26.3867 19.3721C26.3494 19.5086 26.3494 19.5086 26.3114 19.6479C26.2325 19.9359 26.1529 20.2236 26.0734 20.5114C26.02 20.7064 25.9666 20.9015 25.9133 21.0965C25.8622 21.2825 25.8112 21.4686 25.7601 21.6546C25.7361 21.7417 25.7122 21.8288 25.6875 21.9186C25.5917 22.2653 25.4921 22.6075 25.3753 22.9481C24.9708 22.9553 24.5662 22.9597 24.1616 22.9635C23.9912 22.9666 23.9912 22.9666 23.8173 22.9698C23.1414 22.9746 22.5877 22.9178 21.9485 22.7013C21.9066 22.3756 21.8647 22.0499 21.8215 21.7143C21.9342 21.7208 21.9342 21.7208 22.0491 21.7273C22.6746 21.7482 23.0928 21.7463 23.5984 21.3442C23.8626 20.959 23.887 20.859 23.884 20.4189C23.8847 20.3235 23.8853 20.228 23.886 20.1297C23.8684 19.8273 23.8684 19.8273 23.5984 19.4936C23.6202 19.2136 23.6202 19.2136 23.6936 18.8998C23.7165 18.7972 23.7394 18.6946 23.763 18.589C23.8609 18.2279 23.9846 17.8738 24.1061 17.5195Z" fill="#52A038"/>
<path d="M19.791 17.5195C20.7962 17.5195 21.8014 17.5195 22.8371 17.5195C22.9208 18.0081 23.0046 18.4967 23.0909 19.0001C22.6137 19.0904 22.6137 19.0904 22.1365 19.1808C21.8072 19.244 21.8072 19.244 21.4409 19.3702C21.2079 20.2041 21.2079 20.2041 21.322 21.0435C21.4878 21.6346 21.2989 22.0277 21.0602 22.578C20.7771 22.543 20.4942 22.5068 20.2114 22.47C20.0538 22.45 19.8963 22.4299 19.734 22.4093C19.3369 22.3405 19.014 22.2461 18.6487 22.0845C18.7244 21.1264 18.9557 20.2405 19.2198 19.3162C19.2809 19.0973 19.2809 19.0973 19.3433 18.874C19.6442 17.8048 19.6442 17.8048 19.791 17.5195Z" fill="#449A35"/>
<path d="M35.6113 6.64111C36.0338 6.78472 36.4033 6.94525 36.7903 7.16354C36.9118 7.23113 37.0334 7.29872 37.1586 7.36836C37.2491 7.42037 37.3396 7.47237 37.4328 7.52595C37.4685 7.80066 37.4685 7.80066 37.4328 8.14284C37.1909 8.41562 37.1909 8.41562 36.8617 8.68261C36.7457 8.77835 36.6297 8.8741 36.5101 8.97274C36.3958 9.0653 36.2814 9.15786 36.1636 9.25323C35.9861 9.40708 35.8089 9.56126 35.6321 9.71589C35.1886 10.0879 34.7623 10.4388 34.2598 10.7337C33.7982 10.6901 33.4297 10.5427 33.0223 10.3328C32.9235 10.2838 32.8247 10.2348 32.7228 10.1843C32.4132 9.93806 32.3952 9.75517 32.356 9.3766C32.4345 9.34607 32.513 9.31553 32.5939 9.28407C32.9194 9.09797 32.9515 8.95939 33.1175 8.63634C33.4214 8.27489 33.7583 7.94512 34.0932 7.61078C34.1815 7.51782 34.2697 7.42486 34.3607 7.32908C35.0246 6.66798 35.0246 6.66798 35.6113 6.64111Z" fill="#4D9E37"/>
<path d="M30.833 28.6234C31.1285 28.8562 31.3713 29.1219 31.6184 29.4022C31.6844 29.474 31.7504 29.5458 31.8184 29.6198C32.0009 29.8198 32.1788 30.023 32.3561 30.2273C32.4367 30.3156 32.5174 30.4038 32.6005 30.4948C32.7368 30.7208 32.7368 30.7208 32.7105 30.9615C32.5195 31.4415 32.0112 31.6224 31.5708 31.8697C31.4748 31.9274 31.3788 31.985 31.28 32.0444C30.8472 32.2915 30.5451 32.443 30.0388 32.4707C29.5665 32.2726 29.3581 31.9645 29.0958 31.5536C29.024 31.4474 29.024 31.4474 28.9508 31.3391C28.8137 31.1349 28.681 30.9279 28.5484 30.7208C28.4717 30.6146 28.395 30.5083 28.3159 30.3989C28.1677 30.1039 28.1677 30.1039 28.1543 29.7907C28.3611 29.3431 28.7172 29.1728 29.1434 28.9473C29.2601 28.8793 29.2601 28.8793 29.3791 28.8099C29.9135 28.518 30.2542 28.4081 30.833 28.6234Z" fill="#303030"/>
<path d="M26.8985 30.3507C27.3095 30.7651 27.4872 31.2941 27.6917 31.8235C27.7274 31.9103 27.763 31.997 27.7998 32.0864C27.989 32.5721 28.1189 32.9277 27.9138 33.4351C27.2007 33.8973 25.9832 34.3388 25.1216 34.1754C24.4702 33.2925 24.2969 32.1553 24.36 31.091C26.0364 30.239 26.0364 30.239 26.8985 30.3507Z" fill="#373737"/>
<path d="M32.3561 5.67528C32.7433 5.78315 33.1214 5.90766 33.4984 6.04541C33.5424 6.56216 33.4562 6.79014 33.1231 7.19098C33.0447 7.28696 32.9662 7.38294 32.8854 7.48183C32.8023 7.58036 32.7193 7.67888 32.6338 7.7804C32.5522 7.8794 32.4706 7.9784 32.3866 8.0804C32.2344 8.26515 32.0816 8.4494 31.9279 8.63298C31.7867 8.80408 31.651 8.97953 31.5202 9.15829C31.3408 9.37658 31.3408 9.37658 31.0894 9.43345C30.4199 9.40811 29.8272 9.31198 29.1831 9.12983C29.0283 8.6979 29.0458 8.53583 29.2391 8.10956C29.3268 7.96266 29.4166 7.81698 29.5083 7.67244C29.5549 7.59646 29.6015 7.52048 29.6495 7.44219C30.9196 5.39993 30.9196 5.39993 32.3561 5.67528Z" fill="#2D2D2D"/>
<path d="M27.1102 5.52779C27.2235 5.52859 27.3368 5.52938 27.4535 5.5302C27.6304 5.5333 27.6304 5.5333 27.8108 5.53647C27.9301 5.53758 28.0495 5.53869 28.1724 5.53984C28.467 5.54275 28.7616 5.54681 29.0562 5.55189C28.99 6.30878 28.8113 6.92786 28.5088 7.62616C28.4713 7.71864 28.4337 7.81112 28.395 7.90641C28.0221 8.78267 28.0221 8.78267 27.5331 9.00643C27.1127 9.07824 27.1127 9.07824 26.6447 9.10668C26.4902 9.11765 26.3358 9.12862 26.1766 9.13993C25.7755 9.13027 25.5799 9.0916 25.2485 8.88306C25.3986 7.81638 25.6745 6.77922 26.137 5.79864C26.5436 5.5351 26.6442 5.52202 27.1102 5.52779Z" fill="#3A3A3A"/>
<path d="M23.0907 31.4611C23.253 31.7766 23.232 31.9999 23.23 32.3527C23.2296 32.4799 23.2292 32.6071 23.2288 32.7382C23.2277 32.8715 23.2267 33.0048 23.2256 33.1421C23.225 33.2763 23.2244 33.4105 23.2238 33.5488C23.2224 33.8811 23.2203 34.2133 23.2177 34.5455C22.5371 34.8754 22.0218 34.9681 21.2662 34.9465C21.1745 34.9458 21.0827 34.9452 20.9881 34.9445C20.3182 34.9348 20.3182 34.9348 20.1715 34.7922C20.0511 32.4906 20.0511 32.4906 20.5835 31.7281C21.2778 31.2801 22.3055 31.262 23.0907 31.4611Z" fill="#74AE3F"/>
<path d="M24.3599 6.04549C24.3669 6.37453 24.3719 6.70343 24.3758 7.0325C24.3779 7.12427 24.3801 7.21603 24.3822 7.31058C24.388 7.9585 24.3136 8.51188 24.1061 9.12991C23.765 9.36124 23.765 9.36124 23.3446 9.50003C23.2006 9.54838 23.0566 9.59673 22.9083 9.64654C22.4458 9.74908 22.0403 9.76554 21.5677 9.74679C21.329 9.2827 21.4118 8.72298 21.409 8.21229C21.4064 8.09293 21.4038 7.97357 21.4011 7.8506C21.4004 7.73601 21.3998 7.62142 21.3991 7.50336C21.3979 7.39832 21.3967 7.29329 21.3955 7.18507C21.451 6.84651 21.5447 6.74513 21.8215 6.539C22.1884 6.3949 22.1884 6.3949 22.6148 6.26911C22.7542 6.22665 22.8936 6.18418 23.0372 6.14043C23.4917 6.04106 23.8956 6.02888 24.3599 6.04549Z" fill="#278E2F"/>
<path d="M17.3688 31.4326C19.0315 31.4632 19.0315 31.4632 19.41 31.8312C19.3615 32.4888 19.1779 33.0959 18.9737 33.7204C18.9461 33.8086 18.9186 33.8968 18.8902 33.9876C18.6802 34.638 18.6802 34.638 18.3946 34.9156C18.0794 34.9403 17.7815 34.9499 17.4665 34.9464C17.2995 34.9471 17.1324 34.9477 16.9603 34.9484C16.5286 34.9182 16.2415 34.8514 15.8562 34.6688C15.9196 33.9175 16.0961 33.3309 16.4194 32.6486C16.4591 32.5609 16.4988 32.4733 16.5396 32.383C16.9561 31.4808 16.9561 31.4808 17.3688 31.4326Z" fill="#67A83C"/>
<path d="M13.9524 30.5974C14.7371 30.5847 15.3107 30.8405 15.9831 31.2143C15.9303 31.948 15.5941 32.436 15.1899 33.0341C15.0988 33.176 15.0988 33.176 15.0059 33.3208C14.7485 33.7067 14.542 33.9986 14.1463 34.2563C13.7036 34.3148 13.4448 34.1989 13.0402 34.0211C12.9075 33.9645 12.7748 33.9078 12.6381 33.8495C12.3024 33.6818 12.3024 33.6818 12.0486 33.435C12.1181 32.8965 12.4642 32.5108 12.7863 32.0856C12.842 32.0106 12.8977 31.9356 12.9551 31.8584C13.065 31.7112 13.1759 31.5648 13.2877 31.4191C13.4312 31.2319 13.5708 31.042 13.71 30.8518C13.79 30.7679 13.87 30.6839 13.9524 30.5974Z" fill="#58A339"/>
<path d="M19.7908 7.52596C20.0627 7.92242 20.1424 8.21315 20.2509 8.6749C20.3005 8.8803 20.3005 8.8803 20.351 9.08985C20.4224 9.48334 20.439 9.84177 20.4254 10.2402C20.1401 10.3822 19.8545 10.5235 19.5687 10.6644C19.4882 10.7045 19.4077 10.7447 19.3248 10.786C18.459 11.2112 18.459 11.2112 18.1408 11.2273C17.698 10.9523 17.5816 10.4701 17.411 10.0089C17.3541 9.8591 17.2972 9.70928 17.2385 9.55492C17.1254 9.12956 17.0884 8.91888 17.2524 8.51297C17.4601 8.3308 17.4601 8.3308 17.7204 8.18911C17.8122 8.13869 17.904 8.08828 17.9985 8.03633C18.0874 7.99005 18.1762 7.94377 18.2677 7.89609C18.3986 7.82229 18.5295 7.7485 18.6644 7.67247C19.0754 7.50742 19.3505 7.4676 19.7908 7.52596Z" fill="#208C2E"/>
<path d="M11.8504 29.0938C12.4214 29.2788 12.7691 29.5729 13.191 29.9805C13.1254 30.4859 12.9947 30.7271 12.6253 31.0851C12.5363 31.1716 12.4474 31.2582 12.3558 31.3473C12.2623 31.4357 12.1688 31.5242 12.0725 31.6153C11.9804 31.7056 11.8884 31.7959 11.7936 31.889C11.0031 32.6483 11.0031 32.6483 10.5256 32.6948C10.1706 32.5126 10.1706 32.5126 9.79582 32.2476C9.67082 32.162 9.54582 32.0764 9.41704 31.9883C9.12948 31.7078 9.12948 31.7078 9.04321 31.408C9.16913 30.9451 9.48005 30.7104 9.84341 30.4123C9.90967 30.3556 9.97593 30.2988 10.0442 30.2403C10.178 30.1263 10.3128 30.0135 10.4486 29.9019C10.5866 29.7881 10.723 29.6723 10.8577 29.5548C11.3657 29.1194 11.3657 29.1194 11.8504 29.0938Z" fill="#499D36"/>
<path d="M10.1449 27.2662C10.3779 27.4725 10.3779 27.4725 10.5732 27.7288C10.6397 27.8122 10.7061 27.8955 10.7745 27.9814C10.9064 28.2532 10.9064 28.2532 10.9034 28.5674C10.7363 28.9756 10.5316 29.0805 10.1449 29.3019C10.0189 29.3744 9.89293 29.4469 9.76313 29.5217C9.63781 29.5916 9.51248 29.6616 9.38336 29.7337C9.27636 29.7986 9.16936 29.8635 9.05912 29.9303C8.96193 29.9876 8.86475 30.0449 8.76462 30.1038C8.67856 30.1547 8.5925 30.2056 8.50384 30.2581C8.152 30.382 7.95864 30.3426 7.60647 30.2272C7.15094 29.8716 6.87759 29.4883 6.73388 28.9395C6.72865 28.8351 6.72341 28.7308 6.71802 28.6233C7.34185 28.2231 7.98294 27.8643 8.64563 27.5284C8.721 27.4886 8.79636 27.4488 8.874 27.4078C9.34492 27.1741 9.64539 27.0686 10.1449 27.2662Z" fill="#363636"/>
<path d="M15.7293 9.74672C15.9759 10.0205 16.1895 10.2837 16.4036 10.5795C16.4629 10.6562 16.5222 10.7328 16.5833 10.8118C16.8334 11.1522 16.9917 11.3778 17.0219 11.8003C16.804 12.2216 16.4706 12.4435 16.0784 12.7001C16.0056 12.7523 15.9328 12.8045 15.8578 12.8584C15.5158 13.0874 15.311 13.215 14.8925 13.1507C14.5084 12.904 14.2278 12.6247 13.9207 12.2914C13.8101 12.1734 13.6995 12.0553 13.5856 11.9338C13.347 11.634 13.2376 11.4725 13.1909 11.1039C14.9905 9.48943 14.9905 9.48943 15.7293 9.74672Z" fill="#1D8A2E"/>
<path d="M6.97173 18.8767C9.56394 18.8411 9.56394 18.8411 10.1448 19.1234C10.0865 19.7804 10.0157 20.2855 9.63708 20.8507C9.05901 21.312 8.49265 21.2725 7.78085 21.2594C7.67189 21.2598 7.56293 21.2602 7.45066 21.2606C6.6419 21.2538 6.6419 21.2538 6.21021 20.9741C6.33652 20.1711 6.51372 19.5593 6.97173 18.8767Z" fill="#218C2E"/>
<path d="M11.9539 12.475C12.4932 12.5991 12.8054 12.7855 13.2464 13.1088C13.4464 13.2509 13.4464 13.2509 13.6504 13.396C13.9524 13.6948 13.9524 13.6948 14.0347 13.9994C13.9177 14.4434 13.6801 14.6449 13.3416 14.9594C13.2282 15.0669 13.1148 15.1744 12.998 15.2852C12.6832 15.5454 12.6832 15.5454 12.3024 15.6688C11.9398 15.5401 11.6131 15.3391 11.2791 15.1522C11.1396 15.0781 11.1396 15.0781 10.9972 15.0025C10.9082 14.9535 10.8191 14.9044 10.7273 14.8539C10.646 14.8091 10.5646 14.7644 10.4809 14.7183C10.2321 14.5282 10.139 14.346 10.0178 14.0649C10.2335 13.8215 10.4503 13.5794 10.6698 13.3391C10.8591 13.13 11.0424 12.9158 11.2236 12.7001C11.5409 12.461 11.5409 12.461 11.9539 12.475Z" fill="#1D8A2D"/>
<path d="M9.51018 24.7987C9.65892 25.1529 9.65077 25.499 9.64503 25.8782C9.64388 25.9768 9.64274 26.0754 9.64156 26.177C9.64009 26.2514 9.63861 26.3259 9.6371 26.4025C9.02606 26.6642 8.41364 26.8973 7.78087 27.1043C7.6994 27.132 7.61792 27.1598 7.53397 27.1884C7.08213 27.3364 6.68761 27.4474 6.21023 27.3896C5.80387 26.9946 5.82071 26.5466 5.80566 26.0093C5.82946 25.5389 5.82946 25.5389 6.0833 25.2922C6.55538 25.1289 7.04253 25.0146 7.52703 24.8912C7.72778 24.8368 7.72778 24.8368 7.93259 24.7813C8.06151 24.7482 8.19043 24.7151 8.32326 24.6811C8.44129 24.6503 8.55931 24.6196 8.68091 24.5879C9.05203 24.5464 9.20547 24.5946 9.51018 24.7987Z" fill="#414141"/>
<path d="M8.8756 15.5454C9.86133 15.5638 10.7573 15.9488 11.6679 16.2857C11.7249 16.8461 11.5727 17.1046 11.2316 17.5503C11.1506 17.6578 11.0696 17.7653 10.9862 17.8761C10.7794 18.1363 10.7794 18.1363 10.6525 18.2597C9.97417 18.2991 9.40872 18.1995 8.76455 18.0207C8.67881 17.9981 8.59308 17.9756 8.50475 17.9525C7.87911 17.7845 7.87911 17.7845 7.73331 17.6428C7.66383 17.0899 7.82686 16.825 8.16167 16.3859C8.24118 16.2798 8.3207 16.1738 8.40262 16.0645C8.62176 15.7922 8.62176 15.7922 8.8756 15.5454Z" fill="#1E8B2D"/>
<path d="M9.38326 21.961C9.39359 22.1974 9.40095 22.4339 9.40706 22.6704C9.41369 22.8679 9.41369 22.8679 9.42045 23.0695C9.37689 23.5053 9.34423 23.6494 9.0025 23.935C8.63978 24.0668 8.2713 24.1403 7.89194 24.2126C7.79214 24.2339 7.69234 24.2552 7.58951 24.2772C6.99111 24.399 6.44034 24.4508 5.82947 24.4285C5.81922 24.1046 5.81166 23.781 5.80567 23.4569C5.80248 23.3649 5.79929 23.2728 5.79601 23.1779C5.79229 22.9104 5.79229 22.9104 5.82947 22.4545C6.31754 22.1382 6.74965 22.0902 7.32079 21.9996C7.4206 21.982 7.5204 21.9644 7.62322 21.9463C8.24951 21.8447 8.76004 21.8403 9.38326 21.961Z" fill="#288E30"/>
<path d="M31.7055 10.5255C32.2567 10.6434 32.6614 10.9122 33.1175 11.2272C33.0153 11.9455 32.365 12.3606 31.8483 12.8311C31.7763 12.9001 31.7043 12.9692 31.6301 13.0403C31.3273 13.3143 31.1152 13.4428 30.706 13.5174C30.2275 13.4302 29.9432 13.2462 29.5637 12.9545C29.5218 12.8731 29.4799 12.7916 29.4368 12.7077C29.8127 12.2513 30.1935 11.7993 30.5791 11.3506C30.6512 11.2665 30.7234 11.1823 30.7977 11.0956C31.0838 10.7878 31.2869 10.6228 31.7055 10.5255Z" fill="#4C9E37"/>
<path d="M29.721 9.8296C29.9671 9.91966 30.21 10.0177 30.4523 10.1168C30.3328 10.6978 30.0125 11.0874 29.659 11.5588C29.5983 11.6438 29.5376 11.7288 29.4751 11.8164C29.0212 12.4244 29.0212 12.4244 28.6045 12.5902C28.2603 12.5837 28.006 12.5239 27.6838 12.407C27.5334 12.3538 27.5334 12.3538 27.3799 12.2995C27.3048 12.2714 27.2297 12.2432 27.1523 12.2142C27.2257 11.6396 27.4827 11.1943 27.779 10.7029C27.8247 10.6243 27.8705 10.5457 27.9176 10.4648C28.3704 9.70277 28.8207 9.56689 29.721 9.8296Z" fill="#3A3A3A"/>
<path d="M22.9638 28.3766C23.1554 28.749 23.1193 29.1328 23.1225 29.5409C23.1251 29.625 23.1277 29.7091 23.1304 29.7957C23.1354 30.4136 23.1354 30.4136 22.9147 30.7121C22.3125 31.1004 21.4988 30.9793 20.8061 30.9675C20.7958 30.6718 20.7883 30.3765 20.7823 30.0807C20.7776 29.9561 20.7776 29.9561 20.7727 29.8289C20.7644 29.2792 20.8243 28.9282 21.1869 28.5C21.7433 28.2163 22.368 28.2071 22.9638 28.3766Z" fill="#69A93C"/>
<path d="M26.2877 9.60797C26.4492 9.61019 26.6107 9.61242 26.7771 9.61471C26.9628 9.61901 26.9628 9.61901 27.1524 9.62339C27.3263 10.1306 27.1312 10.4484 26.9303 10.9188C26.8966 11.0023 26.8629 11.0858 26.8281 11.1719C26.4783 12.0088 26.4783 12.0088 26.137 12.2143C25.7667 12.2504 25.7667 12.2504 25.3517 12.2374C25.2138 12.2341 25.0758 12.2308 24.9337 12.2273C24.7754 12.2209 24.7754 12.2209 24.6139 12.2143C24.4697 12.0263 24.4697 12.0263 24.3601 11.7208C24.4354 11.3884 24.5204 11.0976 24.6377 10.78C24.666 10.6961 24.6942 10.6121 24.7233 10.5256C25.0328 9.6532 25.3843 9.59185 26.2877 9.60797Z" fill="#404040"/>
<path d="M19.5054 28.4152C19.6042 28.4274 19.703 28.4397 19.8048 28.4523C20.0448 28.5 20.0448 28.5 20.1717 28.6234C20.18 29.4341 20.048 30.3059 19.5371 30.9675C18.9331 31.1669 18.3789 31.0972 17.7602 30.9675C17.6764 30.8861 17.5927 30.8047 17.5063 30.7208C17.5587 30.2347 17.7359 29.7934 17.9188 29.3405C17.9692 29.2115 18.0196 29.0825 18.0715 28.9497C18.2679 28.6234 18.2679 28.6234 18.5693 28.4528C18.9132 28.3742 19.157 28.368 19.5054 28.4152Z" fill="#60A53A"/>
<path d="M123.359 27.2662C124.406 27.2662 125.453 27.2662 126.532 27.2662C126.532 27.7955 126.532 28.3248 126.532 28.8701C125.485 28.8701 124.437 28.8701 123.359 28.8701C123.359 28.3408 123.359 27.8116 123.359 27.2662Z" fill="#2B2B2B"/>
<path d="M23.8523 9.99345C23.9049 11.5643 23.9049 11.5643 23.5985 12.2142C23.0803 12.5657 22.5733 12.661 21.9485 12.7077C21.8647 12.667 21.781 12.6263 21.6947 12.5844C21.6775 12.2423 21.665 11.9011 21.655 11.5588C21.6497 11.4619 21.6444 11.3649 21.6389 11.2651C21.6329 10.9932 21.6356 10.7529 21.6947 10.487C22.0418 10.1943 22.4023 10.0687 22.8449 9.96261C22.9275 9.94162 23.0101 9.92062 23.0953 9.89899C23.3789 9.8661 23.5814 9.91133 23.8523 9.99345Z" fill="#309231"/>
<path d="M16.491 27.7983C16.9243 27.8949 17.2566 28.0234 17.6333 28.2533C17.7602 28.6234 17.7602 28.6234 17.545 29.0601C17.4437 29.2289 17.3408 29.3969 17.2367 29.5642C17.1869 29.6497 17.1372 29.7353 17.086 29.8235C16.71 30.4349 16.71 30.4349 16.3041 30.6076C15.9223 30.5955 15.6583 30.5078 15.3091 30.3584C15.197 30.3115 15.0849 30.2646 14.9694 30.2162C14.8852 30.1792 14.8009 30.1421 14.7141 30.1039C14.8248 29.6054 15.0428 29.2881 15.3487 28.8702C15.4358 28.738 15.4358 28.738 15.5247 28.6032C16.0075 27.9061 16.0075 27.9061 16.491 27.7983Z" fill="#54A138"/>
<path d="M25.6292 27.8832C25.8389 28.2678 25.8389 28.2678 26.002 28.7314C26.0581 28.8837 26.1142 29.0361 26.172 29.1931C26.2638 29.6104 26.2638 29.6104 26.2018 29.8986C25.9183 30.202 25.64 30.2356 25.2325 30.3199C25.0239 30.3647 25.0239 30.3647 24.8111 30.4105C24.7041 30.4314 24.5971 30.4524 24.4869 30.4741C24.0909 30.0471 24.0035 29.6437 23.8919 29.0861C23.86 28.9302 23.8281 28.7744 23.7952 28.6138C23.7722 28.4948 23.7491 28.3759 23.7253 28.2533C24.349 27.78 24.8885 27.4577 25.6292 27.8832Z" fill="#353535"/>
<path d="M20.3386 10.8773C20.5523 10.9805 20.5523 10.9805 20.703 11.2812C20.8333 11.8365 20.8893 12.3872 20.9331 12.9545C20.3875 13.3425 19.9405 13.5414 19.2831 13.6948C18.988 13.4352 18.8271 13.2164 18.6882 12.8543C18.6563 12.7746 18.6244 12.6949 18.5915 12.6128C18.5041 12.2689 18.5107 11.9502 18.5216 11.5974C18.7639 11.4696 19.0074 11.3441 19.2514 11.2195C19.4546 11.1143 19.4546 11.1143 19.6619 11.007C20.0446 10.8571 20.0446 10.8571 20.3386 10.8773Z" fill="#2B9031"/>
<path d="M14.6268 26.7805C15.0938 26.9388 15.3638 27.1906 15.7294 27.513C15.4413 28.0262 15.0848 28.4393 14.6665 28.8547C14.6069 28.9177 14.5474 28.9807 14.486 29.0456C14.3065 29.2239 14.3065 29.2239 13.9525 29.4871C13.3178 29.4825 13.0046 29.1419 12.5564 28.7468C12.6105 28.1527 12.8439 27.9317 13.3021 27.5516C13.4143 27.457 13.5265 27.3623 13.6422 27.2648C14.2669 26.771 14.2669 26.771 14.6268 26.7805Z" fill="#4A9C36"/>
<path d="M13.2977 25.298C13.7131 25.4762 13.859 25.7827 14.0795 26.1559C13.8872 26.6864 13.4778 26.928 13.0166 27.2277C12.9433 27.2774 12.87 27.3271 12.7945 27.3783C12.4292 27.6203 12.1103 27.8207 11.668 27.8831C11.5365 27.7305 11.4074 27.5759 11.2793 27.4205C11.2072 27.3346 11.135 27.2487 11.0607 27.1602C10.9065 26.8961 10.9065 26.8961 10.9349 26.6513C11.1084 26.2134 11.5541 26.0359 11.9536 25.8089C12.081 25.7312 12.081 25.7312 12.2109 25.652C12.5982 25.4275 12.8402 25.2907 13.2977 25.298Z" fill="#373737"/>
<path d="M12.8103 23.565C13.0616 23.9839 13.0731 24.3237 13.0641 24.7988C12.7399 24.968 12.4147 25.1346 12.0884 25.3C11.9969 25.3481 11.9053 25.3962 11.811 25.4458C11.4038 25.65 11.1288 25.7873 10.665 25.78C10.3988 25.6624 10.3988 25.6624 10.1608 25.2537C9.97909 24.6748 9.97909 24.6748 10.1449 24.3052C10.376 24.1621 10.376 24.1621 10.6685 24.0508C10.7715 24.0107 10.8746 23.9706 10.9808 23.9293C11.0819 23.8905 11.183 23.8517 11.2872 23.8117C11.4459 23.7373 11.6046 23.6628 11.7632 23.5881C12.197 23.434 12.3898 23.3782 12.8103 23.565Z" fill="#383838"/>
<path d="M17.2386 12.4779C17.6175 12.6286 17.7528 12.8526 17.9823 13.1781C18.0991 13.3396 18.0991 13.3396 18.2183 13.5044C18.3948 13.8182 18.3948 13.8182 18.3948 14.3117C18.1672 14.5261 18.1672 14.5261 17.8633 14.7203C17.7647 14.786 17.666 14.8517 17.5644 14.9194C17.1776 15.0838 17.0124 15.0658 16.6179 14.9285C16.366 14.7493 16.366 14.7493 16.142 14.5276C16.0667 14.4557 15.9914 14.3838 15.9139 14.3097C15.6983 14.0235 15.6495 13.7966 15.6025 13.448C15.7874 13.3064 15.9726 13.1651 16.1578 13.0239C16.3124 12.9058 16.3124 12.9058 16.4702 12.7854C16.9209 12.4555 16.9209 12.4555 17.2386 12.4779Z" fill="#278F30"/>
<path d="M14.6514 14.4385C15.0107 14.5748 15.2689 14.7416 15.5706 14.9749C15.6694 15.0496 15.7683 15.1244 15.8701 15.2014C16.11 15.4221 16.11 15.4221 16.2369 15.7922C16.0773 16.0399 16.0773 16.0399 15.8403 16.3012C15.7641 16.388 15.6878 16.4748 15.6093 16.5643C15.2936 16.8245 15.1279 16.8936 14.7139 16.9026C14.351 16.7431 14.351 16.7431 13.9841 16.5094C13.8617 16.4338 13.7393 16.3583 13.6132 16.2804C13.3178 16.039 13.3178 16.039 13.1799 15.7999C13.1973 15.3946 13.4253 15.2314 13.7144 14.9517C13.8142 14.8517 13.914 14.7516 14.0168 14.6486C14.3331 14.4351 14.3331 14.4351 14.6514 14.4385Z" fill="#268E2F"/>
<path d="M11.9059 19.2236C12.0456 19.2214 12.0456 19.2214 12.188 19.2191C12.6751 19.2178 12.9033 19.2249 13.3179 19.4935C13.2039 20.4541 13.2039 20.4541 12.9371 20.8507C12.6457 20.9923 12.4824 20.9883 12.1588 20.9861C12.0565 20.9857 11.9543 20.9853 11.8489 20.9849C11.7421 20.9839 11.6352 20.9828 11.5251 20.9818C11.4173 20.9812 11.3095 20.9807 11.1984 20.9801C10.9319 20.9786 10.6653 20.9764 10.3987 20.9741C10.2619 20.5225 10.2986 20.3304 10.5098 19.9022C10.5566 19.805 10.6034 19.7079 10.6516 19.6078C10.9291 19.0922 11.365 19.2241 11.9059 19.2236Z" fill="#2B9030"/>
<path d="M12.3025 16.7792C13.115 16.8366 13.7326 17.0441 14.4602 17.3961C14.4022 18.0163 14.0804 18.4014 13.6986 18.8766C12.8817 18.8135 12.1807 18.6632 11.4141 18.3831C11.4572 17.7116 11.884 17.2805 12.3025 16.7792Z" fill="#288E30"/>
<path d="M12.5565 21.4675C12.6834 21.5909 12.6834 21.5909 12.6958 21.8728C12.6943 21.9859 12.6928 22.099 12.6913 22.2155C12.6902 22.3289 12.689 22.4423 12.6878 22.5591C12.6864 22.6468 12.6849 22.7344 12.6834 22.8247C11.8068 23.2152 10.9952 23.4891 10.018 23.4416C9.89286 22.8331 9.83775 22.396 10.145 21.8377C10.8514 21.4943 11.7743 21.4215 12.5565 21.4675Z" fill="#309231"/>
<path d="M22.9639 19.2468C23.0058 19.4504 23.0477 19.6539 23.0909 19.8637C23.1327 19.7822 23.1746 19.7008 23.2178 19.6169C23.3434 19.6169 23.4691 19.6169 23.5985 19.6169C23.8207 20.0488 23.813 20.504 23.7255 20.9741C23.5034 21.2998 23.3283 21.3876 22.9639 21.5909C22.5543 21.6369 22.317 21.6466 21.9486 21.4676C21.9067 21.3454 21.8648 21.2233 21.8217 21.0974C21.696 21.0567 21.5703 21.016 21.4409 20.9741C21.2711 20.209 21.2711 20.209 21.4647 19.7634C21.9102 19.2408 22.2813 19.2166 22.9639 19.2468Z" fill="#262626"/>
<path d="M28.1677 26.6493C28.4027 26.8556 28.4027 26.8556 28.6278 27.112C28.7027 27.1953 28.7777 27.2786 28.8549 27.3645C29.0666 27.6504 29.1897 27.9221 29.31 28.2532C29.1316 28.381 28.9515 28.5065 28.7706 28.631C28.6705 28.7012 28.5703 28.7713 28.4672 28.8436C28.1677 28.9935 28.1677 28.9935 27.901 28.9843C27.5902 28.837 27.4609 28.6664 27.2634 28.392C27.2002 28.3058 27.1371 28.2196 27.072 28.1308C26.6449 27.5211 26.6449 27.5211 26.6367 27.2739C26.9287 26.7229 27.5652 26.4029 28.1677 26.6493Z" fill="#343434"/>
<path d="M29.0245 13.5483C29.4001 13.6818 29.6521 13.8034 29.9446 14.065C29.6308 14.7752 28.9977 15.2208 28.3423 15.6303C28.0408 15.6689 28.0408 15.6689 27.6204 15.4375C27.5078 15.351 27.3953 15.2645 27.2793 15.1754C27.5633 14.3767 28.1063 13.593 29.0245 13.5483Z" fill="#4C9E36"/>
<path d="M24.6372 25.3712C24.9096 25.5693 24.9854 25.7073 25.0978 26.017C25.13 26.1006 25.1623 26.1843 25.1955 26.2705C25.2579 26.5712 25.2437 26.7367 25.1216 27.0194C24.5908 27.2973 24.1949 27.4095 23.5985 27.3896C23.5344 27.1918 23.4711 26.9939 23.4082 26.7958C23.3551 26.6305 23.3551 26.6305 23.3011 26.4618C23.2178 26.1558 23.2178 26.1558 23.2178 25.7857C23.3963 25.6959 23.5765 25.6091 23.7572 25.5235C23.8573 25.4748 23.9574 25.4261 24.0606 25.376C24.3601 25.2922 24.3601 25.2922 24.6372 25.3712Z" fill="#323232"/>
<path d="M25.1454 12.6924C25.385 12.7 25.385 12.7 25.6293 12.7078C25.7759 13.2124 25.7354 13.4923 25.5262 13.9724C25.4809 14.0799 25.4356 14.1875 25.3889 14.2982C25.2485 14.5585 25.2485 14.5585 24.9947 14.6819C24.7992 14.6904 24.6034 14.6923 24.4077 14.6896C24.2521 14.6879 24.2521 14.6879 24.0934 14.6862C24.0139 14.6848 23.9343 14.6833 23.8524 14.6819C23.6862 14.2364 23.7647 13.9877 23.9476 13.556C24.0134 13.3953 24.0134 13.3953 24.0805 13.2312C24.3396 12.7617 24.6304 12.676 25.1454 12.6924Z" fill="#2E2E2E"/>
<path d="M27.4219 13.0086C27.5952 13.0618 27.5952 13.0618 27.7719 13.116C27.8606 13.1442 27.9493 13.1723 28.0407 13.2013C27.7877 13.8689 27.4643 14.464 26.8984 14.9286C26.487 14.9864 26.1505 14.9243 25.7561 14.8052C25.6663 14.6023 25.6663 14.6023 25.6292 14.3117C25.8022 13.971 25.8022 13.971 26.0496 13.61C26.1302 13.49 26.2109 13.3699 26.294 13.2462C26.6728 12.7522 26.855 12.8319 27.4219 13.0086Z" fill="#2F2F2F"/>
<path d="M22.71 25.9091C22.8369 26.0325 22.8369 26.0325 22.8493 26.3954C22.8479 26.5428 22.8464 26.6903 22.8449 26.8422C22.8437 26.9899 22.8426 27.1377 22.8414 27.2899C22.8399 27.4042 22.8384 27.5186 22.8369 27.6364C22.4248 27.8146 22.1065 27.9135 21.655 27.8986C21.5005 27.8935 21.3461 27.8884 21.187 27.8832C21.1835 27.6647 21.1811 27.4462 21.179 27.2277C21.1776 27.1061 21.1761 26.9844 21.1746 26.859C21.187 26.526 21.187 26.526 21.3139 26.1559C21.7828 25.9084 22.1818 25.8741 22.71 25.9091Z" fill="#60A53B"/>
<path d="M20.1081 26.0093C20.5523 26.0324 20.5523 26.0324 20.8062 26.1558C20.7916 26.3512 20.7754 26.5466 20.7586 26.7418C20.7497 26.8506 20.7409 26.9594 20.7318 27.0715C20.6787 27.3928 20.6048 27.6094 20.4254 27.8831C19.9063 28.0705 19.4375 27.9749 18.9023 27.8831C18.9999 27.1056 19.1655 26.0584 20.1081 26.0093Z" fill="#58A439"/>
<path d="M23.3446 12.9546C23.5951 13.4417 23.4607 14.0412 23.3446 14.5585C22.9727 14.9306 22.7578 14.9263 22.2261 14.9517C22.0926 14.9441 21.9591 14.9365 21.8215 14.9286C21.8215 14.3993 21.8215 13.87 21.8215 13.3247C22.7734 12.9546 22.7734 12.9546 23.3446 12.9546Z" fill="#379532"/>
<path d="M17.887 25.6624C18.7437 25.7703 18.7437 25.7703 19.0292 25.9091C19.0756 26.4379 18.9638 26.6919 18.6485 27.1197C18.5778 27.2172 18.5071 27.3147 18.4343 27.4152C18.3793 27.4882 18.3244 27.5612 18.2677 27.6364C18.108 27.6211 17.9483 27.6058 17.7838 27.5901C17.694 27.5815 17.6042 27.5729 17.5116 27.5641C17.2523 27.513 17.2523 27.513 16.8716 27.2662C17.0734 26.6383 17.4738 26.1713 17.887 25.6624Z" fill="#51A038"/>
<path d="M21.0601 13.6949C21.1312 13.8688 21.1994 14.0438 21.2664 14.2192C21.3047 14.3165 21.343 14.4139 21.3824 14.5142C21.4409 14.8052 21.4409 14.8052 21.3432 15.0747C21.1237 15.3896 20.9089 15.5158 20.5525 15.6689C20.2193 15.692 20.2193 15.692 19.9179 15.5455C19.6762 15.148 19.5126 14.7575 19.5698 14.2929C19.664 14.065 19.664 14.065 20.013 13.8491C20.4039 13.7029 20.6483 13.6595 21.0601 13.6949Z" fill="#329431"/>
<path d="M15.6025 22.7014C15.6444 22.9864 15.6863 23.2714 15.7294 23.565C15.4871 23.6927 15.2436 23.8183 14.9996 23.9428C14.8641 24.013 14.7287 24.0831 14.5891 24.1554C14.2031 24.3065 14.0732 24.3365 13.6987 24.1819C13.6149 23.8969 13.5311 23.6119 13.4448 23.3182C13.9712 22.7381 14.8342 22.4364 15.6025 22.7014Z" fill="#272727"/>
<path d="M15.3486 21.0974C15.5887 21.3308 15.5056 21.6613 15.5172 21.9721C15.5034 22.0499 15.4897 22.1277 15.4755 22.2078C15.0318 22.4953 14.7804 22.5048 14.2539 22.5394C14.1057 22.55 13.9575 22.5607 13.8047 22.5717C13.686 22.5737 13.5672 22.5758 13.4448 22.5779C13.4029 22.5372 13.361 22.4965 13.3179 22.4546C13.3352 22.1006 13.3521 21.8054 13.4448 21.4675C13.9286 21.0669 14.7353 21.0633 15.3486 21.0974Z" fill="#369632"/>
<path d="M16.895 24.9428C17.1738 25.067 17.3967 25.2268 17.6332 25.4156C17.4476 25.8255 17.2133 26.118 16.8955 26.4412C16.7686 26.5741 16.7686 26.5741 16.6391 26.7096C16.364 26.8961 16.364 26.8961 16.0318 26.8788C15.6627 26.7494 15.477 26.5642 15.2217 26.2793C15.3785 25.8218 15.5775 25.687 15.9594 25.3848C16.0702 25.2951 16.1809 25.2054 16.2951 25.113C16.6178 24.9221 16.6178 24.9221 16.895 24.9428Z" fill="#4A9D36"/>
<path d="M16.1101 23.935C16.3639 24.3052 16.3639 24.3052 16.3545 24.6069C16.1998 25.0218 15.9985 25.1532 15.6262 25.4001C15.4601 25.5142 15.4601 25.5142 15.2906 25.6305C14.9678 25.7857 14.9678 25.7857 14.6872 25.7664C14.3383 25.6065 14.2348 25.3795 14.0793 25.0454C14.2372 24.5849 14.3883 24.5271 14.8091 24.282C14.9731 24.184 14.9731 24.184 15.1403 24.084C15.5029 23.9228 15.717 23.8746 16.1101 23.935Z" fill="#272727"/>
<path d="M15.5232 17.7662C15.97 17.886 16.3414 18.0398 16.7448 18.2597C16.6714 18.7413 16.4774 19.0414 16.1102 19.3701C15.523 19.3596 15.0091 19.1952 14.4602 19C14.5402 18.3196 14.7501 17.7662 15.5232 17.7662Z" fill="#319232"/>
<path d="M18.7909 14.7667C19.1515 15.0115 19.3299 15.2958 19.5371 15.6689C19.553 15.931 19.553 15.931 19.4102 16.1624C19.0611 16.4554 19.0611 16.4554 18.6486 16.6559C18.2012 16.5834 18.0363 16.4314 17.7205 16.1161C17.5063 15.7922 17.5063 15.7922 17.5063 15.2987C17.7106 15.1069 17.7106 15.1069 17.9823 14.944C18.0707 14.8884 18.159 14.8327 18.25 14.7753C18.5217 14.6819 18.5217 14.6819 18.7909 14.7667Z" fill="#309330"/>
<path d="M15.0552 19.5398C15.2049 19.5535 15.3546 19.5671 15.5088 19.5812C15.6235 19.593 15.7382 19.6048 15.8564 19.6169C15.7612 20.5731 15.7612 20.5731 15.4756 20.8507C15.0621 20.8748 15.0621 20.8748 14.5713 20.8661C14.3274 20.8627 14.3274 20.8627 14.0785 20.8593C13.8905 20.855 13.8905 20.855 13.6987 20.8507C13.7098 20.6706 13.7235 20.4907 13.7384 20.3109C13.7458 20.2107 13.7531 20.1105 13.7607 20.0073C13.9204 19.3506 14.5049 19.4868 15.0552 19.5398Z" fill="#339332"/>
<path d="M16.8639 16.147C17.3562 16.3228 17.6308 16.5567 18.0141 16.9027C17.8559 17.3766 17.7178 17.6571 17.2525 17.8897C16.6661 17.8743 16.218 17.5614 15.7295 17.2728C15.7725 16.8963 15.8895 16.738 16.1341 16.4323C16.491 16.1624 16.491 16.1624 16.8639 16.147Z" fill="#2F9131"/>
<path d="M24.8677 24.4286C24.9514 24.4286 25.0352 24.4286 25.1215 24.4286C25.1215 24.51 25.1215 24.5914 25.1215 24.6753C25.0378 24.6753 24.954 24.6753 24.8677 24.6753C24.8677 24.5939 24.8677 24.5125 24.8677 24.4286Z" fill="#42BD31"/>
</svg>
