<svg width="256" height="38" viewBox="0 0 256 38" fill="none" xmlns="http://www.w3.org/2000/svg">
<path d="M19 17.2499C20.0725 17.2499 21.145 17.2499 22.25 17.2499C22.3452 17.8315 22.4282 18.4151 22.5 18.9999C22.4175 19.0824 22.335 19.1649 22.25 19.2499C22.415 19.3324 22.58 19.4149 22.75 19.4999C22.915 18.7574 23.08 18.0149 23.25 17.2499C24.1575 17.2499 25.065 17.2499 26 17.2499C25.8487 18.6638 25.5945 20.0005 25.2344 21.3749C25.1878 21.5567 25.1412 21.7385 25.0933 21.9257C24.9799 22.3674 24.8651 22.8087 24.75 23.2499C24.9975 23.2499 25.245 23.2499 25.5 23.2499C25.5459 22.8207 25.5459 22.8207 25.5928 22.3828C25.7317 21.2712 25.982 20.2073 26.2656 19.1249C26.3122 18.9432 26.3588 18.7614 26.4067 18.5742C26.5201 18.1325 26.6349 17.6912 26.75 17.2499C27.74 17.2499 28.73 17.2499 29.75 17.2499C29.5635 19.1149 29.1581 20.9223 28.75 22.7499C28.915 22.7499 29.08 22.7499 29.25 22.7499C29.2706 22.4457 29.2913 22.1415 29.3125 21.8281C29.4824 20.2409 29.9986 18.7587 30.5 17.2499C31.4427 17.2282 32.3853 17.2148 33.3281 17.2031C33.5961 17.1968 33.8641 17.1905 34.1401 17.184C34.3971 17.1816 34.6542 17.1792 34.9189 17.1767C35.2744 17.1708 35.2744 17.1708 35.637 17.1648C36.25 17.2499 36.25 17.2499 36.7004 17.569C37.1254 18.1803 37.1316 18.7688 37.1074 19.498C36.9263 20.3444 36.4162 20.7423 35.75 21.2499C35.585 21.2499 35.42 21.2499 35.25 21.2499C35.25 21.4974 35.25 21.7449 35.25 21.9999C35.8275 21.9999 36.405 21.9999 37 21.9999C37.0258 21.6803 37.0516 21.3606 37.0781 21.0312C37.25 19.7499 37.25 19.7499 38 17.2499C40.0625 17.2499 42.125 17.2499 44.25 17.2499C44.1675 17.9924 44.085 18.7349 44 19.4999C43.835 19.5824 43.67 19.6649 43.5 19.7499C43.6238 20.1212 43.6238 20.1212 43.75 20.4999C43.6675 20.8299 43.585 21.1599 43.5 21.4999C42.2625 21.4999 41.025 21.4999 39.75 21.4999C39.75 21.6649 39.75 21.8299 39.75 21.9999C41.4825 22.1237 41.4825 22.1237 43.25 22.2499C43.3325 22.0849 43.415 21.9199 43.5 21.7499C44.1406 21.5937 44.1406 21.5937 44.75 21.4999C44.585 21.4174 44.42 21.3349 44.25 21.2499C43.95 20.2806 43.9836 19.7984 44.3125 18.8281C44.9084 17.7 44.9084 17.7 45.5 17.2499C46.113 17.1648 46.113 17.1648 46.8311 17.1767C47.0881 17.1791 47.3451 17.1815 47.6099 17.184C48.0118 17.1934 48.0118 17.1934 48.4219 17.2031C48.8282 17.2081 48.8282 17.2081 49.2427 17.2133C49.9119 17.2222 50.5809 17.2345 51.25 17.2499C51.0312 19.1874 51.0312 19.1874 50.75 19.7499C50.3375 19.7499 49.925 19.7499 49.5 19.7499C49.6702 19.8273 49.8403 19.9046 50.0156 19.9843C50.5 20.4999 50.5 20.4999 50.5459 21.0156C50.4712 21.9817 50.3702 22.5897 49.7812 23.3749C49.25 23.7499 49.25 23.7499 48.5 23.9999C49.0775 24.3299 49.655 24.6599 50.25 24.9999C50.25 25.2474 50.25 25.4949 50.25 25.7499C50.0025 25.7499 49.755 25.7499 49.5 25.7499C50.0775 26.0799 50.655 26.4099 51.25 26.7499C51.1675 26.9149 51.085 27.0799 51 27.2499C50.7438 27.1807 50.4876 27.1114 50.2236 27.04C49.8835 26.9485 49.5433 26.857 49.2031 26.7656C49.0347 26.72 48.8664 26.6744 48.6929 26.6274C47.203 26.2276 45.878 25.9691 44.3324 25.9526C44.17 25.9505 44.0077 25.9484 43.8404 25.9463C43.4899 25.942 43.1393 25.9382 42.7887 25.9348C42.2339 25.9296 41.6792 25.9228 41.1244 25.9157C39.7474 25.8983 38.3703 25.8834 36.9933 25.8684C35.8277 25.8557 34.6621 25.842 33.4965 25.827C32.9499 25.8203 32.4033 25.8151 31.8567 25.81C31.5221 25.8058 31.1875 25.8016 30.8529 25.7973C30.5608 25.7942 30.2687 25.791 29.9677 25.7878C29.25 25.7499 29.25 25.7499 28.5 25.4999C28.5 25.3349 28.5 25.1699 28.5 24.9999C31.0575 24.8349 33.615 24.6699 36.25 24.4999C35.2059 24.5618 35.2059 24.5618 34.1406 24.6249C32.0416 24.7373 29.9457 24.7775 27.8438 24.7812C27.5697 24.7823 27.2956 24.7834 27.0132 24.7846C26.7582 24.7841 26.5031 24.7836 26.2402 24.7831C25.8991 24.7827 25.8991 24.7827 25.5511 24.7823C25 24.7499 25 24.7499 24.5 24.4999C24.4175 24.6649 24.335 24.8299 24.25 24.9999C24.046 24.9274 23.842 24.8549 23.6318 24.7802C22.4668 24.4099 21.2854 24.1548 20.0913 23.8969C18.9052 23.6294 17.8543 23.2606 16.75 22.7499C16.75 22.5849 16.75 22.4199 16.75 22.2499C17.08 22.2499 17.41 22.2499 17.75 22.2499C17.7774 22.0985 17.8048 21.947 17.833 21.791C18.1266 20.2393 18.5265 18.7564 19 17.2499ZM33 19.4999C32.9175 19.7474 32.835 19.9949 32.75 20.2499C33.1625 20.2499 33.575 20.2499 34 20.2499C34.0825 20.0024 34.165 19.7549 34.25 19.4999C33.8375 19.4999 33.425 19.4999 33 19.4999ZM20.75 21.2499C20.7191 21.4923 20.6881 21.7346 20.6562 21.9843C20.6047 22.237 20.5531 22.4896 20.5 22.7499C20.2525 22.8737 20.2525 22.8737 20 22.9999C20.4125 22.9999 20.825 22.9999 21.25 22.9999C21.25 22.5049 21.25 22.0099 21.25 21.4999C21.085 21.4174 20.92 21.3349 20.75 21.2499ZM40 23.9999C40 24.0824 40 24.1649 40 24.2499C40.4125 24.2499 40.825 24.2499 41.25 24.2499C41.25 24.1674 41.25 24.0849 41.25 23.9999C40.8375 23.9999 40.425 23.9999 40 23.9999ZM42.75 24.2499C42.75 24.3324 42.75 24.4149 42.75 24.4999C43.41 24.4999 44.07 24.4999 44.75 24.4999C44.75 24.4174 44.75 24.3349 44.75 24.2499C44.09 24.2499 43.43 24.2499 42.75 24.2499ZM44.75 24.4999C44.75 24.5824 44.75 24.6649 44.75 24.7499C45.245 24.7499 45.74 24.7499 46.25 24.7499C46.25 24.6674 46.25 24.5849 46.25 24.4999C45.755 24.4999 45.26 24.4999 44.75 24.4999ZM46.25 24.7499C47.25 24.9999 47.25 24.9999 47.25 24.9999L46.25 24.7499Z" fill="#6FAC3D"/>
<path d="M70.25 5.99985C70.8941 6.47114 71.1492 6.79819 71.5 7.49985C71.5185 8.07803 71.5209 8.65676 71.5156 9.23521C71.5147 9.40593 71.5138 9.57664 71.5128 9.75254C71.5097 10.2985 71.5051 10.8445 71.5 11.3905C71.4934 12.1096 71.4884 12.8286 71.4844 13.5477C71.4815 13.8679 71.4786 14.1881 71.4756 14.518C71.4157 15.2224 71.4157 15.2224 71.75 15.4999C71.7942 15.2298 71.8383 14.9598 71.8838 14.6816C72.0474 13.6816 72.2121 12.6818 72.3772 11.6821C72.4485 11.249 72.5195 10.8159 72.5903 10.3828C72.6919 9.76088 72.7946 9.13914 72.8975 8.51743C72.929 8.32315 72.9605 8.12887 72.993 7.9287C73.2216 6.55679 73.2216 6.55679 73.5 5.99985C74.325 5.99985 75.15 5.99985 76 5.99985C76.2152 7.25386 76.4288 8.50813 76.6409 9.76267C76.7132 10.189 76.786 10.6153 76.8592 11.0415C76.9646 11.6557 77.0684 12.2701 77.1719 12.8846C77.2047 13.0737 77.2375 13.2629 77.2713 13.4577C77.4426 14.4845 77.5347 15.4543 77.5 16.4999C76.84 16.4999 76.18 16.4999 75.5 16.4999C75.3763 15.7574 75.3763 15.7574 75.25 14.9999C74.8375 14.9174 74.425 14.8349 74 14.7499C73.9175 15.3274 73.835 15.9049 73.75 16.4999C73.1725 16.4999 72.595 16.4999 72 16.4999C71.9175 16.8299 71.835 17.1599 71.75 17.4999C70.8838 17.3761 70.8838 17.3761 70 17.2499C70 17.0849 70 16.9199 70 16.7499C69.6056 16.7731 69.6056 16.7731 69.2031 16.7967C68.1939 16.7471 67.7791 16.6231 67 15.9999C66.1772 14.7591 66.4166 13.2188 66.4211 11.7887C66.4219 11.268 66.416 10.7476 66.4097 10.2269C66.4095 9.89707 66.4094 9.56723 66.4092 9.22739C66.4085 8.9261 66.4077 8.6248 66.4069 8.31437C66.5082 7.42816 66.7175 6.95795 67.25 6.24985C68.1722 5.78876 69.2433 5.87788 70.25 5.99985ZM68.5 7.99985C68.5 10.1449 68.5 12.2899 68.5 14.4999C68.83 14.4999 69.16 14.4999 69.5 14.4999C69.5 12.3549 69.5 10.2099 69.5 7.99985C69.17 7.99985 68.84 7.99985 68.5 7.99985ZM74.5 9.74985C74.4175 10.7399 74.335 11.7299 74.25 12.7499C74.4975 12.7499 74.745 12.7499 75 12.7499C74.9175 11.7599 74.835 10.7699 74.75 9.74985C74.6675 9.74985 74.585 9.74985 74.5 9.74985Z" fill="white"/>
<rect width="4" height="11" transform="translate(55 1)" fill="#009BB9"/>
<rect width="4" height="10" transform="translate(55 14)" fill="white"/>
<rect width="4" height="2" transform="translate(55 12)" fill="#E5001D"/>
<rect width="4" height="2" transform="translate(55 24)" fill="#E5001D"/>
<rect width="4" height="11" transform="translate(55 26)" fill="#00BA19"/>
<path d="M66.5 23C67.4075 23 68.315 23 69.25 23C69.4975 24.4025 69.745 25.805 70 27.25C70.1545 25.945 70.1545 25.945 70.3066 24.6397C70.4722 23.2778 70.4722 23.2778 70.75 23C71.575 23 72.4 23 73.25 23C73.25 26.465 73.25 29.93 73.25 33.5C72.59 33.5 71.93 33.5 71.25 33.5C71.1675 33.2525 71.085 33.005 71 32.75C70.9175 32.9975 70.835 33.245 70.75 33.5C70.1725 33.5 69.595 33.5 69 33.5C68.9175 33.17 68.835 32.84 68.75 32.5C68.6675 32.83 68.585 33.16 68.5 33.5C67.84 33.5 67.18 33.5 66.5 33.5C66.5 30.035 66.5 26.57 66.5 23Z" fill="white"/>
<path d="M111 6C111.66 6 112.32 6 113 6C113 8.8875 113 11.775 113 14.75C113.825 14.75 114.65 14.75 115.5 14.75C116.005 14.2446 115.984 13.3086 116.103 12.6162C116.135 12.4279 116.168 12.2396 116.202 12.0456C116.308 11.442 116.412 10.8382 116.516 10.2344C116.587 9.82599 116.658 9.41763 116.729 9.00928C116.904 8.00636 117.077 7.00324 117.25 6C118.075 6 118.9 6 119.75 6C120.158 8.26264 120.554 10.5273 120.922 12.7969C120.955 12.994 120.987 13.1912 121.021 13.3943C121.189 14.4417 121.286 15.4351 121.25 16.5C120.59 16.5 119.93 16.5 119.25 16.5C119.126 15.7575 119.126 15.7575 119 15C118.588 14.9175 118.175 14.835 117.75 14.75C117.668 15.3275 117.585 15.905 117.5 16.5C115.355 16.5 113.21 16.5 111 16.5C111 13.035 111 9.57 111 6ZM118.25 9.75C118.168 10.74 118.085 11.73 118 12.75C118.247 12.75 118.495 12.75 118.75 12.75C118.668 11.76 118.585 10.77 118.5 9.75C118.418 9.75 118.335 9.75 118.25 9.75Z" fill="white"/>
<path d="M202 6C202.825 6 203.65 6 204.5 6C205.016 6.5163 204.933 7.55124 205.016 8.26562C205.093 8.92047 205.17 9.57531 205.25 10.25C205.497 8.8475 205.745 7.445 206 6C206.908 6 207.815 6 208.75 6C208.75 9.465 208.75 12.93 208.75 16.5C208.09 16.5 207.43 16.5 206.75 16.5C206.668 15.9225 206.585 15.345 206.5 14.75C206.418 15.3275 206.335 15.905 206.25 16.5C205.667 16.5106 205.083 16.5102 204.5 16.5C204.008 16.0079 204.084 15.163 204 14.5C203.918 15.16 203.835 15.82 203.75 16.5C203.173 16.5 202.595 16.5 202 16.5C202 13.035 202 9.57 202 6Z" fill="white"/>
<path d="M106.75 23C107.575 23 108.4 23 109.25 23C109.807 23.5568 109.721 24.8751 109.812 25.6572C109.851 26.5278 109.851 26.5278 110.25 27.25C110.283 26.9642 110.316 26.6783 110.351 26.3838C110.395 26.0111 110.44 25.6383 110.484 25.2656C110.506 25.0769 110.528 24.8883 110.55 24.6938C110.722 23.2783 110.722 23.2783 111 23C111.825 23 112.65 23 113.5 23C113.5 26.465 113.5 29.93 113.5 33.5C112.84 33.5 112.18 33.5 111.5 33.5C111.418 33.17 111.335 32.84 111.25 32.5C111.168 32.83 111.085 33.16 111 33.5C110.423 33.5 109.845 33.5 109.25 33.5C109.003 32.1388 109.003 32.1388 108.75 30.75C108.668 31.6575 108.585 32.565 108.5 33.5C107.923 33.5 107.345 33.5 106.75 33.5C106.75 30.035 106.75 26.57 106.75 23Z" fill="white"/>
<path d="M121.75 6C122.575 6 123.4 6 124.25 6C124.498 6.9075 124.745 7.815 125 8.75C125.083 7.8425 125.165 6.935 125.25 6C125.833 5.9894 126.417 5.98977 127 6C127.25 6.25 127.25 6.25 127.278 7.2193C127.278 7.65174 127.277 8.08417 127.274 8.5166C127.274 8.74376 127.274 8.97091 127.273 9.20495C127.272 9.93352 127.269 10.6621 127.266 11.3906C127.264 11.8833 127.263 12.376 127.262 12.8687C127.259 14.0791 127.255 15.2896 127.25 16.5C126.508 16.5 125.765 16.5 125 16.5C124.67 15.2625 124.34 14.025 124 12.75C123.918 13.9875 123.835 15.225 123.75 16.5C123.09 16.5 122.43 16.5 121.75 16.5C121.75 13.035 121.75 9.57 121.75 6Z" fill="white"/>
<path d="M174.267 22.9756C175.133 22.9878 175.133 22.9878 176 23C176.248 23.9075 176.495 24.815 176.75 25.75C176.833 24.8425 176.915 23.935 177 23C177.583 22.9894 178.167 22.9898 178.75 23C179 23.25 179 23.25 179.028 24.2193C179.028 24.6517 179.027 25.0842 179.024 25.5166C179.024 25.7438 179.024 25.9709 179.023 26.205C179.022 26.9335 179.019 27.6621 179.016 28.3906C179.014 28.8833 179.013 29.376 179.012 29.8687C179.009 31.0791 179.005 32.2896 179 33.5C178.258 33.5 177.515 33.5 176.75 33.5C176.42 32.18 176.09 30.86 175.75 29.5C175.668 30.82 175.585 32.14 175.5 33.5C174.84 33.5 174.18 33.5 173.5 33.5C173.494 32.0448 173.489 30.5896 173.486 29.1345C173.485 28.639 173.483 28.1436 173.481 27.6481C173.478 26.9376 173.477 26.2271 173.476 25.5166C173.474 25.2937 173.473 25.0708 173.472 24.8411C173.472 24.3106 173.484 23.7802 173.5 23.25C173.75 23 173.75 23 174.267 22.9756Z" fill="white"/>
<path d="M216.267 5.97559C217.133 5.98779 217.133 5.98779 218 6C218.248 6.9075 218.495 7.815 218.75 8.75C218.833 7.8425 218.915 6.935 219 6C219.583 5.9894 220.167 5.98977 220.75 6C221 6.25 221 6.25 221.028 7.2193C221.028 7.65174 221.027 8.08417 221.024 8.5166C221.024 8.74376 221.024 8.97091 221.023 9.20495C221.022 9.93352 221.019 10.6621 221.016 11.3906C221.014 11.8833 221.013 12.376 221.012 12.8687C221.009 14.0791 221.005 15.2896 221 16.5C220.258 16.5 219.515 16.5 218.75 16.5C218.42 15.18 218.09 13.86 217.75 12.5C217.668 13.82 217.585 15.14 217.5 16.5C216.84 16.5 216.18 16.5 215.5 16.5C215.494 15.0448 215.489 13.5896 215.486 12.1345C215.485 11.639 215.483 11.1436 215.481 10.6481C215.478 9.93762 215.477 9.22712 215.476 8.5166C215.474 8.29369 215.473 8.07077 215.472 7.8411C215.472 7.31065 215.484 6.78022 215.5 6.25C215.75 6 215.75 6 216.267 5.97559Z" fill="white"/>
<path d="M162.25 6C162.993 6 163.735 6 164.5 6C164.747 6.7425 164.995 7.485 165.25 8.25C165.286 7.92516 165.322 7.60031 165.359 7.26562C165.469 6.28125 165.469 6.28125 165.75 6C166.327 6 166.905 6 167.5 6C167.5 9.465 167.5 12.93 167.5 16.5C166.758 16.5 166.015 16.5 165.25 16.5C164.92 15.0975 164.59 13.695 164.25 12.25C164.168 13.6525 164.085 15.055 164 16.5C163.423 16.5 162.845 16.5 162.25 16.5C162.25 13.035 162.25 9.57 162.25 6Z" fill="white"/>
<path d="M221.75 6C225.25 6 225.25 6 226.5 6.75C226.838 7.4256 226.783 7.96504 226.781 8.71875C226.782 9.11224 226.782 9.11224 226.783 9.51367C226.75 10.25 226.75 10.25 226.592 10.7832C226.467 11.4178 226.707 11.6838 227 12.25C227.142 13.4911 227.163 14.6301 226.656 15.7812C226.25 16.25 226.25 16.25 225.75 16.5C224.43 16.5 223.11 16.5 221.75 16.5C221.75 13.035 221.75 9.57 221.75 6ZM223.75 8C223.75 8.7425 223.75 9.485 223.75 10.25C224.08 10.1675 224.41 10.085 224.75 10C224.75 9.4225 224.75 8.845 224.75 8.25C224.42 8.1675 224.09 8.085 223.75 8ZM223.75 12C223.75 12.9075 223.75 13.815 223.75 14.75C224.162 14.6675 224.575 14.585 225 14.5C225.01 14.1803 225.021 13.8606 225.031 13.5312C225.04 13.2615 225.04 13.2615 225.049 12.9863C225.046 12.4403 225.046 12.4403 224.5 12C224.253 12 224.005 12 223.75 12Z" fill="white"/>
<path d="M154.75 22.9999C155.394 23.4711 155.649 23.7982 156 24.4999C156.015 25.0752 156.015 25.6509 156.007 26.2264C156.004 26.5757 156.001 26.925 155.998 27.2743C155.991 27.8257 155.984 28.3771 155.976 28.9284C155.968 29.4601 155.964 29.9916 155.96 30.5233C155.954 31.0016 155.954 31.0016 155.947 31.4896C155.918 32.2776 155.918 32.2776 156.5 32.7499C156.547 33.5155 156.547 33.5155 156.5 34.2499C156.417 34.3324 156.335 34.4149 156.25 34.4999C155.665 34.428 155.081 34.345 154.5 34.2499C154.5 34.0849 154.5 33.9199 154.5 33.7499C154.106 33.7731 154.106 33.7731 153.703 33.7967C152.694 33.7471 152.279 33.6231 151.5 32.9999C150.677 31.7591 150.916 30.2188 150.921 28.7887C150.922 28.268 150.916 27.7476 150.91 27.2269C150.909 26.8971 150.909 26.5672 150.909 26.2274C150.908 25.9261 150.908 25.6248 150.907 25.3144C151.008 24.4282 151.217 23.958 151.75 23.2499C152.672 22.7888 153.743 22.8779 154.75 22.9999ZM153 24.9999C153 27.1449 153 29.2899 153 31.4999C153.33 31.4999 153.66 31.4999 154 31.4999C154 29.3549 154 27.2099 154 24.9999C153.67 24.9999 153.34 24.9999 153 24.9999Z" fill="white"/>
<path d="M244.5 6C248 6 248 6 249.25 6.75C249.603 7.45582 249.533 8.05725 249.531 8.84375C249.532 9.27204 249.532 9.27204 249.533 9.70898C249.506 10.3626 249.407 10.8743 249.25 11.5C249.332 11.665 249.415 11.83 249.5 12C249.538 12.3434 249.562 12.6882 249.579 13.0332C249.59 13.2346 249.6 13.436 249.611 13.6436C249.621 13.854 249.63 14.0644 249.641 14.2812C249.651 14.4936 249.662 14.706 249.673 14.9248C249.7 15.4498 249.725 15.9749 249.75 16.5C248.212 16.5244 248.212 16.5244 247.75 16.5C247.5 16.25 247.5 16.25 247.476 15.4053C247.477 15.0566 247.48 14.708 247.484 14.3594C247.486 14.1816 247.487 14.0039 247.488 13.8208C247.491 13.3805 247.495 12.9403 247.5 12.5C247.17 12.4175 246.84 12.335 246.5 12.25C246.5 13.6525 246.5 15.055 246.5 16.5C245.84 16.5 245.18 16.5 244.5 16.5C244.5 13.035 244.5 9.57 244.5 6ZM246.5 8C246.5 8.825 246.5 9.65 246.5 10.5C246.83 10.4175 247.16 10.335 247.5 10.25C247.5 9.59 247.5 8.93 247.5 8.25C247.17 8.1675 246.84 8.085 246.5 8Z" fill="white"/>
<path d="M173.75 6C177.5 6 177.5 6 178.5 6.75C178.755 7.51354 178.783 8.04484 178.781 8.84375C178.782 9.1947 178.782 9.1947 178.783 9.55273C178.75 10.25 178.75 10.25 178.607 10.9316C178.44 11.5053 178.44 11.5053 178.75 12C178.788 12.3434 178.812 12.6882 178.829 13.0332C178.84 13.2346 178.85 13.436 178.861 13.6436C178.871 13.854 178.88 14.0644 178.891 14.2812C178.901 14.4936 178.912 14.706 178.923 14.9248C178.95 15.4498 178.975 15.9749 179 16.5C177.462 16.5244 177.462 16.5244 177 16.5C176.75 16.25 176.75 16.25 176.726 15.4053C176.727 15.0566 176.73 14.708 176.734 14.3594C176.736 14.1816 176.737 14.0039 176.738 13.8208C176.741 13.3805 176.745 12.9403 176.75 12.5C176.42 12.4175 176.09 12.335 175.75 12.25C175.75 13.6525 175.75 15.055 175.75 16.5C175.09 16.5 174.43 16.5 173.75 16.5C173.75 13.035 173.75 9.57 173.75 6ZM175.75 8C175.75 8.825 175.75 9.65 175.75 10.5C176.08 10.4175 176.41 10.335 176.75 10.25C176.75 9.59 176.75 8.93 176.75 8.25C176.42 8.1675 176.09 8.085 175.75 8Z" fill="white"/>
<path d="M136.25 23C139.75 23 139.75 23 141 23.75C141.561 24.872 141.327 26.3897 141.338 27.637C141.342 28.0131 141.348 28.3892 141.358 28.7652C141.372 29.3087 141.377 29.8518 141.381 30.3955C141.386 30.7209 141.391 31.0464 141.396 31.3817C141.25 32.25 141.25 32.25 140 33.5C138.763 33.5 137.525 33.5 136.25 33.5C136.25 30.035 136.25 26.57 136.25 23ZM138.25 25C138.25 27.2275 138.25 29.455 138.25 31.75C138.58 31.6675 138.91 31.585 139.25 31.5C139.25 29.355 139.25 27.21 139.25 25C138.92 25 138.59 25 138.25 25Z" fill="white"/>
<path d="M145.211 22.877C146.091 23.0779 146.482 23.5375 147 24.2501C147.313 25.1335 147.275 25.9951 147.266 26.9249C147.264 27.2476 147.262 27.5704 147.26 27.9029C147.257 28.2426 147.253 28.5823 147.25 28.922C147.243 29.5896 147.238 30.2572 147.234 30.9249C147.232 31.2209 147.229 31.517 147.226 31.822C147.172 32.479 147.172 32.479 147.5 32.7501C147.51 33.3333 147.511 33.9168 147.5 34.5001C145.781 34.2813 145.781 34.2813 145.5 34.0001C144.946 33.8865 144.389 33.7915 143.831 33.6983C143.06 33.4351 142.754 33.1439 142.25 32.5001C142.147 31.845 142.104 31.2963 142.108 30.6417C142.107 30.4629 142.105 30.2842 142.104 30.1C142.102 29.7229 142.103 29.3457 142.106 28.9685C142.109 28.3932 142.101 27.8189 142.091 27.2437C142.091 26.8764 142.092 26.509 142.093 26.1417C142.089 25.9708 142.086 25.7999 142.083 25.6239C142.101 24.6609 142.232 24.2726 142.849 23.5172C143.703 22.8384 144.158 22.8174 145.211 22.877ZM144.5 24.7501C143.955 25.5675 143.938 25.804 143.942 26.7501C143.943 26.9924 143.943 27.2348 143.944 27.4845C143.948 27.8634 143.948 27.8634 143.953 28.2501C143.953 28.5027 143.953 28.7554 143.954 29.0157C143.949 30.4053 143.949 30.4053 144.25 31.7501C144.498 31.7501 144.745 31.7501 145 31.7501C145.499 30.7512 145.307 29.4889 145.313 28.3907C145.318 28.125 145.323 27.8593 145.328 27.5855C145.329 27.3308 145.331 27.076 145.332 26.8136C145.334 26.5798 145.337 26.346 145.339 26.1051C145.235 25.4003 145.049 25.185 144.5 24.7501Z" fill="white"/>
<path d="M145.25 6C145.91 6 146.57 6 147.25 6C147.25 7.4025 147.25 8.805 147.25 10.25C147.58 10.25 147.91 10.25 148.25 10.25C148.247 9.96415 148.244 9.6783 148.241 9.38379C148.239 9.01107 148.237 8.63835 148.234 8.26562C148.232 8.07694 148.23 7.88825 148.228 7.69385C148.226 7.21251 148.237 6.73116 148.25 6.25C148.332 6.1675 148.415 6.085 148.5 6C149.077 6 149.655 6 150.25 6C150.25 9.465 150.25 12.93 150.25 16.5C149.59 16.5 148.93 16.5 148.25 16.5C148.25 15.015 148.25 13.53 148.25 12C147.92 12 147.59 12 147.25 12C147.25 13.485 147.25 14.97 147.25 16.5C146.59 16.5 145.93 16.5 145.25 16.5C145.25 13.035 145.25 9.57 145.25 6Z" fill="white"/>
<path d="M160.5 23.0001C161.393 23.6695 161.806 24.1664 162 25.2501C162.062 26.2284 162.058 27.2075 162.062 28.1876C162.068 28.4525 162.073 28.7174 162.078 28.9903C162.086 30.5911 161.953 31.8026 161.25 33.2501C160.328 33.9284 159.36 33.7552 158.271 33.6456C157.644 33.4706 157.4 33.2582 157 32.7501C156.586 31.5079 156.694 30.2156 156.69 28.9146C156.688 28.4098 156.68 27.9052 156.672 27.4005C156.671 27.0808 156.669 26.7611 156.668 26.4317C156.666 26.1393 156.663 25.8469 156.661 25.5456C156.76 24.6617 156.967 24.2052 157.5 23.5001C158.503 22.8315 159.321 22.7953 160.5 23.0001ZM159.25 24.7501C159.003 24.8738 159.003 24.8738 158.75 25.0001C158.75 27.1451 158.75 29.2901 158.75 31.5001C159.08 31.5826 159.41 31.6651 159.75 31.7501C160.249 30.7512 160.057 29.489 160.062 28.3907C160.068 28.125 160.073 27.8593 160.078 27.5855C160.079 27.3308 160.081 27.076 160.082 26.8136C160.084 26.5798 160.087 26.346 160.089 26.1051C159.985 25.4003 159.799 25.185 159.25 24.7501Z" fill="white"/>
<path d="M199 23C199.66 23 200.32 23 201 23C201.083 25.805 201.165 28.61 201.25 31.5C201.415 31.5 201.58 31.5 201.75 31.5C201.833 28.695 201.915 25.89 202 23C202.66 23 203.32 23 204 23C204.025 24.2543 204.043 25.5084 204.055 26.7628C204.06 27.1891 204.067 27.6154 204.075 28.0416C204.088 28.656 204.093 29.2702 204.098 29.8848C204.103 30.0739 204.108 30.263 204.113 30.4579C204.114 31.7478 203.854 32.4777 203 33.5C202.256 33.81 201.549 33.8142 200.75 33.75C199.832 33.3595 199.557 33.0852 199 32.25C198.957 31.5425 198.942 30.8603 198.951 30.1533C198.952 29.9491 198.953 29.7448 198.953 29.5344C198.956 28.8823 198.962 28.2302 198.969 27.5781C198.971 27.1359 198.974 26.6937 198.976 26.2515C198.981 25.1676 198.99 24.0838 199 23Z" fill="white"/>
<path d="M104.75 6C105.41 6 106.07 6 106.75 6C106.832 6.9075 106.915 7.815 107 8.75C107.412 7.8425 107.825 6.935 108.25 6C108.91 6 109.57 6 110.25 6C110.107 6.95291 109.823 7.60102 109.328 8.42188C108.59 9.87125 108.772 10.7432 109.25 12.25C109.428 12.8696 109.605 13.4894 109.781 14.1094C109.87 14.403 109.958 14.6965 110.049 14.999C110.25 15.75 110.25 15.75 110.25 16.5C109.59 16.5 108.93 16.5 108.25 16.5C108.181 16.2863 108.111 16.0727 108.04 15.8525C107.949 15.5764 107.859 15.3002 107.766 15.0156C107.676 14.7401 107.586 14.4646 107.493 14.1807C107.315 13.5297 107.315 13.5297 107 13.25C106.918 14.3225 106.835 15.395 106.75 16.5C106.09 16.5 105.43 16.5 104.75 16.5C104.75 13.035 104.75 9.57 104.75 6Z" fill="white"/>
<path d="M128 6C128.66 6 129.32 6 130 6C130.083 8.805 130.165 11.61 130.25 14.5C130.415 14.5 130.58 14.5 130.75 14.5C130.756 14.2514 130.763 14.0028 130.769 13.7466C130.792 12.8274 130.818 11.9082 130.843 10.989C130.854 10.5905 130.864 10.1921 130.874 9.79364C130.889 9.22209 130.905 8.6506 130.921 8.0791C130.925 7.89994 130.929 7.72077 130.934 7.53617C130.972 6.27847 130.972 6.27847 131.25 6C131.833 5.98977 132.417 5.9894 133 6C133.019 7.25884 133.032 8.51761 133.041 9.77655C133.045 10.2045 133.05 10.6325 133.057 11.0605C133.066 11.6767 133.07 12.2929 133.073 12.9092C133.077 13.0996 133.081 13.29 133.085 13.4862C133.085 14.623 132.953 15.3458 132.25 16.25C131.336 16.8845 130.576 16.7831 129.515 16.6367C129 16.5 129 16.5 128.5 16.0313C127.98 14.9265 127.967 13.9586 127.976 12.7627C127.976 12.5695 127.976 12.3764 127.977 12.1774C127.978 11.561 127.981 10.9445 127.984 10.3281C127.986 9.91 127.987 9.49186 127.988 9.07373C127.991 8.04915 127.995 7.02458 128 6Z" fill="white"/>
<path d="M182.71 5.88277C183.25 5.99996 183.25 5.99996 184.016 6.46871C184.695 7.56425 184.61 8.49382 184.5 9.74996C183.922 9.74996 183.345 9.74996 182.75 9.74996C182.585 9.17246 182.42 8.59496 182.25 7.99996C181.686 8.45719 181.686 8.45719 181.693 9.13045C181.696 9.38968 181.698 9.6489 181.701 9.91598C181.703 10.1963 181.704 10.4767 181.706 10.7656C181.712 11.2064 181.712 11.2064 181.719 11.6562C181.721 11.9521 181.723 12.2479 181.726 12.5527C181.731 13.2852 181.74 14.0175 181.75 14.75C182.121 14.6262 182.121 14.6262 182.5 14.5C182.582 13.84 182.665 13.18 182.75 12.5C182.502 12.5 182.255 12.5 182 12.5C182 11.84 182 11.18 182 10.5C182.825 10.5 183.65 10.5 184.5 10.5C184.527 11.2658 184.547 12.0307 184.562 12.7968C184.575 13.121 184.575 13.121 184.588 13.4516C184.604 14.4898 184.588 15.0947 184.065 16.0127C183.186 16.7708 182.385 16.8248 181.25 16.75C180.487 16.4162 180.122 16.244 179.75 15.5C179.679 14.3361 179.672 13.172 179.662 12.0061C179.658 11.6179 179.651 11.2297 179.642 10.8416C179.628 10.2807 179.623 9.7202 179.619 9.15914C179.613 8.9867 179.608 8.81426 179.602 8.6366C179.606 7.66548 179.726 7.27923 180.347 6.51601C181.202 5.83992 181.658 5.8125 182.71 5.88277Z" fill="white"/>
<path d="M240 6C240.825 6 241.65 6 242.5 6C242.714 7.37471 242.928 8.74952 243.141 10.1245C243.213 10.5923 243.286 11.06 243.359 11.5278C243.464 12.1997 243.568 12.8718 243.672 13.5439C243.705 13.7533 243.737 13.9627 243.771 14.1785C243.892 14.9597 244 15.7083 244 16.5C243.34 16.5 242.68 16.5 242 16.5C241.918 15.9225 241.835 15.345 241.75 14.75C241.338 14.75 240.925 14.75 240.5 14.75C240.418 15.3275 240.335 15.905 240.25 16.5C239.59 16.5 238.93 16.5 238.25 16.5C238.417 15.2857 238.586 14.0716 238.757 12.8577C238.814 12.4454 238.871 12.0329 238.928 11.6204C239.01 11.0251 239.094 10.43 239.178 9.83496C239.215 9.56142 239.215 9.56142 239.253 9.28234C239.414 8.15135 239.663 7.09198 240 6ZM241 10.25C240.918 11.075 240.835 11.9 240.75 12.75C240.997 12.75 241.245 12.75 241.5 12.75C241.418 11.925 241.335 11.1 241.25 10.25C241.168 10.25 241.085 10.25 241 10.25Z" fill="white"/>
<path d="M229 6C229.825 6 230.65 6 231.5 6C231.714 7.37471 231.928 8.74952 232.141 10.1245C232.213 10.5923 232.286 11.06 232.359 11.5278C232.464 12.1997 232.568 12.8718 232.672 13.5439C232.705 13.7533 232.737 13.9627 232.771 14.1785C232.892 14.9597 233 15.7083 233 16.5C232.34 16.5 231.68 16.5 231 16.5C230.918 15.9225 230.835 15.345 230.75 14.75C230.338 14.75 229.925 14.75 229.5 14.75C229.418 15.3275 229.335 15.905 229.25 16.5C228.59 16.5 227.93 16.5 227.25 16.5C227.417 15.2857 227.586 14.0716 227.757 12.8577C227.814 12.4454 227.871 12.0329 227.928 11.6204C228.01 11.0251 228.094 10.43 228.178 9.83496C228.215 9.56142 228.215 9.56142 228.253 9.28234C228.414 8.15135 228.663 7.09198 229 6ZM230 10.25C229.918 11.075 229.835 11.9 229.75 12.75C229.997 12.75 230.245 12.75 230.5 12.75C230.418 11.925 230.335 11.1 230.25 10.25C230.168 10.25 230.085 10.25 230 10.25Z" fill="white"/>
<path d="M211 6C211.825 6 212.65 6 213.5 6C213.714 7.37471 213.928 8.74952 214.141 10.1245C214.213 10.5923 214.286 11.06 214.359 11.5278C214.464 12.1997 214.568 12.8718 214.672 13.5439C214.705 13.7533 214.737 13.9627 214.771 14.1785C214.892 14.9597 215 15.7083 215 16.5C214.34 16.5 213.68 16.5 213 16.5C212.918 15.9225 212.835 15.345 212.75 14.75C212.338 14.75 211.925 14.75 211.5 14.75C211.418 15.3275 211.335 15.905 211.25 16.5C210.59 16.5 209.93 16.5 209.25 16.5C209.417 15.2857 209.586 14.0716 209.757 12.8577C209.814 12.4454 209.871 12.0329 209.928 11.6204C210.01 11.0251 210.094 10.43 210.178 9.83496C210.215 9.56142 210.215 9.56142 210.253 9.28234C210.414 8.15135 210.663 7.09198 211 6ZM212 10.25C211.918 11.075 211.835 11.9 211.75 12.75C211.997 12.75 212.245 12.75 212.5 12.75C212.418 11.925 212.335 11.1 212.25 10.25C212.168 10.25 212.085 10.25 212 10.25Z" fill="white"/>
<path d="M132.267 22.9756C132.575 22.9799 132.575 22.9799 132.891 22.9844C133.097 22.9866 133.304 22.9889 133.517 22.9912C133.676 22.9941 133.836 22.997 134 23C134.694 26.4827 135.224 29.9885 135.75 33.5C135.09 33.5 134.43 33.5 133.75 33.5C133.668 32.9225 133.585 32.345 133.5 31.75C133.005 31.75 132.51 31.75 132 31.75C132.005 31.9923 132.01 32.2347 132.016 32.4844C132 33.25 132 33.25 131.75 33.5C131.167 33.5102 130.583 33.5106 130 33.5C130.144 31.2047 130.475 28.9666 130.875 26.7031C130.932 26.3696 130.989 26.0361 131.046 25.7026C131.515 23.0111 131.515 23.0111 132.267 22.9756ZM132.5 27.75C132.418 28.41 132.335 29.07 132.25 29.75C132.58 29.75 132.91 29.75 133.25 29.75C133.085 29.09 132.92 28.43 132.75 27.75C132.668 27.75 132.585 27.75 132.5 27.75Z" fill="white"/>
<path d="M194.75 6C195.575 6 196.4 6 197.25 6C197.658 8.26264 198.054 10.5273 198.422 12.7969C198.455 12.994 198.487 13.1912 198.521 13.3943C198.689 14.4417 198.786 15.4351 198.75 16.5C198.09 16.5 197.43 16.5 196.75 16.5C196.668 16.005 196.585 15.51 196.5 15C196.088 14.9175 195.675 14.835 195.25 14.75C195.255 14.9923 195.26 15.2347 195.266 15.4844C195.25 16.25 195.25 16.25 195 16.5C194.417 16.5102 193.833 16.5106 193.25 16.5C193.395 14.16 193.741 11.8698 194.141 9.5625C194.2 9.21486 194.259 8.86721 194.318 8.51953C194.461 7.67949 194.605 6.83966 194.75 6ZM195.75 10.5C195.668 11.2425 195.585 11.985 195.5 12.75C195.747 12.75 195.995 12.75 196.25 12.75C196.168 12.0075 196.085 11.265 196 10.5C195.918 10.5 195.835 10.5 195.75 10.5Z" fill="white"/>
<path d="M90.0166 5.97559C90.3255 5.97994 90.3255 5.97994 90.6406 5.98438C90.8472 5.98663 91.0538 5.98889 91.2666 5.99121C91.4261 5.99411 91.5856 5.99701 91.75 6C92.3041 8.81358 92.7578 11.6345 93.1711 14.4719C93.2723 15.1494 93.3842 15.8249 93.5 16.5C92.84 16.5 92.18 16.5 91.5 16.5C91.4175 15.9225 91.335 15.345 91.25 14.75C90.755 14.75 90.26 14.75 89.75 14.75C89.7552 14.9923 89.7603 15.2347 89.7656 15.4844C89.75 16.25 89.75 16.25 89.5 16.5C88.9168 16.5102 88.3332 16.5106 87.75 16.5C87.8936 14.2047 88.2255 11.9666 88.625 9.70312C88.6821 9.36965 88.739 9.03615 88.7959 8.70264C89.2646 6.01113 89.2646 6.01113 90.0166 5.97559ZM90.25 10.75C90.1675 11.41 90.085 12.07 90 12.75C90.2475 12.75 90.495 12.75 90.75 12.75C90.7917 12.0209 90.7917 12.0209 90.75 11.25C90.585 11.085 90.42 10.92 90.25 10.75Z" fill="white"/>
<path d="M143.25 5.99996C144.072 6.43168 144.204 6.61048 144.5 7.49996C144.517 7.93194 144.521 8.36454 144.516 8.79683C144.513 9.02209 144.511 9.24736 144.509 9.47945C144.506 9.65122 144.503 9.82298 144.5 9.99996C143.917 10.0106 143.333 10.0102 142.75 9.99996C142.258 9.5079 142.334 8.66293 142.25 7.99996C142.003 7.99996 141.755 7.99996 141.5 7.99996C141.582 10.145 141.665 12.29 141.75 14.5C141.997 14.5825 142.245 14.665 142.5 14.75C142.497 14.5904 142.494 14.4309 142.491 14.2666C142.489 14.06 142.487 13.8534 142.484 13.6406C142.481 13.4347 142.479 13.2287 142.476 13.0166C142.5 12.5 142.5 12.5 142.75 12.25C143.333 12.2397 143.917 12.2394 144.5 12.25C144.642 15.2619 144.642 15.2619 143.75 16.25C142.992 16.7206 142.491 16.806 141.609 16.7031C141.418 16.6841 141.227 16.6651 141.03 16.6455C140.396 16.4715 140.153 16.2634 139.75 15.75C139.336 14.5077 139.444 13.2155 139.44 11.9145C139.438 11.4097 139.43 10.9051 139.422 10.4003C139.421 10.0807 139.419 9.76097 139.418 9.4316C139.416 9.13918 139.413 8.84676 139.411 8.54549C139.51 7.66158 139.717 7.20511 140.25 6.49996C141.257 5.82878 142.068 5.85887 143.25 5.99996Z" fill="white"/>
<path d="M133.75 6C134.41 6 135.07 6 135.75 6C135.997 7.5675 136.245 9.135 136.5 10.75C136.654 9.46748 136.654 9.46748 136.807 8.18475C136.9 7.42255 137.007 6.73037 137.25 6C137.827 6 138.405 6 139 6C138.86 8.43001 138.595 10.8113 138.234 13.2188C138.188 13.5368 138.141 13.8549 138.093 14.1826C137.98 14.9553 137.866 15.7277 137.75 16.5C137.339 16.5067 136.927 16.5116 136.516 16.5156C136.286 16.5185 136.057 16.5214 135.821 16.5244C135.25 16.5 135.25 16.5 135 16.25C134.889 15.6215 134.791 14.9961 134.702 14.3643C134.675 14.174 134.647 13.9836 134.619 13.7876C134.561 13.3835 134.504 12.9794 134.447 12.5751C134.36 11.9598 134.271 11.3449 134.182 10.73C134.126 10.3373 134.07 9.94452 134.015 9.55176C133.975 9.27745 133.975 9.27745 133.934 8.99761C133.794 7.99022 133.723 7.01686 133.75 6Z" fill="white"/>
<path d="M46.8311 17.1767C47.0881 17.1791 47.3451 17.1815 47.6099 17.184C48.0118 17.1934 48.0118 17.1934 48.4219 17.203C48.6927 17.2064 48.9636 17.2098 49.2427 17.2133C49.9119 17.2221 50.5809 17.2345 51.25 17.2499C51.0312 19.1874 51.0312 19.1874 50.75 19.7499C50.3375 19.7499 49.925 19.7499 49.5 19.7499C49.6702 19.8272 49.8403 19.9046 50.0156 19.9843C50.5 20.4999 50.5 20.4999 50.5459 21.0155C50.4735 21.9519 50.3585 22.5892 49.8281 23.3749C49.0901 23.8536 48.6329 23.9826 47.75 23.9999C47.3291 23.838 46.9083 23.6731 46.5029 23.4755C45.5405 23.0438 44.5131 22.7873 43.5 22.4999C43.5 22.2524 43.5 22.0049 43.5 21.7499C43.9125 21.6674 44.325 21.5849 44.75 21.4999C44.585 21.4174 44.42 21.3349 44.25 21.2499C43.95 20.2806 43.9836 19.7984 44.3125 18.828C44.9967 17.533 45.3405 17.1519 46.8311 17.1767Z" fill="#9BBD46"/>
<path d="M183.25 22.9999C184.072 23.4316 184.203 23.6104 184.5 24.4999C184.51 25.0831 184.511 25.6667 184.5 26.2499C183.84 26.2499 183.18 26.2499 182.5 26.2499C182.417 25.8374 182.335 25.4249 182.25 24.9999C182.167 24.9999 182.085 24.9999 182 24.9999C181.853 25.6754 181.853 25.6754 182 26.4999C182.525 27.1437 183.143 27.6844 183.75 28.2499C184.633 29.2753 184.63 30.2926 184.584 31.5995C184.5 32.2499 184.5 32.2499 184.141 33.0311C183.218 33.7062 182.381 33.8165 181.25 33.7499C180.516 33.4843 180.516 33.4843 180 32.9999C179.572 32.0626 179.44 31.2747 179.5 30.2499C180.16 30.2499 180.82 30.2499 181.5 30.2499C181.582 30.6624 181.665 31.0749 181.75 31.4999C181.997 31.5824 182.245 31.6649 182.5 31.7499C182.253 30.1878 181.856 29.4505 180.664 28.41C179.824 27.578 179.668 26.8025 179.641 25.6405C179.664 24.6696 179.718 24.303 180.234 23.453C181.264 22.8436 182.081 22.7966 183.25 22.9999Z" fill="white"/>
<path d="M14.25 17.5C14.8464 17.644 15.4167 17.8056 16 18C15.8839 18.7663 15.7149 19.3189 15.3594 20.0156C14.7825 21.2757 14.9399 22.6455 15 24C15.2475 24.0825 15.495 24.165 15.75 24.25C15.75 24.4975 15.75 24.745 15.75 25C15.8953 25.0335 16.0407 25.067 16.1904 25.1016C16.7177 25.2414 17.1986 25.4195 17.7031 25.625C18.6435 25.9842 19.4965 26.1681 20.5 26.25C20.5825 26.1675 20.665 26.085 20.75 26C21.1124 25.9076 21.4775 25.8259 21.8438 25.75C22.5019 25.6128 23.1105 25.4632 23.75 25.25C23.915 25.3325 24.08 25.415 24.25 25.5C24.3518 26.0804 24.4361 26.6642 24.5 27.25C23.9114 27.6074 23.6299 27.7717 22.9375 27.6562C22.7931 27.6047 22.6488 27.5531 22.5 27.5C22.3763 27.7475 22.3763 27.7475 22.25 28C20.8124 28.2282 19.455 28.25 18 28.25C18 27.92 18 27.59 18 27.25C17.835 27.4975 17.67 27.745 17.5 28C17.0875 27.9175 16.675 27.835 16.25 27.75C16.1263 27.3787 16.1263 27.3787 16 27C15.8453 27.0516 15.6906 27.1031 15.5312 27.1562C15.3559 27.1872 15.1806 27.2181 15 27.25C14.835 27.085 14.67 26.92 14.5 26.75C14.5 26.5025 14.5 26.255 14.5 26C14.17 25.9175 13.84 25.835 13.5 25.75C13.4691 25.5902 13.4381 25.4303 13.4062 25.2656C13.3547 25.0955 13.3031 24.9253 13.25 24.75C13.085 24.6675 12.92 24.585 12.75 24.5C12.597 23.9034 12.5 23.3661 12.5 22.75C12.4948 22.5592 12.4897 22.3684 12.4844 22.1719C12.5065 21.2199 12.6996 20.4011 13 19.5C13.2475 19.4175 13.495 19.335 13.75 19.25C13.75 18.92 13.75 18.59 13.75 18.25C13.915 18.0025 14.08 17.755 14.25 17.5Z" fill="#56A139"/>
<path d="M157.441 5.97168C157.629 5.97299 157.816 5.9743 158.009 5.97565C158.211 5.97645 158.413 5.97726 158.622 5.97809C158.834 5.98018 159.047 5.98228 159.266 5.98444C159.479 5.98556 159.693 5.98669 159.913 5.98785C160.442 5.99081 160.971 5.99529 161.5 6.00006C161.5 6.66006 161.5 7.32006 161.5 8.00006C160.593 8.00006 159.685 8.00006 158.75 8.00006C158.75 8.74256 158.75 9.48506 158.75 10.2501C159.493 10.2501 160.235 10.2501 161 10.2501C161 10.8276 161 11.4051 161 12.0001C160.258 12.0001 159.515 12.0001 158.75 12.0001C158.75 12.9076 158.75 13.8151 158.75 14.7501C159.658 14.7501 160.565 14.7501 161.5 14.7501C161.5 15.3276 161.5 15.9051 161.5 16.5001C159.933 16.5001 158.365 16.5001 156.75 16.5001C156.744 15.0449 156.739 13.5897 156.736 12.1345C156.735 11.6391 156.733 11.1436 156.731 10.6482C156.728 9.93768 156.727 9.22718 156.726 8.51666C156.724 8.29375 156.723 8.07083 156.722 7.84116C156.722 7.31071 156.734 6.78028 156.75 6.25006C157 6.00006 157 6.00006 157.441 5.97168Z" fill="white"/>
<path d="M168.5 6C169.985 6 171.47 6 173 6C173 6.66 173 7.32 173 8C172.175 8 171.35 8 170.5 8C170.5 8.7425 170.5 9.485 170.5 10.25C171.16 10.25 171.82 10.25 172.5 10.25C172.5 10.8275 172.5 11.405 172.5 12C171.84 12 171.18 12 170.5 12C170.5 12.9075 170.5 13.815 170.5 14.75C171.325 14.75 172.15 14.75 173 14.75C173 15.3275 173 15.905 173 16.5C171.515 16.5 170.03 16.5 168.5 16.5C168.5 13.035 168.5 9.57 168.5 6Z" fill="white"/>
<path d="M117.25 23C117.91 23 118.57 23 119.25 23C119.579 23.9049 119.75 24.5239 119.75 25.5C119.915 25.5 120.08 25.5 120.25 25.5C120.415 24.675 120.58 23.85 120.75 23C121.41 23 122.07 23 122.75 23C122.606 24.2726 122.311 25.3504 121.875 26.5625C121.1 28.8457 121.029 31.1064 121 33.5C120.34 33.5 119.68 33.5 119 33.5C118.999 33.2332 118.999 32.9663 118.998 32.6914C118.939 29.7741 118.343 27.2507 117.384 24.5011C117.25 24 117.25 24 117.25 23Z" fill="white"/>
<path d="M90 23C90.66 23 91.32 23 92 23C92.2475 23.7425 92.495 24.485 92.75 25.25C93.1235 24.503 93.4483 23.7759 93.75 23C94.3275 23 94.905 23 95.5 23C95.366 24.3792 95.0979 25.5322 94.625 26.8438C93.8769 29.0412 93.7794 31.1943 93.75 33.5C93.09 33.5 92.43 33.5 91.75 33.5C91.7494 33.1913 91.7487 32.8825 91.748 32.5645C91.6994 29.799 91.305 27.4907 90.3193 24.9062C90 24 90 24 90 23Z" fill="white"/>
<path d="M188 6C188.66 6 189.32 6 190 6C190.247 6.7425 190.495 7.485 190.75 8.25C191.08 7.5075 191.41 6.765 191.75 6C192.327 6 192.905 6 193.5 6C193.356 7.27262 193.061 8.35042 192.625 9.5625C191.85 11.8457 191.779 14.1064 191.75 16.5C191.09 16.5 190.43 16.5 189.75 16.5C189.749 16.2122 189.749 15.9244 189.748 15.6279C189.693 12.6991 189.16 10.2146 188.134 7.47418C188 7 188 7 188 6Z" fill="white"/>
<path d="M77.25 6C77.91 6 78.57 6 79.25 6C79.5791 6.90494 79.75 7.52392 79.75 8.5C79.915 8.5 80.08 8.5 80.25 8.5C80.2832 8.34048 80.3164 8.18096 80.3506 8.0166C80.3947 7.81003 80.4389 7.60346 80.4844 7.39063C80.5279 7.1847 80.5714 6.97877 80.6162 6.7666C80.75 6.25 80.75 6.25 81 6C81.5832 5.98977 82.1668 5.9894 82.75 6C82.6064 7.27262 82.3111 8.35042 81.875 9.5625C81.1 11.8457 81.0286 14.1064 81 16.5C80.34 16.5 79.68 16.5 79 16.5C78.9994 16.2122 78.9987 15.9244 78.998 15.6279C78.9431 12.6991 78.4102 10.2146 77.3837 7.47418C77.25 7 77.25 7 77.25 6Z" fill="white"/>
<path d="M38 17.25C40.0625 17.25 42.125 17.25 44.25 17.25C44.1675 17.9925 44.085 18.735 44 19.5C43.7525 19.6237 43.7525 19.6237 43.5 19.75C43.5825 19.9975 43.665 20.245 43.75 20.5C43.6675 20.83 43.585 21.16 43.5 21.5C42.2625 21.5 41.025 21.5 39.75 21.5C39.6675 21.665 39.585 21.83 39.5 22C38.675 22 37.85 22 37 22C37.1401 20.2626 37.4824 18.9755 38 17.25Z" fill="#85B741"/>
<path d="M193.25 23C194.982 23 196.715 23 198.5 23C198.5 23.66 198.5 24.32 198.5 25C198.005 25 197.51 25 197 25C197 27.805 197 30.61 197 33.5C196.34 33.5 195.68 33.5 195 33.5C195 30.695 195 27.89 195 25C194.423 25 193.845 25 193.25 25C193.25 24.34 193.25 23.68 193.25 23Z" fill="white"/>
<path d="M162.25 23C163.982 23 165.715 23 167.5 23C167.5 23.66 167.5 24.32 167.5 25C167.005 25 166.51 25 166 25C166 27.805 166 30.61 166 33.5C165.34 33.5 164.68 33.5 164 33.5C164 30.695 164 27.89 164 25C163.423 25 162.845 25 162.25 25C162.25 24.34 162.25 23.68 162.25 23Z" fill="white"/>
<path d="M125.25 23C126.982 23 128.715 23 130.5 23C130.5 23.66 130.5 24.32 130.5 25C130.005 25 129.51 25 129 25C129 27.805 129 30.61 129 33.5C128.34 33.5 127.68 33.5 127 33.5C127 30.695 127 27.89 127 25C126.423 25 125.845 25 125.25 25C125.25 24.34 125.25 23.68 125.25 23Z" fill="white"/>
<path d="M96 6C97.7325 6 99.465 6 101.25 6C101.25 6.66 101.25 7.32 101.25 8C100.755 8 100.26 8 99.75 8C99.75 10.805 99.75 13.61 99.75 16.5C99.09 16.5 98.43 16.5 97.75 16.5C97.75 13.695 97.75 10.89 97.75 8C97.1725 8 96.595 8 96 8C96 7.34 96 6.68 96 6Z" fill="white"/>
<path d="M83 6C84.7325 6 86.465 6 88.25 6C88.25 6.66 88.25 7.32 88.25 8C87.755 8 87.26 8 86.75 8C86.75 10.805 86.75 13.61 86.75 16.5C86.09 16.5 85.43 16.5 84.75 16.5C84.75 13.695 84.75 10.89 84.75 8C84.1725 8 83.595 8 83 8C83 7.34 83 6.68 83 6Z" fill="white"/>
<path d="M204.5 23C206.15 23 207.8 23 209.5 23C209.5 23.66 209.5 24.32 209.5 25C209.005 25 208.51 25 208 25C208 27.805 208 30.61 208 33.5C207.34 33.5 206.68 33.5 206 33.5C206 30.695 206 27.89 206 25C205.505 25 205.01 25 204.5 25C204.5 24.34 204.5 23.68 204.5 23Z" fill="white"/>
<path d="M185 23C186.65 23 188.3 23 190 23C190 23.66 190 24.32 190 25C189.505 25 189.01 25 188.5 25C188.5 27.805 188.5 30.61 188.5 33.5C187.84 33.5 187.18 33.5 186.5 33.5C186.5 30.695 186.5 27.89 186.5 25C186.005 25 185.51 25 185 25C185 24.34 185 23.68 185 23Z" fill="white"/>
<path d="M82.25 23C82.91 23 83.57 23 84.25 23C84.25 25.8875 84.25 28.775 84.25 31.75C85.075 31.75 85.9 31.75 86.75 31.75C86.75 32.3275 86.75 32.905 86.75 33.5C85.265 33.5 83.78 33.5 82.25 33.5C82.25 30.035 82.25 26.57 82.25 23Z" fill="white"/>
<path d="M101.75 23C102.41 23 103.07 23 103.75 23C103.75 25.8875 103.75 28.775 103.75 31.75C104.575 31.75 105.4 31.75 106.25 31.75C106.25 32.3275 106.25 32.905 106.25 33.5C104.765 33.5 103.28 33.5 101.75 33.5C101.75 30.035 101.75 26.57 101.75 23Z" fill="white"/>
<path d="M77.25 23C77.91 23 78.57 23 79.25 23C79.25 25.8875 79.25 28.775 79.25 31.75C80.075 31.75 80.9 31.75 81.75 31.75C81.75 32.3275 81.75 32.905 81.75 33.5C80.265 33.5 78.78 33.5 77.25 33.5C77.25 30.035 77.25 26.57 77.25 23Z" fill="white"/>
<path d="M233.5 6C234.16 6 234.82 6 235.5 6C235.5 8.8875 235.5 11.775 235.5 14.75C236.325 14.75 237.15 14.75 238 14.75C238 15.3275 238 15.905 238 16.5C236.515 16.5 235.03 16.5 233.5 16.5C233.5 13.035 233.5 9.57 233.5 6Z" fill="white"/>
<path d="M43.25 24.0001C43.25 24.0826 43.25 24.1651 43.25 24.2501C43.6657 24.2955 43.6657 24.2955 44.0898 24.3419C44.4557 24.3841 44.8216 24.4264 45.1875 24.4688C45.4611 24.4983 45.4611 24.4983 45.7402 24.5284C46.6772 24.6391 47.4374 24.7658 48.25 25.2501C48.8217 25.5037 49.3955 25.7522 49.9697 26.0001C50.5 26.2501 50.5 26.2501 51.25 26.7501C51.1675 26.9151 51.085 27.0801 51 27.2501C50.7438 27.1808 50.4876 27.1115 50.2236 27.0401C49.8835 26.9486 49.5433 26.8571 49.2031 26.7657C49.0347 26.7201 48.8664 26.6745 48.6929 26.6275C47.203 26.2278 45.878 25.9692 44.3324 25.9527C44.17 25.9506 44.0077 25.9486 43.8404 25.9464C43.4899 25.9421 43.1393 25.9383 42.7887 25.935C42.2339 25.9297 41.6792 25.9229 41.1244 25.9158C39.7474 25.8984 38.3703 25.8835 36.9933 25.8685C35.8277 25.8558 34.6621 25.8421 33.4965 25.8271C32.9499 25.8205 32.4033 25.8152 31.8567 25.8101C31.5221 25.8059 31.1875 25.8017 30.8529 25.7974C30.5608 25.7943 30.2687 25.7912 29.9677 25.7879C29.25 25.7501 29.25 25.7501 28.5 25.5001C28.5 25.3351 28.5 25.1701 28.5 25.0001C28.7073 24.9875 28.9146 24.975 29.1281 24.9621C30.1011 24.9028 31.074 24.8424 32.0469 24.7813C32.2225 24.7703 32.3981 24.7592 32.579 24.7479C35.015 24.5935 37.4447 24.4111 39.8723 24.1525C41.0062 24.0341 42.1097 23.9788 43.25 24.0001Z" fill="#95BB43"/>
<path d="M210.25 23C210.91 23 211.57 23 212.25 23C212.25 26.465 212.25 29.93 212.25 33.5C211.59 33.5 210.93 33.5 210.25 33.5C210.25 30.035 210.25 26.57 210.25 23Z" fill="white"/>
<path d="M170.5 23C171.16 23 171.82 23 172.5 23C172.5 26.465 172.5 29.93 172.5 33.5C171.84 33.5 171.18 33.5 170.5 33.5C170.5 30.035 170.5 26.57 170.5 23Z" fill="white"/>
<path d="M114.5 23C115.16 23 115.82 23 116.5 23C116.5 26.465 116.5 29.93 116.5 33.5C115.84 33.5 115.18 33.5 114.5 33.5C114.5 30.035 114.5 26.57 114.5 23Z" fill="white"/>
<path d="M98.75 23C99.41 23 100.07 23 100.75 23C100.75 26.465 100.75 29.93 100.75 33.5C100.09 33.5 99.43 33.5 98.75 33.5C98.75 30.035 98.75 26.57 98.75 23Z" fill="white"/>
<path d="M87.25 23C87.91 23 88.57 23 89.25 23C89.25 26.465 89.25 29.93 89.25 33.5C88.59 33.5 87.93 33.5 87.25 33.5C87.25 30.035 87.25 26.57 87.25 23Z" fill="white"/>
<path d="M74.25 23C74.91 23 75.57 23 76.25 23C76.25 26.465 76.25 29.93 76.25 33.5C75.59 33.5 74.93 33.5 74.25 33.5C74.25 30.035 74.25 26.57 74.25 23Z" fill="white"/>
<path d="M19 17.25C20.0725 17.25 21.145 17.25 22.25 17.25C22.3452 17.8315 22.4282 18.4151 22.5 19C22.4175 19.0825 22.335 19.165 22.25 19.25C22.4975 19.415 22.745 19.58 23 19.75C23.0781 20.5 23.0781 20.5 23 21.25C22.5 21.75 22.5 21.75 21.8594 21.7969C21.25 21.75 21.25 21.75 21 21.5C20.9381 21.7011 20.8763 21.9022 20.8125 22.1094C20.5 22.75 20.5 22.75 19.9688 22.9531C19.8141 22.9686 19.6594 22.9841 19.5 23C19.5 22.835 19.5 22.67 19.5 22.5C19.3041 22.5516 19.1081 22.6031 18.9062 22.6562C18.6897 22.6872 18.4731 22.7181 18.25 22.75C18.085 22.585 17.92 22.42 17.75 22.25C17.7842 21.7422 17.7842 21.7422 17.9219 21.125C17.9712 20.9039 18.0205 20.6829 18.0713 20.4551C18.3452 19.3743 18.6657 18.3136 19 17.25Z" fill="#449936"/>
<path d="M151.25 6C151.91 6 152.57 6 153.25 6C153.25 9.465 153.25 12.93 153.25 16.5C152.59 16.5 151.93 16.5 151.25 16.5C151.25 13.035 151.25 9.57 151.25 6Z" fill="white"/>
<path d="M101.75 6C102.41 6 103.07 6 103.75 6C103.75 9.465 103.75 12.93 103.75 16.5C103.09 16.5 102.43 16.5 101.75 16.5C101.75 13.035 101.75 9.57 101.75 6Z" fill="white"/>
<path d="M185.5 6C186.16 6 186.82 6 187.5 6C187.5 9.465 187.5 12.93 187.5 16.5C186.84 16.5 186.18 16.5 185.5 16.5C185.5 13.035 185.5 9.57 185.5 6Z" fill="white"/>
<path d="M190.75 23C191.328 23 191.905 23 192.5 23C192.5 26.465 192.5 29.93 192.5 33.5C191.84 33.5 191.18 33.5 190.5 33.5C190.494 32.0448 190.489 30.5896 190.486 29.1345C190.485 28.639 190.483 28.1436 190.481 27.6481C190.478 26.9376 190.477 26.2271 190.476 25.5166C190.474 25.2937 190.473 25.0708 190.472 24.8411C190.472 24.3106 190.484 23.7802 190.5 23.25C190.583 23.1675 190.665 23.085 190.75 23Z" fill="white"/>
<path d="M148.25 23C148.828 23 149.405 23 150 23C150 26.465 150 29.93 150 33.5C149.34 33.5 148.68 33.5 148 33.5C147.994 32.0448 147.989 30.5896 147.986 29.1345C147.985 28.639 147.983 28.1436 147.981 27.6481C147.978 26.9376 147.977 26.2271 147.976 25.5166C147.974 25.2937 147.973 25.0708 147.972 24.8411C147.972 24.3106 147.984 23.7802 148 23.25C148.083 23.1675 148.165 23.085 148.25 23Z" fill="white"/>
<path d="M25 28.0001C25.3804 28.901 25.5 29.5131 25.5 30.5001C25.6528 30.5165 25.8055 30.5329 25.9629 30.5499C26.5 30.7501 26.5 30.7501 26.834 31.2862C26.9197 31.5063 27.0054 31.7264 27.0938 31.9532C27.2281 32.2804 27.2281 32.2804 27.3652 32.6143C27.5 33.2501 27.5 33.2501 27.3271 33.8106C26.7837 34.5406 26.1156 34.5887 25.25 34.7501C24.5156 34.6563 24.5156 34.6563 24 34.5001C23.5843 33.4608 23.4935 32.6523 23.5342 31.5391C23.4818 30.7136 23.1796 30.0043 22.8652 29.2452C22.8272 29.0818 22.7892 28.9184 22.75 28.7501C23.25 28.0001 23.25 28.0001 23.7344 27.8126C24.25 27.7501 24.25 27.7501 25 28.0001Z" fill="white"/>
<path d="M250.5 6C251.077 6 251.655 6 252.25 6C252.25 9.465 252.25 12.93 252.25 16.5C251.673 16.5 251.095 16.5 250.5 16.5C250.5 13.035 250.5 9.57 250.5 6Z" fill="white"/>
<path d="M21.3906 28.4531C22.25 28.5 22.25 28.5 22.5 28.75C22.5588 30.5735 22.5588 30.5735 22.25 31.5C22.3325 31.5825 22.415 31.665 22.5 31.75C22.5182 32.3383 22.5209 32.9271 22.5156 33.5156C22.5134 33.8382 22.5111 34.1608 22.5088 34.4932C22.5059 34.7429 22.503 34.9927 22.5 35.25C21.4699 35.5417 20.5676 35.535 19.5 35.5C19.4175 35.4175 19.335 35.335 19.25 35.25C19.2595 34.7598 19.2889 34.27 19.3281 33.7812C19.3576 33.38 19.3576 33.38 19.3877 32.9707C19.5 32.25 19.5 32.25 20 31.5C20.0417 30.8874 20.0417 30.8874 20 30.2344C19.9688 29.5693 19.9688 29.5693 20 29C20.5 28.5 20.5 28.5 21.3906 28.4531Z" fill="#75AE3F"/>
<path d="M14.25 17.5C14.8464 17.644 15.4167 17.8056 16 18C15.8839 18.7663 15.7149 19.3189 15.3594 20.0156C14.7825 21.2757 14.9399 22.6455 15 24C15.2475 24.0825 15.495 24.165 15.75 24.25C15.6562 24.9298 15.5395 25.2105 15.0469 25.7031C14.5 26 14.5 26 13.9375 25.9219C13.7931 25.8652 13.6488 25.8084 13.5 25.75C13.4691 25.5902 13.4381 25.4303 13.4062 25.2656C13.3547 25.0955 13.3031 24.9253 13.25 24.75C13.085 24.6675 12.92 24.585 12.75 24.5C12.597 23.9034 12.5 23.3661 12.5 22.75C12.4948 22.5592 12.4897 22.3684 12.4844 22.1719C12.5065 21.2199 12.6996 20.4011 13 19.5C13.2475 19.4175 13.495 19.335 13.75 19.25C13.75 18.92 13.75 18.59 13.75 18.25C13.915 18.0025 14.08 17.755 14.25 17.5Z" fill="#349533"/>
<path d="M23.5 12.5C24.2812 12.4531 24.2812 12.4531 25 12.5C25.0825 12.7475 25.165 12.995 25.25 13.25C25.415 13.085 25.58 12.92 25.75 12.75C26.5312 12.7188 26.5312 12.7188 27.25 12.75C27.3325 12.9975 27.415 13.245 27.5 13.5C27.7243 13.4227 27.7243 13.4227 27.9531 13.3438C28.5 13.25 28.5 13.25 29.25 13.75C29.25 13.9975 29.25 14.245 29.25 14.5C28.8672 14.8467 28.8672 14.8467 28.375 15.1719C28.2126 15.2811 28.0502 15.3904 27.8828 15.5029C27.6933 15.6252 27.6933 15.6252 27.5 15.75C27.3247 15.6314 27.1494 15.5128 26.9688 15.3906C26.0748 14.9048 25.2634 14.75 24.25 14.75C23.9819 14.7448 23.7137 14.7397 23.4375 14.7344C22.5931 14.7484 21.8269 14.8386 21 15C21 14.34 21 13.68 21 13C21.8662 12.8762 21.8662 12.8762 22.75 12.75C22.8325 12.915 22.915 13.08 23 13.25C23.165 13.0025 23.33 12.755 23.5 12.5Z" fill="white"/>
<path d="M11.0938 12.125C12.0011 12.2978 12.5459 12.6605 13.25 13.25C13.25 13.58 13.25 13.91 13.25 14.25C13.482 14.2758 13.7141 14.3016 13.9531 14.3281C14.75 14.5 14.75 14.5 15.2344 14.8281C15.5 15.25 15.5 15.25 15.4688 15.75C15.2274 16.3018 14.9516 16.6073 14.5 17C13.6492 16.7353 12.9966 16.4977 12.25 16C12.25 15.835 12.25 15.67 12.25 15.5C11.8555 15.4613 11.8555 15.4613 11.4531 15.4219C10.5314 15.2557 10.0084 15.0286 9.25 14.5C9.33614 13.7248 9.46204 13.3002 9.9375 12.6719C10.5 12.25 10.5 12.25 11.0938 12.125Z" fill="#1C882E"/>
<path d="M14.7344 9.25C15.5395 9.64036 15.8276 10.2306 16.25 11C16.25 11.33 16.25 11.66 16.25 12C16.6614 12.4219 17.0782 12.8385 17.5 13.25C17.7031 13.8281 17.7031 13.8281 17.75 14.25C17.3281 14.6406 17.3281 14.6406 16.75 15C16.0266 14.9647 15.6409 14.8648 15.0781 14.4062C14.75 14 14.75 14 14.25 13.25C14.0489 13.0489 13.8478 12.8478 13.6406 12.6406C13.115 12.115 12.6762 11.6056 12.25 11C13.9539 9.25 13.9539 9.25 14.7344 9.25Z" fill="#1C882D"/>
<path d="M8 15.25C9.42737 15.4818 10.2417 15.667 11.25 16.75C11.5846 16.6719 11.9178 16.5879 12.25 16.5C13.0625 16.8594 13.0625 16.8594 13.75 17.25C13.5625 18.4375 13.5625 18.4375 13 19C12.4131 18.9482 12.4131 18.9482 11.7344 18.7969C11.3974 18.7248 11.3974 18.7248 11.0537 18.6514C10.5 18.5 10.5 18.5 10.25 18.25C9.99219 18.2552 9.73438 18.2603 9.46875 18.2656C8.43794 18.249 7.72097 18.0671 6.75 17.75C6.87575 16.6497 7.27193 16.072 8 15.25Z" fill="#218C2D"/>
<path d="M35.1621 6.27055C36 6.50004 36 6.50004 36.75 7.00004C36.6799 7.87584 36.5313 8.21604 35.9268 8.87309C35.688 9.06967 35.4492 9.26625 35.2031 9.46879C34.9675 9.66924 34.732 9.86969 34.4893 10.0762C33.75 10.5 33.75 10.5 32.9561 10.4707C32.25 10.25 32.25 10.25 31.5 9.75004C31.6319 8.70735 32.1957 8.16364 32.9062 7.42191C33.1157 7.19601 33.3252 6.9701 33.541 6.73734C34.25 6.25004 34.25 6.25004 35.1621 6.27055Z" fill="#4E9E36"/>
<path d="M30.25 28.7499C30.7549 29.1523 30.7549 29.1523 31.2031 29.6874C31.3543 29.8615 31.5054 30.0355 31.6611 30.2148C32 30.7499 32 30.7499 32 31.7499C31.6481 31.9672 31.2934 32.1799 30.9375 32.3906C30.7403 32.5095 30.543 32.6284 30.3398 32.7509C29.75 32.9999 29.75 32.9999 29.2266 32.9814C28.5726 32.6638 28.3275 32.2648 27.9375 31.6562C27.8073 31.4583 27.6771 31.2605 27.543 31.0566C27.25 30.4999 27.25 30.4999 27.25 29.7499C29.1059 28.5855 29.1059 28.5855 30.25 28.7499Z" fill="white"/>
<path d="M30.25 5C30.6744 5.06311 31.0962 5.14411 31.5156 5.23438C31.7454 5.28304 31.9752 5.3317 32.2119 5.38184C32.4783 5.44033 32.4783 5.44033 32.75 5.5C32.715 6.8645 32.1275 7.78356 31.2969 8.81836C30.6026 9.36638 30.2589 9.35689 29.3906 9.26562C29.0079 9.18863 28.6263 9.10374 28.25 9C28.1377 7.8643 28.4374 7.34063 29.1094 6.4375C29.2689 6.21965 29.4284 6.0018 29.5928 5.77734C30 5.25 30 5.25 30.25 5Z" fill="white"/>
<path d="M12.25 23.7499C12.3222 23.9819 12.3944 24.2139 12.4688 24.453C12.7219 25.2744 12.7219 25.2744 13.25 25.9999C13.25 26.3299 13.25 26.6599 13.25 26.9999C12.8389 27.3798 12.8389 27.3798 12.2969 27.703C12.12 27.8129 11.943 27.9228 11.7607 28.036C11.25 28.2499 11.25 28.2499 10.5 27.9999C10.2031 27.3593 10.2031 27.3593 10 26.7499C10.165 26.5849 10.33 26.4199 10.5 26.2499C10.17 26.1674 9.84 26.0849 9.5 25.9999C9.4175 25.4224 9.335 24.8449 9.25 24.2499C11.0714 23.357 11.0714 23.357 12.25 23.7499Z" fill="white"/>
<path d="M27.1562 4.98426C27.5323 4.98764 27.5323 4.98764 27.916 4.99109C28.1087 4.99399 28.3014 4.99689 28.5 4.99988C28.3646 6.32037 28.0758 7.68527 27.25 8.74988C26.4923 9.03705 25.8033 9.07742 25 8.99988C24.835 8.91738 24.67 8.83488 24.5 8.74988C24.6274 7.51801 24.7713 6.40439 25.25 5.24988C25.9111 4.91931 26.4194 4.97569 27.1562 4.98426Z" fill="white"/>
<path d="M16.25 31.75C16.6198 31.7433 16.9896 31.7384 17.3594 31.7344C17.5653 31.7315 17.7712 31.7286 17.9834 31.7256C18.5 31.75 18.5 31.75 18.75 32C18.6579 33.3579 18.4388 34.302 17.75 35.5C17.4355 35.5052 17.1209 35.5103 16.7969 35.5156C16.62 35.5185 16.443 35.5214 16.2607 35.5244C15.75 35.5 15.75 35.5 15 35.25C15.1165 33.8232 15.4844 32.9602 16.25 31.75Z" fill="#69A93E"/>
<path d="M23.75 5.5C23.8035 8.22953 23.8035 8.22953 23.5 9C22.6015 9.53913 21.7815 9.57033 20.75 9.5C20.3156 9.06563 20.4264 8.49738 20.4062 7.90625C20.4121 7.15234 20.4121 7.15234 20.5 6.5C21.0625 5.96875 21.0625 5.96875 21.75 5.75C21.9202 5.69328 22.0903 5.63656 22.2656 5.57812C22.75 5.5 22.75 5.5 23.75 5.5Z" fill="#278D2F"/>
<path d="M14.5 31.0001C14.7475 31.1651 14.995 31.3301 15.25 31.5001C15.1292 32.7887 14.4535 33.7039 13.75 34.7501C12.0938 34.5626 12.0938 34.5626 11.25 34.0001C11.362 32.7678 11.9599 31.9157 12.75 31.0001C13.4286 30.6608 13.7783 30.8065 14.5 31.0001Z" fill="#58A337"/>
<path d="M19.25 7C19.613 8.13425 19.8088 9.04515 19.75 10.25C18.2148 10.9881 18.2148 10.9881 17.4375 11.0312C16.6749 10.541 16.5187 9.83436 16.25 9C16.2188 8.45312 16.2188 8.45312 16.5 8C17.4349 7.29452 18.0601 7 19.25 7Z" fill="#1F8A2F"/>
<path d="M11.1445 29.2949C11.75 29.5 11.75 29.5 12.5 30C12.3782 31.1038 12.0374 31.5761 11.2344 32.3281C11.051 32.5025 10.8676 32.6768 10.6787 32.8565C10.5372 32.9863 10.3958 33.1162 10.25 33.25C9.50702 32.9689 8.9164 32.6943 8.25 32.25C8.374 31.196 8.6419 30.7282 9.4375 30.0313C9.60637 29.8772 9.77523 29.7232 9.94922 29.5645C10.5 29.25 10.5 29.25 11.1445 29.2949Z" fill="#4A9C36"/>
<path d="M9.75 27.4999C10.25 28.2499 10.25 28.2499 10.2227 28.8769C9.94132 29.6641 9.66686 29.8298 8.9375 30.2187C8.74543 30.3263 8.55336 30.434 8.35547 30.5449C7.6237 30.7927 7.22944 30.7345 6.5 30.4999C6.03125 30.0468 6.03125 30.0468 5.75 29.4999C5.77441 29.0097 5.77441 29.0097 6 28.4999C6.59082 28.12 6.59082 28.12 7.32812 27.7968C7.5695 27.6869 7.81088 27.577 8.05957 27.4638C8.77808 27.2412 9.07411 27.1851 9.75 27.4999Z" fill="white"/>
<path d="M8.75 24.75C8.89839 25.4122 8.93552 26.073 9 26.75C8.56927 26.9258 8.13658 27.0967 7.70312 27.2657C7.46239 27.3614 7.22166 27.4571 6.97363 27.5557C6.19766 27.7641 5.7627 27.7217 5 27.5C5 26.84 5 26.18 5 25.5C7.95 24.35 7.95 24.35 8.75 24.75Z" fill="white"/>
<path d="M8.75 21.9999C8.8125 23.4062 8.8125 23.4062 8.25 24.2499C7.74414 24.4326 7.74414 24.4326 7.15625 24.5468C6.96354 24.5865 6.77082 24.6261 6.57227 24.6669C6 24.7499 6 24.7499 5 24.7499C5 23.9249 5 23.0999 5 22.2499C5.43696 22.1588 5.8746 22.0709 6.3125 21.9843C6.67795 21.9104 6.67795 21.9104 7.05078 21.8349C7.71703 21.754 8.12218 21.7862 8.75 21.9999Z" fill="#278E2F"/>
<path d="M6 18.7499C7.30495 18.7049 8.26816 18.7572 9.5 19.2499C9.03125 20.9687 9.03125 20.9687 8.75 21.2499C8.30458 21.3283 7.85578 21.3879 7.40625 21.4374C7.16197 21.4671 6.9177 21.4967 6.66602 21.5273C6 21.4999 6 21.4999 5.25 20.7499C5.4975 20.0899 5.745 19.4299 6 18.7499Z" fill="#1F872C"/>
<path d="M23.5 25.25C23.7475 25.3325 23.995 25.415 24.25 25.5C24.3325 26.0775 24.415 26.655 24.5 27.25C23.9114 27.6074 23.6299 27.7717 22.9375 27.6562C22.7931 27.6047 22.6488 27.5531 22.5 27.5C22.4175 27.665 22.335 27.83 22.25 28C21.5878 28.1484 20.927 28.1855 20.25 28.25C20.4688 26.2812 20.4688 26.2812 20.75 26C21.1177 25.9079 21.488 25.8261 21.8594 25.75C22.4608 25.6264 22.9502 25.5249 23.5 25.25Z" fill="#63A93B"/>
<path d="M30.5 10.25C31.2344 10.2969 31.2344 10.2969 32 10.5C32.2979 11.0127 32.2979 11.0127 32.5 11.5C32.1976 11.8429 31.8891 12.1805 31.5781 12.5156C31.407 12.7042 31.2359 12.8927 31.0596 13.0869C30.5 13.5 30.5 13.5 29.8545 13.4834C29.2294 13.2421 28.9228 13.0118 28.5 12.5C28.7864 12.1718 29.0728 11.8437 29.3594 11.5156C29.5189 11.3329 29.6784 11.1502 29.8428 10.9619C30.0564 10.7197 30.2716 10.4784 30.5 10.25Z" fill="#4EA034"/>
<path d="M27.75 9.25C29.1875 9.46875 29.1875 9.46875 29.75 9.75C29.5947 10.7592 29.1429 11.468 28.5 12.25C27.5864 12.5297 27.158 12.5527 26.25 12.25C26.3642 10.9933 26.9981 10.2128 27.75 9.25Z" fill="white"/>
<path d="M15 22.75C15 23.1625 15 23.575 15 24C15.2475 24.0825 15.495 24.165 15.75 24.25C15.6562 24.9298 15.5395 25.2105 15.0469 25.7031C14.5 26 14.5 26 13.9375 25.9219C13.7931 25.8652 13.6488 25.8084 13.5 25.75C13.4691 25.5902 13.4381 25.4303 13.4062 25.2656C13.3547 25.0955 13.3031 24.9253 13.25 24.75C13.085 24.6675 12.92 24.585 12.75 24.5C12.5938 23.8594 12.5938 23.8594 12.5 23.25C14.1562 22.4688 14.1562 22.4688 15 22.75Z" fill="white"/>
<path d="M24.25 9.25C24.9925 9.25 25.735 9.25 26.5 9.25C26.75 9.75 26.75 9.75 26.5733 10.2822C26.4821 10.483 26.3909 10.6838 26.2969 10.8906C26.2076 11.092 26.1184 11.2935 26.0264 11.501C25.75 12 25.75 12 25.25 12.25C24.7501 12.26 24.2499 12.2609 23.75 12.25C23.3468 11.0645 23.7834 10.3698 24.25 9.25Z" fill="white"/>
<path d="M21.3906 28.4531C22.25 28.5 22.25 28.5 22.5 28.75C22.5597 30.6306 22.5597 30.6306 22.25 31.25C21.7334 31.3535 21.7334 31.3535 21.1094 31.4062C20.7995 31.4343 20.7995 31.4343 20.4834 31.4629C20.2441 31.4813 20.2441 31.4813 20 31.5C19.9865 31.0938 19.9768 30.6876 19.9688 30.2812C19.9629 30.055 19.9571 29.8288 19.9512 29.5957C20.036 28.5608 20.3982 28.5054 21.3906 28.4531Z" fill="#66A63D"/>
<path d="M15.25 28C15.9925 28.1238 15.9925 28.1238 16.75 28.25C16.9131 28.6914 16.9131 28.6914 17 29.25C16.751 29.7305 16.751 29.7305 16.3906 30.1875C16.2724 30.3409 16.1541 30.4943 16.0322 30.6523C15.9391 30.7671 15.846 30.8818 15.75 31C15.1725 30.9175 14.595 30.835 14 30.75C13.9175 30.5025 13.835 30.255 13.75 30C14.0537 29.4893 14.0537 29.4893 14.4844 28.9531C14.6258 28.7743 14.7673 28.5954 14.9131 28.4111C15.0243 28.2755 15.1354 28.1398 15.25 28Z" fill="#55A038"/>
<path d="M23.25 9.75C23.1675 10.575 23.085 11.4 23 12.25C21.3125 12.7812 21.3125 12.7812 20.75 12.5C20.75 11.7575 20.75 11.015 20.75 10.25C22.4062 9.46875 22.4062 9.46875 23.25 9.75Z" fill="#2E9430"/>
<path d="M17.5 28.75C18.16 28.75 18.82 28.75 19.5 28.75C19.4715 29.1148 19.4396 29.4794 19.4063 29.8438C19.3889 30.0468 19.3715 30.2498 19.3535 30.459C19.25 31 19.25 31 18.75 31.5C17.8438 31.5312 17.8438 31.5312 17 31.5C16.7126 30.6118 16.7283 30.3001 17.1094 29.4219C17.2383 29.2002 17.3672 28.9784 17.5 28.75Z" fill="#5FA63B"/>
<path d="M14.0938 27.0469C14.3103 27.114 14.5269 27.181 14.75 27.2501C14.9287 27.6915 14.9287 27.6915 15 28.2501C14.6416 28.7305 14.6416 28.7305 14.1406 29.1876C13.8936 29.4177 13.8936 29.4177 13.6416 29.6524C13.5124 29.7671 13.3831 29.8819 13.25 30.0001C12.6406 29.8282 12.6406 29.8282 12 29.5001C11.7969 28.8438 11.7969 28.8438 11.75 28.2501C13.0423 26.9885 13.0423 26.9885 14.0938 27.0469Z" fill="#4E9D35"/>
<path d="M14.75 14.5001C15.2344 14.8283 15.2344 14.8283 15.5 15.2501C15.4585 15.9144 15.3027 16.1911 14.8594 16.6876C14.6815 16.8423 14.6815 16.8423 14.5 17.0001C13.0625 16.5314 13.0625 16.5314 12.5 16.2501C12.5639 15.6644 12.6482 15.0805 12.75 14.5001C13.4842 14.133 13.9671 14.3084 14.75 14.5001Z" fill="#2A8F34"/>
<path d="M20 10.75C20.0825 11.4925 20.165 12.235 20.25 13C19.3837 13.3712 19.3837 13.3712 18.5 13.75C17.898 12.872 17.6584 12.3184 17.75 11.25C19.1562 10.4688 19.1562 10.4688 20 10.75Z" fill="#29902F"/>
<path d="M122.5 27.5C123.572 27.5 124.645 27.5 125.75 27.5C125.75 28.0775 125.75 28.655 125.75 29.25C124.678 29.25 123.605 29.25 122.5 29.25C122.5 28.6725 122.5 28.095 122.5 27.5Z" fill="white"/>
<path d="M10.5713 19.2256C10.915 19.2299 10.915 19.2299 11.2656 19.2344C11.4954 19.2366 11.7252 19.2389 11.9619 19.2412C12.1395 19.2441 12.3171 19.247 12.5 19.25C12.75 20 12.75 20 12.5469 20.6719C12 21.25 12 21.25 11.3926 21.3301C10.7574 21.3283 10.1328 21.3034 9.5 21.25C9.7532 19.2605 9.7532 19.2605 10.5713 19.2256Z" fill="#29912E"/>
<path d="M16.5312 12.2655C17.1566 12.5782 17.4172 12.8868 17.75 13.4999C17.7188 14.0312 17.7188 14.0312 17.5 14.4999C16.75 14.9999 16.75 14.9999 16.125 14.953C15.4491 14.7333 15.1574 14.5788 14.75 13.9999C14.75 13.6699 14.75 13.3399 14.75 12.9999C15.3537 12.5136 15.7443 12.2424 16.5312 12.2655Z" fill="#288E30"/>
<path d="M12 21.5C12 22.0775 12 22.655 12 23.25C11.0925 23.415 10.185 23.58 9.25 23.75C9 22.5 9 22.5 9.25 21.75C10.1226 21.3809 11.0686 21.4821 12 21.5Z" fill="#309331"/>
<path d="M22.8889 19.5927C23.021 21.238 23.021 21.238 22.7296 21.6481C22.0134 21.8169 22.0134 21.8169 21.2507 21.8984C20.6742 21.4889 20.6742 21.4889 20.4955 20.9011C20.4656 20.2564 20.4656 20.2564 20.6827 19.7601C21.2144 19.2671 21.5957 19.212 22.3124 19.1832C22.5026 19.3183 22.6929 19.4535 22.8889 19.5927Z" fill="url(#paint0_linear_2154_6687)"/>
<path d="M27.125 26.7813C27.8888 27.0486 28.1167 27.294 28.5 28C28.5 28.33 28.5 28.66 28.5 29C28.005 29.165 27.51 29.33 27 29.5C25.8929 28.2143 25.8929 28.2143 25.75 27.25C26.5 26.75 26.5 26.75 27.125 26.7813Z" fill="white"/>
<path d="M16.125 25.0156C16.7743 25.2591 17.2241 25.5519 17.75 25.9999C17.5128 26.1134 17.2756 26.2268 17.0312 26.3437C16.2492 26.7005 16.2492 26.7005 15.75 27.2499C15.2188 27.1562 15.2188 27.1562 14.75 26.9999C14.5625 26.5624 14.5625 26.5624 14.5 25.9999C14.9983 25.2908 15.2377 24.9934 16.125 25.0156Z" fill="#4B9D37"/>
<path d="M28.4375 13.3124C28.6231 13.3743 28.8087 13.4361 29 13.4999C29.0825 13.8299 29.165 14.1599 29.25 14.4999C28.6725 14.9124 28.095 15.3249 27.5 15.7499C27.17 15.5849 26.84 15.4199 26.5 15.2499C26.5973 14.569 26.7668 14.2276 27.1875 13.6718C27.75 13.2499 27.75 13.2499 28.4375 13.3124Z" fill="#499F35"/>
<path d="M23.5 25.25C23.7475 25.3325 23.995 25.415 24.25 25.5C24.3325 26.0775 24.415 26.655 24.5 27.25C23.9114 27.6074 23.6299 27.7717 22.9375 27.6562C22.7931 27.6047 22.6488 27.5531 22.5 27.5C22.4175 27.005 22.335 26.51 22.25 26C22.8281 25.6094 22.8281 25.6094 23.5 25.25Z" fill="white"/>
<path d="M26.5312 12.7188C26.7684 12.7291 27.0056 12.7394 27.25 12.75C27.3325 12.915 27.415 13.08 27.5 13.25C27.0875 13.8275 26.675 14.405 26.25 15C25.8375 14.9175 25.425 14.835 25 14.75C25.2583 12.7697 25.2583 12.7697 26.5312 12.7188Z" fill="white"/>
<path d="M20.5 13.4999C20.5825 14.0774 20.665 14.6549 20.75 15.2499C20.255 15.4149 19.76 15.5799 19.25 15.7499C18.712 14.9429 18.6998 14.6789 18.75 13.7499C19.3657 13.4421 19.8199 13.482 20.5 13.4999Z" fill="#349831"/>
<path d="M18.0156 14.5156C18.5 14.7499 18.5 14.7499 18.8125 15.3906C18.8744 15.5917 18.9362 15.7928 19 15.9999C18.67 16.2474 18.34 16.4949 18 16.7499C17.5156 16.5781 17.5156 16.5781 17 16.2499C16.8125 15.5937 16.8125 15.5937 16.75 14.9999C17.5 14.4999 17.5 14.4999 18.0156 14.5156Z" fill="#30952F"/>
<path d="M22.75 12.7499C22.7969 13.5937 22.7969 13.5937 22.75 14.4999C22 14.9999 22 14.9999 21 14.9999C21 14.3399 21 13.6799 21 12.9999C21.6157 12.6921 22.0699 12.732 22.75 12.7499Z" fill="#379532"/>
<path d="M15.5 16C16.2812 16.0938 16.2812 16.0938 17 16.25C17.1719 16.7031 17.1719 16.7031 17.25 17.25C16.8906 17.6875 16.8906 17.6875 16.5 18C16.005 17.835 15.51 17.67 15 17.5C15 16.5 15 16.5 15.5 16Z" fill="#319032"/>
<path d="M25.5 29.5C25.5 29.83 25.5 30.16 25.5 30.5C24.84 30.665 24.18 30.83 23.5 31C23.4175 30.67 23.335 30.34 23.25 30C23.5439 29.9459 23.5439 29.9459 23.8438 29.8906C24.4502 29.7607 24.887 29.5 25.5 29.5Z" fill="white"/>
<path d="M28.5 25C29.49 25 30.48 25 31.5 25C31.2525 25.0825 31.005 25.165 30.75 25.25C30.75 25.415 30.75 25.58 30.75 25.75C30.0075 25.6675 29.265 25.585 28.5 25.5C28.5 25.335 28.5 25.17 28.5 25Z" fill="#71A736"/>
<path d="M27.5 27C28 27.4375 28 27.4375 28.5 28C28.5 28.33 28.5 28.66 28.5 29C28.0875 29.0825 27.675 29.165 27.25 29.25C27.3325 28.5075 27.415 27.765 27.5 27Z" fill="white"/>
<path d="M24.25 27.75C24.4975 27.8325 24.745 27.915 25 28C25.0825 28.4125 25.165 28.825 25.25 29.25C25.0025 29.3325 24.755 29.415 24.5 29.5C24.335 29.005 24.17 28.51 24 28C24.0825 27.9175 24.165 27.835 24.25 27.75Z" fill="white"/>
<path d="M26.5 27.25C26.7475 27.3325 26.995 27.415 27.25 27.5C27.3325 27.7475 27.415 27.995 27.5 28.25C27.0875 28.415 26.675 28.58 26.25 28.75C26.2393 28.3335 26.2398 27.9165 26.25 27.5C26.3325 27.4175 26.415 27.335 26.5 27.25Z" fill="white"/>
<defs>
<linearGradient id="paint0_linear_2154_6687" x1="21.5729" y1="19.3083" x2="21.4972" y2="21.8567" gradientUnits="userSpaceOnUse">
<stop stop-color="#272727"/>
<stop offset="0.445173"/>
<stop offset="0.47398" stop-color="white"/>
<stop offset="1" stop-color="white"/>
</linearGradient>
</defs>
</svg>
