<svg width="47" height="30" viewBox="0 0 47 30" fill="none" xmlns="http://www.w3.org/2000/svg">
<path d="M43.6247 18.6551C43.7088 18.6946 43.793 18.734 43.8797 18.7747C44.436 19.0466 44.8808 19.3628 45.346 19.7654C44.9108 19.9106 44.6582 19.8656 44.226 19.725C44.107 19.6874 43.9879 19.6499 43.8652 19.6113C43.6754 19.5502 43.6754 19.5503 43.4819 19.4879C38.8543 18.0559 34.0242 18.3758 29.2503 18.7269C27.2997 18.867 25.358 18.9299 23.4021 18.9385C23.134 18.9397 22.866 18.9415 22.5979 18.9439C20.1622 18.963 17.8094 18.7279 15.4402 18.1693C15.2422 18.125 15.2422 18.1251 15.0401 18.08C12.5018 17.4977 12.5018 17.4976 11.585 16.8044C11.9967 16.6743 12.2644 16.6918 12.6827 16.7909C12.7984 16.8173 12.9141 16.8436 13.0333 16.8708C13.2195 16.9143 13.2195 16.9143 13.4095 16.9586C17.9333 17.9572 22.1399 17.6168 26.6807 16.9124C32.445 16.022 38.288 16.1258 43.6247 18.6551Z" fill="#7FB241"/>
<path d="M42.0276 11.853C42.1535 11.8528 42.1535 11.8528 42.2819 11.8526C42.4593 11.8525 42.6367 11.8527 42.8141 11.8533C43.082 11.8539 43.3499 11.8533 43.6178 11.8525C44.499 11.8521 45.3609 11.8737 46.2343 11.9927C46.1646 12.7389 45.9926 13.3876 45.7267 14.0901C45.6542 14.0812 45.5817 14.0723 45.507 14.0631C43.8859 13.8499 43.8859 13.8499 42.2998 14.0901C42.2579 14.1716 42.216 14.253 42.1729 14.3369C42.329 14.3312 42.485 14.3254 42.6458 14.3195C42.8531 14.3149 43.0603 14.3104 43.2676 14.306C43.3701 14.3019 43.4727 14.2978 43.5784 14.2935C44.2744 14.2825 44.6688 14.3748 45.219 14.8304C45.5204 15.4165 45.3878 16.1671 45.211 16.7736C44.8581 17.349 44.4785 17.7489 43.8362 18.0141C43.0764 18.1751 42.4268 17.8865 41.7329 17.6127C41.0444 17.3414 40.3516 17.1312 39.6344 16.9432C39.5334 16.9167 39.4324 16.8902 39.3283 16.8629C39.0921 16.8016 38.8556 16.7412 38.6191 16.681C38.661 16.5182 38.7028 16.3553 38.746 16.1875C39.8769 16.1875 41.0077 16.1875 42.1729 16.1875C42.2148 16.1061 42.2566 16.0247 42.2998 15.9408C42.1251 15.9472 42.1251 15.9472 41.9468 15.9538C40.2692 15.9898 40.2692 15.9898 39.5075 15.5706C39.1423 15.1296 39.1018 14.7766 39.1347 14.2289C39.2558 13.4048 39.5074 12.7569 40.2056 12.2472C40.7923 11.8648 41.3302 11.8536 42.0276 11.853Z" fill="#9CBE46"/>
<path d="M25.5462 11.9927C26.3299 11.9805 27.1135 11.9716 27.8973 11.9656C28.1639 11.9632 28.4304 11.9598 28.6969 11.9555C29.0803 11.9495 29.4637 11.9467 29.8472 11.9445C30.0255 11.9407 30.0255 11.9407 30.2074 11.9368C30.7519 11.9366 31.0483 11.9431 31.5203 12.2271C31.9911 12.725 31.9353 13.1832 31.9265 13.8371C31.8752 14.4016 31.7602 14.639 31.3846 15.0772C30.907 15.3873 30.4196 15.5705 29.8615 15.694C29.9872 15.8976 30.1128 16.1012 30.2423 16.3109C29.9224 16.3527 29.6025 16.3937 29.2825 16.4343C29.193 16.4461 29.1036 16.4578 29.0115 16.47C28.4434 16.5412 27.896 16.5694 27.3231 16.5577C27.2812 16.4762 27.2393 16.3948 27.1962 16.3109C27.1543 16.4331 27.1124 16.5552 27.0693 16.6811C26.7018 16.7434 26.3343 16.8049 25.9666 16.8661C25.863 16.8838 25.7593 16.9014 25.6526 16.9196C25.501 16.9447 25.501 16.9447 25.3464 16.9702C25.254 16.9857 25.1616 17.0012 25.0664 17.0172C24.7585 17.0543 24.4601 17.0567 24.1501 17.0512C24.3284 16.3902 24.5068 15.7293 24.6854 15.0684C24.7461 14.8436 24.8068 14.6187 24.8675 14.3939C24.9546 14.0707 25.0419 13.7477 25.1293 13.4246C25.1699 13.2736 25.1699 13.2736 25.2114 13.1196C25.3141 12.7403 25.4186 12.365 25.5462 11.9927ZM27.8308 13.8434C27.747 14.1691 27.6633 14.4948 27.577 14.8304C27.7804 14.8404 27.9841 14.8476 28.1878 14.8535C28.3011 14.8578 28.4145 14.8621 28.5313 14.8665C28.8514 14.8551 28.8514 14.8551 29.0802 14.6646C29.2646 14.4559 29.2646 14.4559 29.1873 14.1287C29.1441 13.9875 29.1441 13.9875 29.1 13.8434C28.6812 13.8434 28.2623 13.8434 27.8308 13.8434Z" fill="#6FAC3E"/>
<path d="M33.0347 11.9927C35.087 11.9927 37.1393 11.9927 39.2538 11.9927C39.0863 12.6442 38.9188 13.2956 38.7461 13.9668C37.5734 13.9668 36.4006 13.9668 35.1923 13.9668C35.1923 14.0889 35.1923 14.211 35.1923 14.3369C36.2813 14.3369 37.3703 14.3369 38.4923 14.3369C38.3654 15.3239 38.3654 15.3239 38.2385 15.8174C37.0657 15.8174 35.893 15.8174 34.6847 15.8174C34.6847 15.9395 34.6847 16.0617 34.6847 16.1875C33.8051 16.1875 32.9255 16.1875 32.0193 16.1875C32.1621 14.9383 32.1621 14.9383 32.353 14.294C32.3887 14.1715 32.4245 14.0491 32.4613 13.9229C32.5066 13.772 32.5518 13.621 32.5984 13.4655C32.8144 12.7365 32.8144 12.7365 33.0347 11.9927Z" fill="#86B542"/>
<path d="M44.9333 20.3976C45.0354 20.4376 45.1376 20.4776 45.2429 20.5189C45.3364 20.558 45.4299 20.5972 45.5263 20.6376C45.6082 20.6716 45.6901 20.7057 45.7745 20.7408C46.0358 20.9119 46.1156 21.0899 46.2342 21.3691C46.125 21.3398 46.125 21.3398 46.0136 21.3099C45.7759 21.2464 45.5381 21.1835 45.3002 21.1209C45.0573 21.0569 44.8145 20.9926 44.5721 20.9269C44.2777 20.8471 43.9828 20.7688 43.6879 20.6906C43.5976 20.6657 43.5073 20.6409 43.4143 20.6153C41.2828 20.056 39.2252 19.9619 37.0285 19.9802C36.7327 19.9812 36.437 19.982 36.1413 19.9827C35.3685 19.9848 34.5957 19.989 33.8229 19.9938C32.5866 20.0011 31.3503 20.0053 30.114 20.0093C29.6868 20.011 29.2595 20.0137 28.8323 20.0165C24.8569 20.0378 24.8569 20.0378 23.6423 19.7652C23.6423 19.6838 23.6423 19.6024 23.6423 19.5185C23.7147 19.518 23.7871 19.5175 23.8617 19.517C25.9568 19.4924 28.0232 19.3265 30.107 19.1224C35.2116 18.6242 40.092 18.479 44.9333 20.3976Z" fill="#95BC45"/>
<path d="M21.8656 11.9927C22.7871 11.9927 23.7085 11.9927 24.6579 11.9927C24.5685 12.601 24.4667 13.1412 24.3054 13.7287C24.2837 13.8081 24.2619 13.8876 24.2395 13.9695C24.1938 14.1361 24.1478 14.3026 24.1016 14.469C24.0312 14.7225 23.9619 14.9762 23.8927 15.2299C23.8479 15.3927 23.803 15.5554 23.7581 15.7181C23.6975 15.9376 23.6975 15.9376 23.6356 16.1616C23.5294 16.5121 23.4218 16.8439 23.2618 17.1745C22.4371 17.553 21.3584 17.448 20.4695 17.4213C20.5527 16.753 20.7022 16.1231 20.8865 15.4747C20.9145 15.3746 20.9425 15.2745 20.9713 15.1714C21.06 14.8545 21.1495 14.5379 21.239 14.2212C21.2996 14.0052 21.3602 13.7893 21.4207 13.5733C21.5684 13.0462 21.717 12.5195 21.8656 11.9927Z" fill="#5EA53A"/>
<path d="M18.3117 11.9927C19.1913 11.9927 20.0708 11.9927 20.9771 11.9927C20.8832 12.6315 20.7642 13.2266 20.5923 13.8453C20.555 13.9818 20.555 13.9818 20.517 14.1211C20.4381 14.4091 20.3585 14.6968 20.279 14.9846C20.2256 15.1796 20.1722 15.3747 20.1189 15.5697C20.0678 15.7557 20.0168 15.9418 19.9657 16.1278C19.9417 16.2149 19.9178 16.302 19.8931 16.3918C19.7973 16.7385 19.6977 17.0807 19.5809 17.4213C19.1764 17.4285 18.7718 17.4329 18.3672 17.4367C18.1968 17.4398 18.1968 17.4398 18.0229 17.443C17.347 17.4478 16.7933 17.391 16.1541 17.1745C16.1122 16.8488 16.0703 16.5231 16.0271 16.1875C16.1398 16.194 16.1398 16.194 16.2547 16.2005C16.8802 16.2214 17.2984 16.2195 17.804 15.8174C18.0682 15.4322 18.0926 15.3322 18.0896 14.8921C18.0903 14.7967 18.0909 14.7012 18.0916 14.6029C18.074 14.3005 18.074 14.3005 17.804 13.9668C17.8258 13.6868 17.8258 13.6868 17.8992 13.373C17.9221 13.2704 17.945 13.1678 17.9686 13.0622C18.0665 12.7011 18.1902 12.347 18.3117 11.9927Z" fill="#52A038"/>
<path d="M13.9965 11.9927C15.0017 11.9927 16.0069 11.9927 17.0426 11.9927C17.1263 12.4813 17.2101 12.9699 17.2964 13.4733C16.8192 13.5636 16.8192 13.5636 16.342 13.654C16.0127 13.7172 16.0127 13.7172 15.6464 13.8434C15.4134 14.6773 15.4134 14.6773 15.5275 15.5167C15.6933 16.1078 15.5044 16.5009 15.2657 17.0512C14.9826 17.0162 14.6997 16.98 14.4169 16.9432C14.2593 16.9232 14.1018 16.9031 13.9395 16.8825C13.5424 16.8137 13.2195 16.7193 12.8542 16.5577C12.9299 15.5996 13.1612 14.7137 13.4253 13.7894C13.4864 13.5705 13.4864 13.5705 13.5488 13.3472C13.8497 12.278 13.8497 12.278 13.9965 11.9927Z" fill="#449A35"/>
<path d="M29.8168 1.11426C30.2393 1.25787 30.6088 1.4184 30.9958 1.63669C31.1173 1.70428 31.2389 1.77187 31.3641 1.84151C31.4546 1.89352 31.5451 1.94552 31.6383 1.9991C31.674 2.27381 31.674 2.27381 31.6383 2.61599C31.3964 2.88877 31.3964 2.88877 31.0672 3.15576C30.9512 3.2515 30.8352 3.34725 30.7156 3.44589C30.6013 3.53845 30.4869 3.63101 30.3691 3.72638C30.1916 3.88023 30.0144 4.03441 29.8376 4.18904C29.3941 4.56105 28.9678 4.91195 28.4653 5.20685C28.0037 5.16325 27.6352 5.01585 27.2278 4.80595C27.129 4.75695 27.0302 4.70795 26.9283 4.65745C26.6187 4.41121 26.6007 4.22832 26.5615 3.84975C26.64 3.81922 26.7185 3.78868 26.7994 3.75722C27.1249 3.57112 27.157 3.43254 27.323 3.10949C27.6269 2.74804 27.9638 2.41827 28.2987 2.08393C28.387 1.99097 28.4752 1.89801 28.5662 1.80223C29.2301 1.14113 29.2301 1.14113 29.8168 1.11426Z" fill="#4D9E37"/>
<path d="M25.0386 23.0967C25.3341 23.3295 25.5769 23.5952 25.824 23.8755C25.89 23.9473 25.956 24.0191 26.024 24.0931C26.2065 24.2931 26.3844 24.4963 26.5617 24.7006C26.6423 24.7889 26.723 24.8771 26.8061 24.9681C26.9424 25.1941 26.9424 25.1941 26.9161 25.4348C26.7251 25.9148 26.2168 26.0957 25.7764 26.343C25.6804 26.4007 25.5844 26.4583 25.4856 26.5177C25.0528 26.7648 24.7507 26.9163 24.2444 26.944C23.7721 26.7459 23.5637 26.4378 23.3014 26.0269C23.2296 25.9207 23.2296 25.9207 23.1564 25.8124C23.0193 25.6082 22.8866 25.4012 22.754 25.1941C22.6773 25.0879 22.6006 24.9816 22.5215 24.8722C22.3733 24.5772 22.3733 24.5772 22.3599 24.264C22.5667 23.8164 22.9228 23.6461 23.349 23.4206C23.4657 23.3526 23.4657 23.3526 23.5847 23.2832C24.1191 22.9913 24.4598 22.8814 25.0386 23.0967Z" fill="#C0C0C0"/>
<path d="M21.1041 24.824C21.5151 25.2384 21.6928 25.7674 21.8973 26.2968C21.933 26.3836 21.9686 26.4703 22.0054 26.5597C22.1946 27.0454 22.3245 27.401 22.1194 27.9084C21.4063 28.3706 20.1888 28.8121 19.3272 28.6487C18.6758 27.7658 18.5025 26.6286 18.5656 25.5643C20.242 24.7123 20.242 24.7123 21.1041 24.824Z" fill="#C7C7C7"/>
<path d="M26.5617 0.148305C26.9489 0.256175 27.327 0.380685 27.704 0.518435C27.748 1.03518 27.6618 1.26316 27.3287 1.664C27.2503 1.75998 27.1718 1.85596 27.091 1.95485C27.0079 2.05338 26.9249 2.1519 26.8394 2.25342C26.7578 2.35242 26.6762 2.45143 26.5922 2.55343C26.44 2.73818 26.2872 2.92242 26.1335 3.106C25.9923 3.2771 25.8566 3.45255 25.7258 3.63131C25.5464 3.8496 25.5464 3.8496 25.295 3.90647C24.6255 3.88113 24.0328 3.785 23.3887 3.60285C23.2339 3.17092 23.2514 3.00885 23.4447 2.58258C23.5324 2.43568 23.6222 2.29 23.7139 2.14546C23.7605 2.06948 23.8071 1.9935 23.8551 1.91521C25.1252 -0.127045 25.1252 -0.127045 26.5617 0.148305Z" fill="#BDBDBD"/>
<path d="M21.3158 0.000935694C21.4291 0.00173569 21.5424 0.00252563 21.6591 0.00334563C21.836 0.00644563 21.836 0.00644556 22.0164 0.00961556C22.1357 0.0107256 22.2551 0.0118358 22.378 0.0129858C22.6726 0.0158958 22.9672 0.0199555 23.2618 0.0250355C23.1956 0.781926 23.0169 1.40101 22.7144 2.09931C22.6769 2.19179 22.6393 2.28427 22.6006 2.37956C22.2277 3.25582 22.2277 3.25582 21.7387 3.47958C21.3183 3.55139 21.3183 3.55139 20.8503 3.57983C20.6958 3.5908 20.5414 3.60177 20.3822 3.61308C19.9811 3.60342 19.7855 3.56475 19.4541 3.35621C19.6042 2.28953 19.8801 1.25237 20.3426 0.271785C20.7492 0.00824541 20.8498 -0.00483431 21.3158 0.000935694Z" fill="#CACACA"/>
<path d="M17.2963 25.9342C17.4586 26.2497 17.4376 26.473 17.4356 26.8258C17.4352 26.953 17.4348 27.0802 17.4344 27.2113C17.4333 27.3446 17.4323 27.4779 17.4312 27.6152C17.4306 27.7494 17.43 27.8836 17.4294 28.0219C17.428 28.3542 17.4259 28.6864 17.4233 29.0186C16.7427 29.3485 16.2274 29.4412 15.4718 29.4196C15.3801 29.4189 15.2883 29.4183 15.1937 29.4176C14.5238 29.4079 14.5238 29.4079 14.3771 29.2653C14.2567 26.9637 14.2567 26.9637 14.7891 26.2012C15.4834 25.7532 16.5111 25.7351 17.2963 25.9342Z" fill="#74AE3F"/>
<path d="M18.5655 0.518634C18.5725 0.847674 18.5775 1.17657 18.5814 1.50564C18.5835 1.59741 18.5857 1.68917 18.5878 1.78372C18.5936 2.43164 18.5192 2.98502 18.3117 3.60305C17.9706 3.83438 17.9706 3.83438 17.5502 3.97317C17.4062 4.02152 17.2622 4.06987 17.1139 4.11968C16.6514 4.22222 16.2459 4.23868 15.7733 4.21993C15.5346 3.75584 15.6174 3.19612 15.6146 2.68543C15.612 2.56607 15.6094 2.44671 15.6067 2.32374C15.606 2.20915 15.6054 2.09456 15.6047 1.9765C15.6035 1.87146 15.6023 1.76643 15.6011 1.65821C15.6566 1.31965 15.7503 1.21827 16.0271 1.01214C16.394 0.868044 16.394 0.868044 16.8204 0.742254C16.9598 0.699794 17.0992 0.657324 17.2428 0.613574C17.6973 0.514204 18.1012 0.502024 18.5655 0.518634Z" fill="#278E2F"/>
<path d="M11.5744 25.9058C13.2371 25.9364 13.2371 25.9364 13.6156 26.3044C13.5671 26.962 13.3835 27.5691 13.1793 28.1936C13.1517 28.2818 13.1242 28.37 13.0958 28.4608C12.8858 29.1112 12.8858 29.1112 12.6002 29.3888C12.285 29.4135 11.9871 29.4231 11.6721 29.4196C11.5051 29.4203 11.338 29.4209 11.1659 29.4216C10.7342 29.3914 10.4471 29.3246 10.0618 29.142C10.1252 28.3907 10.3017 27.8041 10.625 27.1218C10.6647 27.0341 10.7044 26.9465 10.7452 26.8562C11.1617 25.954 11.1617 25.954 11.5744 25.9058Z" fill="#67A83C"/>
<path d="M8.15795 25.0705C8.94265 25.0578 9.51625 25.3136 10.1887 25.6874C10.1359 26.4211 9.79965 26.9091 9.39545 27.5072C9.30435 27.6491 9.30435 27.6491 9.21145 27.7939C8.95405 28.1798 8.74755 28.4717 8.35185 28.7294C7.90915 28.7879 7.65035 28.672 7.24575 28.4942C7.11305 28.4376 6.98035 28.3809 6.84365 28.3226C6.50795 28.1549 6.50795 28.1549 6.25415 27.9081C6.32365 27.3696 6.66975 26.9839 6.99185 26.5587C7.04755 26.4837 7.10325 26.4087 7.16065 26.3315C7.27055 26.1843 7.38145 26.0379 7.49325 25.8922C7.63675 25.705 7.77635 25.5151 7.91555 25.3249C7.99555 25.241 8.07555 25.157 8.15795 25.0705Z" fill="#58A339"/>
<path d="M13.9964 1.99922C14.2683 2.39568 14.348 2.68641 14.4565 3.14816C14.5061 3.35356 14.5061 3.35357 14.5566 3.56312C14.628 3.95661 14.6446 4.31503 14.631 4.71346C14.3457 4.85546 14.0601 4.99677 13.7743 5.13767C13.6938 5.17777 13.6133 5.21797 13.5304 5.25927C12.6646 5.68447 12.6646 5.68446 12.3464 5.70056C11.9036 5.42556 11.7872 4.94336 11.6166 4.48216C11.5597 4.33236 11.5028 4.18255 11.4441 4.02819C11.331 3.60283 11.294 3.39214 11.458 2.98623C11.6657 2.80406 11.6657 2.80406 11.926 2.66237C12.0178 2.61195 12.1096 2.56155 12.2041 2.5096C12.293 2.46332 12.3818 2.41703 12.4733 2.36935C12.6042 2.29555 12.7351 2.22176 12.87 2.14573C13.281 1.98068 13.5561 1.94086 13.9964 1.99922Z" fill="#208C2E"/>
<path d="M6.05597 23.5669C6.62697 23.7519 6.97467 24.046 7.39657 24.4536C7.33097 24.959 7.20027 25.2002 6.83087 25.5582C6.74187 25.6447 6.65297 25.7313 6.56137 25.8204C6.46787 25.9088 6.37437 25.9973 6.27807 26.0884C6.18597 26.1787 6.09397 26.269 5.99917 26.3621C5.20867 27.1214 5.20867 27.1214 4.73117 27.1679C4.37617 26.9857 4.37617 26.9857 4.00139 26.7207C3.87639 26.6351 3.75139 26.5495 3.62261 26.4614C3.33505 26.1809 3.33505 26.1809 3.24878 25.8811C3.3747 25.4182 3.68562 25.1835 4.04898 24.8854C4.11524 24.8287 4.1815 24.7719 4.24977 24.7134C4.38357 24.5994 4.51837 24.4866 4.65417 24.375C4.79217 24.2612 4.92857 24.1454 5.06327 24.0279C5.57127 23.5925 5.57127 23.5925 6.05597 23.5669Z" fill="#499D36"/>
<path d="M4.35046 21.7392C4.58346 21.9455 4.58346 21.9455 4.77876 22.2018C4.84526 22.2852 4.91166 22.3685 4.98006 22.4544C5.11196 22.7262 5.11196 22.7262 5.10896 23.0404C4.94186 23.4486 4.73716 23.5535 4.35046 23.7749C4.22446 23.8474 4.09849 23.9199 3.96869 23.9947C3.84337 24.0646 3.71804 24.1346 3.58892 24.2067C3.48192 24.2716 3.37492 24.3365 3.26468 24.4033C3.16749 24.4606 3.07031 24.5179 2.97018 24.5768C2.88412 24.6277 2.79806 24.6786 2.7094 24.7311C2.35756 24.855 2.1642 24.8156 1.81203 24.7002C1.3565 24.3446 1.08315 23.9613 0.939444 23.4125C0.934214 23.3081 0.928974 23.2038 0.923584 23.0963C1.54741 22.6961 2.1885 22.3373 2.85119 22.0014C2.92656 21.9616 3.00192 21.9218 3.07956 21.8808C3.55048 21.6471 3.85095 21.5416 4.35046 21.7392Z" fill="#C6C6C6"/>
<path d="M9.93488 4.21986C10.1815 4.49364 10.3951 4.75684 10.6092 5.05264C10.6685 5.12934 10.7278 5.20594 10.7889 5.28494C11.039 5.62534 11.1973 5.85094 11.2275 6.27344C11.0096 6.69474 10.6762 6.91664 10.284 7.17324C10.2112 7.22544 10.1384 7.27764 10.0634 7.33154C9.72138 7.56054 9.51658 7.68814 9.09808 7.62384C8.71398 7.37714 8.43338 7.09784 8.12628 6.76454C8.01568 6.64654 7.90508 6.52844 7.79118 6.40694C7.55258 6.10714 7.44318 5.94564 7.39648 5.57704C9.19608 3.96257 9.19608 3.96257 9.93488 4.21986Z" fill="#1D8A2E"/>
<path d="M1.17729 13.35C3.7695 13.3144 3.7695 13.3144 4.35036 13.5967C4.29206 14.2537 4.22126 14.7588 3.84264 15.324C3.26457 15.7853 2.69821 15.7458 1.98641 15.7327C1.87745 15.7331 1.76849 15.7335 1.65622 15.7339C0.847462 15.7271 0.847461 15.7271 0.415771 15.4474C0.542081 14.6444 0.719282 14.0326 1.17729 13.35Z" fill="#218C2E"/>
<path d="M6.15949 6.94804C6.69879 7.07214 7.01099 7.25854 7.45199 7.58184C7.65199 7.72394 7.65199 7.72394 7.85599 7.86904C8.15799 8.16784 8.15799 8.16784 8.24029 8.47244C8.12329 8.91644 7.88569 9.11794 7.54719 9.43244C7.43379 9.53994 7.32039 9.64744 7.20359 9.75824C6.88879 10.0184 6.88879 10.0184 6.50799 10.1418C6.14539 10.0131 5.81869 9.81214 5.48469 9.62524C5.34519 9.55114 5.34519 9.55114 5.20279 9.47554C5.11379 9.42654 5.02469 9.37744 4.93289 9.32694C4.85159 9.28214 4.77019 9.23744 4.68649 9.19134C4.43769 9.00124 4.34459 8.81904 4.22339 8.53794C4.43909 8.29454 4.65589 8.05244 4.87539 7.81214C5.06469 7.60304 5.24799 7.38884 5.42919 7.17314C5.74649 6.93404 5.74649 6.93404 6.15949 6.94804Z" fill="#1D8A2D"/>
<path d="M3.71575 19.2718C3.86449 19.626 3.85634 19.9721 3.8506 20.3513C3.84945 20.4499 3.84831 20.5485 3.84713 20.6501C3.84566 20.7245 3.84418 20.799 3.84267 20.8756C3.23163 21.1373 2.61921 21.3704 1.98644 21.5774C1.90497 21.6051 1.82349 21.6329 1.73954 21.6615C1.2877 21.8095 0.893181 21.9205 0.415801 21.8627C0.00944057 21.4677 0.0262805 21.0197 0.0112305 20.4824C0.0350305 20.012 0.0350308 20.012 0.288871 19.7653C0.760951 19.602 1.2481 19.4877 1.7326 19.3643C1.93335 19.3099 1.93335 19.3099 2.13816 19.2544C2.26708 19.2213 2.396 19.1882 2.52883 19.1542C2.64686 19.1234 2.76488 19.0927 2.88648 19.061C3.2576 19.0195 3.41104 19.0677 3.71575 19.2718Z" fill="#B1B1B1"/>
<path d="M3.08117 10.0186C4.0669 10.037 4.96287 10.422 5.87347 10.7589C5.93047 11.3193 5.77827 11.5778 5.43717 12.0235C5.35617 12.131 5.27517 12.2385 5.19177 12.3493C4.98497 12.6095 4.98497 12.6095 4.85807 12.7329C4.17974 12.7723 3.61429 12.6727 2.97012 12.4939C2.88438 12.4713 2.79865 12.4488 2.71032 12.4257C2.08468 12.2577 2.08468 12.2577 1.93888 12.116C1.8694 11.5631 2.03243 11.2982 2.36724 10.8591C2.44675 10.753 2.52627 10.647 2.60819 10.5377C2.82733 10.2654 2.82733 10.2654 3.08117 10.0186Z" fill="#1E8B2D"/>
<path d="M3.58882 16.4343C3.59915 16.6707 3.60651 16.9072 3.61262 17.1437C3.61925 17.3412 3.61925 17.3412 3.62601 17.5428C3.58245 17.9786 3.54979 18.1227 3.20806 18.4083C2.84534 18.5401 2.47686 18.6136 2.0975 18.6859C1.9977 18.7072 1.8979 18.7285 1.79507 18.7505C1.19667 18.8723 0.645903 18.9241 0.0350332 18.9018C0.0247832 18.5779 0.0172228 18.2543 0.0112328 17.9302C0.00804278 17.8382 0.00485302 17.7461 0.00157302 17.6512C-0.00214698 17.3837 -0.00214684 17.3837 0.0350332 16.9278C0.523103 16.6115 0.955213 16.5635 1.52635 16.4729C1.62616 16.4553 1.72596 16.4377 1.82878 16.4196C2.45507 16.318 2.9656 16.3136 3.58882 16.4343Z" fill="#288E30"/>
<path d="M25.911 4.99854C26.4622 5.11644 26.8669 5.38523 27.323 5.70023C27.2208 6.41853 26.5705 6.83364 26.0538 7.30414C25.9818 7.37314 25.9098 7.44224 25.8356 7.51334C25.5328 7.78734 25.3207 7.91583 24.9115 7.99043C24.433 7.90323 24.1487 7.71924 23.7692 7.42754C23.7273 7.34614 23.6854 7.26463 23.6423 7.18073C24.0182 6.72433 24.399 6.27234 24.7846 5.82364C24.8567 5.73954 24.9289 5.65533 25.0032 5.56863C25.2893 5.26083 25.4924 5.09584 25.911 4.99854Z" fill="#4C9E37"/>
<path d="M23.9266 4.30287C24.1727 4.39293 24.4156 4.49097 24.6579 4.59007C24.5384 5.17107 24.2181 5.56067 23.8646 6.03207C23.8039 6.11707 23.7432 6.20207 23.6807 6.28967C23.2268 6.89767 23.2268 6.89767 22.8101 7.06347C22.4659 7.05697 22.2116 6.99717 21.8894 6.88027C21.739 6.82707 21.739 6.82707 21.5855 6.77277C21.5104 6.74467 21.4353 6.71647 21.3579 6.68747C21.4313 6.11287 21.6883 5.66757 21.9846 5.17617C22.0303 5.09757 22.0761 5.01897 22.1232 4.93807C22.576 4.17604 23.0263 4.04016 23.9266 4.30287Z" fill="#B3B3B3"/>
<path d="M17.1694 22.8497C17.361 23.2221 17.3249 23.6059 17.3281 24.014C17.3307 24.0981 17.3333 24.1822 17.336 24.2688C17.341 24.8867 17.341 24.8867 17.1203 25.1852C16.5181 25.5735 15.7044 25.4524 15.0117 25.4406C15.0014 25.1449 14.9939 24.8496 14.9879 24.5538C14.9832 24.4292 14.9832 24.4292 14.9783 24.302C14.97 23.7523 15.0299 23.4013 15.3925 22.9731C15.9489 22.6894 16.5736 22.6802 17.1694 22.8497Z" fill="#69A93C"/>
<path d="M20.4933 4.08111C20.6548 4.08333 20.8163 4.08556 20.9827 4.08785C21.1684 4.09215 21.1684 4.09215 21.358 4.09653C21.5319 4.60374 21.3368 4.92154 21.1359 5.39194C21.1022 5.47544 21.0685 5.55894 21.0337 5.64504C20.6839 6.48194 20.6839 6.48194 20.3426 6.68744C19.9723 6.72354 19.9723 6.72354 19.5573 6.71054C19.4194 6.70724 19.2814 6.70394 19.1393 6.70044C18.981 6.69404 18.981 6.69404 18.8195 6.68744C18.6753 6.49944 18.6753 6.49944 18.5657 6.19394C18.641 5.86154 18.726 5.57074 18.8433 5.25314C18.8716 5.16924 18.8998 5.08524 18.9289 4.99874C19.2384 4.12634 19.5899 4.06499 20.4933 4.08111Z" fill="#D0D0D0"/>
<path d="M13.711 22.8885C13.8098 22.9007 13.9086 22.913 14.0104 22.9256C14.2504 22.9733 14.2504 22.9733 14.3773 23.0967C14.3856 23.9074 14.2536 24.7792 13.7427 25.4408C13.1387 25.6402 12.5845 25.5705 11.9658 25.4408C11.882 25.3594 11.7983 25.278 11.7119 25.1941C11.7643 24.708 11.9415 24.2667 12.1244 23.8138C12.1748 23.6848 12.2252 23.5558 12.2771 23.423C12.4735 23.0967 12.4735 23.0967 12.7749 22.9261C13.1188 22.8475 13.3626 22.8413 13.711 22.8885Z" fill="#60A53A"/>
<path d="M18.0579 4.46659C18.1105 6.03744 18.1105 6.03744 17.8041 6.68734C17.2859 7.03884 16.7789 7.13414 16.1541 7.18084C16.0703 7.14014 15.9866 7.09944 15.9003 7.05754C15.8831 6.71544 15.8706 6.37424 15.8606 6.03194C15.8553 5.93504 15.85 5.83804 15.8445 5.73824C15.8385 5.46634 15.8412 5.22605 15.9003 4.96015C16.2474 4.66745 16.6079 4.54184 17.0505 4.43575C17.1331 4.41476 17.2157 4.39376 17.3009 4.37213C17.5845 4.33924 17.787 4.38447 18.0579 4.46659Z" fill="#309231"/>
<path d="M10.6966 22.2715C11.1299 22.3681 11.4622 22.4966 11.8389 22.7265C11.9658 23.0966 11.9658 23.0966 11.7506 23.5333C11.6493 23.7021 11.5464 23.8701 11.4423 24.0374C11.3925 24.1229 11.3428 24.2085 11.2916 24.2967C10.9156 24.9081 10.9156 24.9081 10.5097 25.0808C10.1279 25.0687 9.86388 24.981 9.51468 24.8316C9.40258 24.7847 9.29048 24.7378 9.17498 24.6894C9.09078 24.6524 9.00648 24.6153 8.91968 24.5771C9.03038 24.0786 9.24838 23.7613 9.55428 23.3434C9.64138 23.2112 9.64138 23.2112 9.73028 23.0764C10.2131 22.3793 10.2131 22.3793 10.6966 22.2715Z" fill="#54A138"/>
<path d="M19.8348 22.3564C20.0445 22.741 20.0445 22.741 20.2076 23.2046C20.2637 23.3569 20.3198 23.5093 20.3776 23.6663C20.4694 24.0836 20.4694 24.0836 20.4074 24.3718C20.1239 24.6752 19.8456 24.7088 19.4381 24.7931C19.2295 24.8379 19.2295 24.8379 19.0167 24.8837C18.9097 24.9046 18.8027 24.9256 18.6925 24.9473C18.2965 24.5203 18.2091 24.1169 18.0975 23.5593C18.0656 23.4034 18.0337 23.2476 18.0008 23.087C17.9778 22.968 17.9547 22.8491 17.9309 22.7265C18.5546 22.2532 19.0941 21.9309 19.8348 22.3564Z" fill="#C5C5C5"/>
<path d="M14.5442 5.35046C14.7579 5.45366 14.7579 5.45366 14.9086 5.75436C15.0389 6.30966 15.0949 6.86036 15.1387 7.42766C14.5931 7.81566 14.1461 8.01456 13.4887 8.16796C13.1936 7.90836 13.0327 7.68956 12.8938 7.32746C12.8619 7.24776 12.83 7.16806 12.7971 7.08596C12.7097 6.74206 12.7163 6.42336 12.7272 6.07056C12.9695 5.94276 13.213 5.81726 13.457 5.69266C13.6602 5.58746 13.6602 5.58746 13.8675 5.48016C14.2502 5.33026 14.2502 5.33026 14.5442 5.35046Z" fill="#2B9031"/>
<path d="M8.83236 21.2536C9.29936 21.4119 9.56936 21.6637 9.93496 21.9861C9.64686 22.4993 9.29036 22.9124 8.87206 23.3278C8.81246 23.3908 8.75296 23.4538 8.69156 23.5187C8.51206 23.697 8.51206 23.697 8.15806 23.9602C7.52336 23.9556 7.21016 23.615 6.76196 23.2199C6.81606 22.6258 7.04946 22.4048 7.50766 22.0247C7.61986 21.9301 7.73206 21.8354 7.84776 21.7379C8.47246 21.2441 8.47246 21.2441 8.83236 21.2536Z" fill="#4A9C36"/>
<path d="M7.50327 19.771C7.91867 19.9492 8.06457 20.2557 8.28507 20.6289C8.09277 21.1594 7.68337 21.401 7.22217 21.7007C7.14887 21.7504 7.07557 21.8001 7.00007 21.8513C6.63477 22.0933 6.31587 22.2937 5.87357 22.3561C5.74207 22.2035 5.61297 22.0489 5.48487 21.8935C5.41277 21.8076 5.34057 21.7217 5.26627 21.6332C5.11207 21.3691 5.11207 21.3691 5.14047 21.1243C5.31397 20.6864 5.75967 20.5089 6.15917 20.2819C6.28657 20.2042 6.28657 20.2042 6.41647 20.125C6.80377 19.9005 7.04577 19.7637 7.50327 19.771Z" fill="#C7C7C7"/>
<path d="M7.01587 18.0381C7.26717 18.457 7.27867 18.7968 7.26967 19.2719C6.94547 19.4411 6.62027 19.6077 6.29397 19.7731C6.20247 19.8212 6.11087 19.8693 6.01657 19.9189C5.60937 20.1231 5.33437 20.2604 4.87057 20.2531C4.60437 20.1355 4.60437 20.1355 4.36637 19.7268C4.18466 19.1479 4.18466 19.1479 4.35047 18.7783C4.58157 18.6352 4.58157 18.6352 4.87407 18.5239C4.97707 18.4838 5.08017 18.4437 5.18637 18.4024C5.28747 18.3636 5.38857 18.3248 5.49277 18.2848C5.65147 18.2104 5.81017 18.1359 5.96877 18.0612C6.40257 17.9071 6.59537 17.8513 7.01587 18.0381Z" fill="#C8C8C8"/>
<path d="M11.4442 6.95093C11.8231 7.10163 11.9584 7.32563 12.1879 7.65113C12.3047 7.81263 12.3047 7.81263 12.4239 7.97743C12.6004 8.29123 12.6004 8.29123 12.6004 8.78473C12.3728 8.99913 12.3728 8.99913 12.0689 9.19333C11.9703 9.25903 11.8716 9.32473 11.77 9.39243C11.3832 9.55683 11.218 9.53883 10.8235 9.40153C10.5716 9.22233 10.5716 9.22233 10.3476 9.00063C10.2723 8.92873 10.197 8.85683 10.1195 8.78273C9.90391 8.49653 9.85511 8.26963 9.80811 7.92103C9.99301 7.77943 10.1782 7.63813 10.3634 7.49693C10.518 7.37883 10.518 7.37883 10.6758 7.25843C11.1265 6.92853 11.1265 6.92853 11.4442 6.95093Z" fill="#278F30"/>
<path d="M8.857 8.91161C9.2163 9.04791 9.4745 9.21471 9.7762 9.44801C9.875 9.52271 9.9739 9.59751 10.0757 9.67451C10.3156 9.89521 10.3156 9.89521 10.4425 10.2653C10.2829 10.513 10.2829 10.513 10.0459 10.7743C9.9697 10.8611 9.8934 10.9479 9.8149 11.0374C9.4992 11.2976 9.3335 11.3667 8.9195 11.3757C8.5566 11.2162 8.5566 11.2162 8.1897 10.9825C8.0673 10.9069 7.9449 10.8314 7.8188 10.7535C7.5234 10.5121 7.5234 10.5121 7.3855 10.273C7.4029 9.86771 7.6309 9.70451 7.92 9.42481C8.0198 9.32481 8.1196 9.22471 8.2224 9.12171C8.5387 8.90821 8.5387 8.90821 8.857 8.91161Z" fill="#268E2F"/>
<path d="M6.11147 13.6966C6.25117 13.6944 6.25117 13.6944 6.39357 13.6921C6.88067 13.6908 7.10887 13.6979 7.52347 13.9665C7.40947 14.9271 7.40947 14.9271 7.14267 15.3237C6.85127 15.4653 6.68797 15.4613 6.36437 15.4591C6.26207 15.4587 6.15987 15.4583 6.05447 15.4579C5.94767 15.4569 5.84077 15.4558 5.73067 15.4548C5.62287 15.4542 5.51507 15.4537 5.40397 15.4531C5.13747 15.4516 4.87087 15.4494 4.60427 15.4471C4.46747 14.9955 4.50417 14.8034 4.71537 14.3752C4.76217 14.278 4.80897 14.1809 4.85717 14.0808C5.13467 13.5652 5.57057 13.6971 6.11147 13.6966Z" fill="#2B9030"/>
<path d="M6.50803 11.2524C7.32053 11.3098 7.93813 11.5173 8.66573 11.8693C8.60773 12.4895 8.28593 12.8746 7.90413 13.3498C7.08723 13.2867 6.38623 13.1364 5.61963 12.8563C5.66273 12.1848 6.08953 11.7537 6.50803 11.2524Z" fill="#288E30"/>
<path d="M6.76207 15.9406C6.88897 16.064 6.88897 16.064 6.90137 16.3459C6.89987 16.459 6.89837 16.5721 6.89687 16.6886C6.89577 16.802 6.89457 16.9154 6.89337 17.0322C6.89197 17.1199 6.89047 17.2075 6.88897 17.2978C6.01237 17.6883 5.20077 17.9622 4.22357 17.9147C4.09843 17.3062 4.04332 16.8691 4.35057 16.3108C5.05697 15.9674 5.97987 15.8946 6.76207 15.9406Z" fill="#309231"/>
<path d="M17.1695 13.7199C17.2114 13.9235 17.2533 14.127 17.2965 14.3368C17.3383 14.2553 17.3802 14.1739 17.4234 14.09C17.549 14.09 17.6747 14.09 17.8041 14.09C18.0263 14.5219 18.0186 14.9771 17.9311 15.4472C17.709 15.7729 17.5339 15.8607 17.1695 16.064C16.7599 16.11 16.5226 16.1197 16.1542 15.9407C16.1123 15.8185 16.0704 15.6964 16.0273 15.5705C15.9016 15.5298 15.7759 15.4891 15.6465 15.4472C15.4767 14.6821 15.4767 14.6821 15.6703 14.2365C16.1158 13.7139 16.4869 13.6897 17.1695 13.7199Z" fill="#262626"/>
<path d="M22.3733 21.1226C22.6083 21.3289 22.6083 21.3289 22.8334 21.5853C22.9083 21.6686 22.9833 21.7519 23.0605 21.8378C23.2722 22.1237 23.3953 22.3954 23.5156 22.7265C23.3372 22.8543 23.1571 22.9798 22.9762 23.1043C22.8761 23.1745 22.7759 23.2446 22.6728 23.3169C22.3733 23.4668 22.3733 23.4668 22.1066 23.4576C21.7958 23.3103 21.6665 23.1397 21.469 22.8653C21.4058 22.7791 21.3427 22.6929 21.2776 22.6041C20.8505 21.9944 20.8505 21.9944 20.8423 21.7472C21.1343 21.1962 21.7708 20.8762 22.3733 21.1226Z" fill="#C4C4C4"/>
<path d="M23.2301 8.02148C23.6057 8.15498 23.8577 8.27658 24.1502 8.53818C23.8364 9.24838 23.2033 9.69398 22.5479 10.1035C22.2464 10.1421 22.2464 10.1421 21.826 9.91068C21.7134 9.82418 21.6009 9.73768 21.4849 9.64858C21.7689 8.84988 22.3119 8.06618 23.2301 8.02148Z" fill="#4C9E36"/>
<path d="M18.8427 19.8443C19.1151 20.0424 19.1909 20.1804 19.3033 20.4901C19.3355 20.5737 19.3678 20.6574 19.401 20.7436C19.4634 21.0443 19.4492 21.2098 19.3271 21.4925C18.7963 21.7704 18.4004 21.8826 17.804 21.8627C17.7399 21.6649 17.6766 21.467 17.6137 21.2689C17.5606 21.1036 17.5606 21.1036 17.5066 20.9349C17.4233 20.6289 17.4233 20.6289 17.4233 20.2588C17.6018 20.169 17.782 20.0822 17.9627 19.9966C18.0628 19.9479 18.1629 19.8992 18.2661 19.8491C18.5656 19.7653 18.5656 19.7653 18.8427 19.8443Z" fill="#C2C2C2"/>
<path d="M19.351 7.16542C19.5906 7.17302 19.5906 7.17302 19.8349 7.18082C19.9815 7.68542 19.941 7.96532 19.7318 8.44542C19.6865 8.55292 19.6412 8.66052 19.5945 8.77122C19.4541 9.03152 19.4541 9.03152 19.2003 9.15492C19.0048 9.16342 18.809 9.16532 18.6133 9.16262C18.4577 9.16092 18.4577 9.16092 18.299 9.15922C18.2195 9.15782 18.1399 9.15632 18.058 9.15492C17.8918 8.70942 17.9703 8.46072 18.1532 8.02902C18.219 7.86832 18.219 7.86832 18.2861 7.70422C18.5452 7.23472 18.836 7.14902 19.351 7.16542Z" fill="#DEDEDE"/>
<path d="M21.6274 7.48176C21.8007 7.53496 21.8007 7.53496 21.9774 7.58916C22.0661 7.61736 22.1548 7.64546 22.2462 7.67446C21.9932 8.34206 21.6698 8.93716 21.1039 9.40176C20.6925 9.45956 20.356 9.39746 19.9616 9.27836C19.8718 9.07546 19.8718 9.07546 19.8347 8.78486C20.0077 8.44416 20.0077 8.44416 20.2551 8.08316C20.3357 7.96316 20.4164 7.84306 20.4995 7.71936C20.8783 7.22536 21.0605 7.30506 21.6274 7.48176Z" fill="#DFDFDF"/>
<path d="M16.9155 20.3822C17.0424 20.5056 17.0424 20.5056 17.0548 20.8685C17.0534 21.0159 17.0519 21.1634 17.0504 21.3153C17.0492 21.463 17.0481 21.6108 17.0469 21.763C17.0454 21.8773 17.0439 21.9917 17.0424 22.1095C16.6303 22.2877 16.312 22.3866 15.8605 22.3717C15.706 22.3666 15.5516 22.3615 15.3925 22.3563C15.389 22.1378 15.3866 21.9193 15.3845 21.7008C15.3831 21.5792 15.3816 21.4575 15.3801 21.3321C15.3925 20.9991 15.3925 20.9991 15.5194 20.629C15.9883 20.3815 16.3873 20.3472 16.9155 20.3822Z" fill="#60A53B"/>
<path d="M14.3137 20.4824C14.7579 20.5055 14.7579 20.5055 15.0118 20.6289C14.9972 20.8243 14.981 21.0197 14.9642 21.2149C14.9553 21.3237 14.9465 21.4325 14.9374 21.5446C14.8843 21.8659 14.8104 22.0825 14.631 22.3562C14.1119 22.5436 13.6431 22.448 13.1079 22.3562C13.2055 21.5787 13.3711 20.5315 14.3137 20.4824Z" fill="#58A439"/>
<path d="M17.5502 7.42773C17.8007 7.91483 17.6663 8.51433 17.5502 9.03163C17.1783 9.40373 16.9634 9.39943 16.4317 9.42483C16.2982 9.41723 16.1647 9.40963 16.0271 9.40173C16.0271 8.87243 16.0271 8.34313 16.0271 7.79783C16.979 7.42773 16.979 7.42773 17.5502 7.42773Z" fill="#379532"/>
<path d="M12.0925 20.1355C12.9492 20.2434 12.9492 20.2434 13.2347 20.3822C13.2811 20.911 13.1693 21.165 12.854 21.5928C12.7833 21.6903 12.7126 21.7878 12.6398 21.8883C12.5848 21.9613 12.5299 22.0343 12.4732 22.1095C12.3135 22.0942 12.1538 22.0789 11.9893 22.0632C11.8995 22.0546 11.8097 22.046 11.7171 22.0372C11.4578 21.9861 11.4578 21.9861 11.0771 21.7393C11.2789 21.1114 11.6793 20.6444 12.0925 20.1355Z" fill="#51A038"/>
<path d="M15.2657 8.16816C15.3368 8.34206 15.405 8.51706 15.472 8.69246C15.5103 8.78976 15.5486 8.88716 15.588 8.98746C15.6465 9.27846 15.6465 9.27846 15.5488 9.54796C15.3293 9.86286 15.1145 9.98906 14.7581 10.1422C14.4249 10.1653 14.4249 10.1653 14.1235 10.0188C13.8818 9.62126 13.7182 9.23076 13.7754 8.76616C13.8696 8.53826 13.8696 8.53826 14.2186 8.32236C14.6095 8.17616 14.8539 8.13276 15.2657 8.16816Z" fill="#329431"/>
<path d="M9.80809 17.1746C9.84999 17.4596 9.89189 17.7446 9.93499 18.0382C9.69269 18.1659 9.44919 18.2915 9.20519 18.416C9.06969 18.4862 8.93429 18.5563 8.79469 18.6286C8.40869 18.7797 8.27879 18.8097 7.90429 18.6551C7.82049 18.3701 7.73669 18.0851 7.65039 17.7914C8.17679 17.2113 9.03979 16.9096 9.80809 17.1746Z" fill="#D7D7D7"/>
<path d="M9.55414 15.5706C9.79424 15.804 9.71114 16.1345 9.72274 16.4453C9.70894 16.5231 9.69524 16.6009 9.68104 16.681C9.23734 16.9685 8.98594 16.978 8.45944 17.0126C8.31124 17.0232 8.16304 17.0339 8.01024 17.0449C7.89154 17.0469 7.77274 17.049 7.65034 17.0511C7.60844 17.0104 7.56654 16.9697 7.52344 16.9278C7.54074 16.5738 7.55764 16.2786 7.65034 15.9407C8.13414 15.5401 8.94084 15.5365 9.55414 15.5706Z" fill="#369632"/>
<path d="M11.1005 19.416C11.3793 19.5402 11.6022 19.7 11.8387 19.8888C11.6531 20.2987 11.4188 20.5912 11.101 20.9144C10.9741 21.0473 10.9741 21.0473 10.8446 21.1828C10.5695 21.3693 10.5695 21.3693 10.2373 21.352C9.86825 21.2226 9.68255 21.0374 9.42725 20.7525C9.58405 20.295 9.78305 20.1602 10.1649 19.858C10.2757 19.7683 10.3864 19.6786 10.5006 19.5862C10.8233 19.3953 10.8233 19.3953 11.1005 19.416Z" fill="#4A9D36"/>
<path d="M10.3157 18.4082C10.5695 18.7784 10.5695 18.7784 10.5601 19.0801C10.4054 19.495 10.2041 19.6264 9.83181 19.8733C9.66571 19.9874 9.66571 19.9874 9.49621 20.1037C9.17341 20.2589 9.17341 20.2589 8.89281 20.2396C8.54391 20.0797 8.44041 19.8527 8.28491 19.5186C8.44281 19.0581 8.59391 19.0003 9.01471 18.7552C9.17871 18.6572 9.17871 18.6572 9.34591 18.5572C9.70851 18.396 9.92261 18.3478 10.3157 18.4082Z" fill="#D7D7D7"/>
<path d="M9.72877 12.2393C10.1756 12.3591 10.547 12.5129 10.9504 12.7328C10.877 13.2144 10.683 13.5145 10.3158 13.8432C9.72857 13.8327 9.21467 13.6683 8.66577 13.4731C8.74577 12.7927 8.95567 12.2393 9.72877 12.2393Z" fill="#319232"/>
<path d="M12.9965 9.23981C13.3571 9.48461 13.5355 9.76891 13.7427 10.142C13.7586 10.4041 13.7586 10.4041 13.6158 10.6355C13.2667 10.9285 13.2667 10.9285 12.8542 11.129C12.4068 11.0565 12.2419 10.9045 11.9261 10.5892C11.7119 10.2653 11.7119 10.2653 11.7119 9.77181C11.9162 9.58001 11.9162 9.58001 12.1879 9.41711C12.2763 9.36151 12.3646 9.30581 12.4556 9.24841C12.7273 9.15501 12.7273 9.15501 12.9965 9.23981Z" fill="#309330"/>
<path d="M9.2608 14.0128C9.4105 14.0265 9.5602 14.0401 9.7144 14.0542C9.8291 14.066 9.9438 14.0778 10.062 14.0899C9.9668 15.0461 9.9668 15.0461 9.6812 15.3237C9.2677 15.3478 9.2677 15.3478 8.7769 15.3391C8.533 15.3357 8.533 15.3357 8.2841 15.3323C8.0961 15.328 8.0961 15.328 7.9043 15.3237C7.9154 15.1436 7.9291 14.9637 7.944 14.7839C7.9514 14.6837 7.9587 14.5835 7.9663 14.4803C8.126 13.8236 8.7105 13.9598 9.2608 14.0128Z" fill="#339332"/>
<path d="M11.0695 10.6201C11.5618 10.7959 11.8364 11.0298 12.2197 11.3758C12.0615 11.8497 11.9234 12.1302 11.4581 12.3628C10.8717 12.3474 10.4236 12.0345 9.93506 11.7459C9.97806 11.3694 10.0951 11.2111 10.3397 10.9054C10.6966 10.6355 10.6966 10.6355 11.0695 10.6201Z" fill="#2F9131"/>
<path d="M19.0732 18.9019C19.1569 18.9019 19.2407 18.9019 19.327 18.9019C19.327 18.9833 19.327 19.0647 19.327 19.1486C19.2433 19.1486 19.1595 19.1486 19.0732 19.1486C19.0732 19.0672 19.0732 18.9858 19.0732 18.9019Z" fill="#42BD31"/>
</svg>
