<svg width="71" height="70" viewBox="0 0 71 70" fill="none" xmlns="http://www.w3.org/2000/svg">
    <path d="M44.6895 3.41797L43.3223 7.51953H57.4043L56.0371 3.41797H44.6895ZM9.75781 4.375V11.8945H6.61328V14.3555H24.1133V11.8945H20.9688V4.375H18.5078V11.8945H12.2188V4.375H9.75781ZM38.4688 9.98047V51.2695H62.2578V9.98047H38.4688ZM10.0312 16.543V23.5566L13.6857 27.207H17.0449L20.6953 23.5566V16.543H10.0312ZM40.3828 25.0195H60.3438V31.8555H40.3828V25.0195ZM14.1328 29.668V52.5C14.1328 56.793 16.6758 60.1152 20.2168 62.1797C23.7441 64.2441 28.3105 65.2148 32.8633 65.2148C37.416 65.2148 41.9824 64.2441 45.5098 62.1797C48.709 60.3203 51.0879 57.4355 51.5254 53.7305H49.0508C48.6543 56.4648 46.918 58.502 44.2793 60.0469C41.2441 61.8105 37.0605 62.7539 32.8633 62.7539C28.666 62.7539 24.4824 61.8105 21.4473 60.0469C18.4258 58.2832 16.5938 55.8633 16.5938 52.5V29.668H14.1328ZM40.3828 33.7695H60.3438V40.6055H40.3828V33.7695ZM40.3828 42.5195H60.3438V49.3555H40.3828V42.5195Z" fill="currentColor"/>
</svg>
