<svg width="71" height="70" viewBox="0 0 71 70" fill="none" xmlns="http://www.w3.org/2000/svg">
    <g clip-path="url(#clip0_25_1159)">
        <path d="M35.334 69.9902C49.808 69.9902 61.584 58.2142 61.584 43.7402C61.584 32.7465 54.7873 23.3153 45.1777 19.4126V18.584C45.1777 15.6579 42.6207 14.5524 40.6868 14.2805C40.1793 12.1607 38.1073 11.2885 36.4362 11.0275V9.65488C38.7824 9.46758 40.6361 8.64535 41.9546 7.2016C44.283 4.65207 43.9925 1.13361 43.9793 0.985137C43.928 0.421719 43.4553 -0.00976562 42.8897 -0.00976562C40.033 -0.00976562 37.8178 0.829824 36.3054 2.4859C35.9197 2.90822 35.6115 3.35789 35.3564 3.81371C35.1013 3.35789 34.7931 2.90822 34.4074 2.4859C32.8951 0.829824 30.6797 -0.00976562 27.8231 -0.00976562C27.2575 -0.00976562 26.7848 0.421719 26.7336 0.985137C26.7202 1.13361 26.4296 4.65193 28.7582 7.2016C30.0714 8.63961 31.9162 9.45992 34.2488 9.6516V11.0249C32.5749 11.2824 30.4904 12.1533 29.9812 14.2805C28.0473 14.5523 25.4902 15.6578 25.4902 18.584V19.4126C15.8807 23.3154 9.08398 32.7465 9.08398 43.7402C9.08398 58.2142 20.8598 69.9902 35.334 69.9902ZM11.2809 44.115L13.7815 45.9869C14.8223 46.7672 15.9925 47.3477 17.2636 47.7136L19.3432 48.3042C20.163 48.5418 20.7942 49.173 21.0298 49.9865L21.6717 52.2541C21.9751 53.3105 22.5427 54.2761 23.3096 55.0429C24.8133 56.5619 26.752 59.7906 23.6261 64.7517C16.3656 60.6899 11.4175 52.9774 11.2809 44.115ZM25.5904 65.7339C29.5016 59.3651 26.4406 55.096 24.86 53.5002C24.3436 52.9838 23.9788 52.3616 23.7758 51.6545L23.1328 49.3843C22.6857 47.8403 21.4964 46.651 19.946 46.2019L17.8647 45.6107C16.8537 45.3196 15.9213 44.8576 15.093 44.236L11.3825 41.4581C11.5786 39.3849 12.0356 37.3866 12.7258 35.4991C14.024 35.2958 15.2797 35.4488 16.5975 35.6342C17.5353 35.7661 18.5099 35.9034 19.5348 35.9034C22.0122 35.9034 24.7819 35.1018 28.0321 31.4872C30.0807 29.2089 30.9321 27.0091 30.562 24.9493C30.2914 23.4447 29.3527 22.065 27.8269 20.883C29.6603 20.2793 31.5897 19.892 33.5866 19.7479C33.7126 22.8826 33.8111 29.4229 32.673 32.8443C31.6524 35.9012 32.9608 36.9352 33.5707 37.2375C33.9072 37.4047 34.2773 37.4852 34.672 37.4852C36.4152 37.4852 38.6251 35.9102 40.4324 33.264C40.686 32.8923 41.1112 32.6616 41.5416 32.6616H45.9641C47.7474 32.6616 49.4931 31.9385 50.7546 30.6776L53.4744 27.9578C56.1672 31.049 58.0878 34.8285 58.9245 38.9979C48.6202 37.6331 41.8254 38.1115 38.7346 40.4311C36.6496 41.9949 35.4704 43.755 35.2306 45.6628C34.9519 47.8791 35.9969 49.7173 36.9231 50.8693C37.0598 51.0391 37.0592 51.2918 36.9225 51.4834L35.7748 53.0936C34.2303 55.2539 33.6935 57.9732 34.3019 60.5532L36.0049 67.7855C35.7813 67.7917 35.5587 67.8026 35.3337 67.8026C31.8667 67.8027 28.5715 67.0597 25.5904 65.7339ZM34.7486 33.536C35.9816 29.8298 35.9204 23.2766 35.7738 19.6888C42.0471 19.8023 47.7389 22.3262 51.9645 26.3746L49.2082 29.1305C48.3543 29.9844 47.1718 30.4741 45.9643 30.4741H41.5417C40.3818 30.4741 39.2917 31.0557 38.6263 32.0304C36.7416 34.7909 34.8799 35.4484 34.5552 35.2876C34.496 35.2172 34.356 34.713 34.7486 33.536ZM38.2138 67.6243L36.4309 60.0519C35.9673 58.0854 36.3769 56.0128 37.5557 54.3646L38.7038 52.7534C39.4072 51.7675 39.3757 50.4292 38.6279 49.4988C37.9673 48.6769 37.2181 47.3914 37.4012 45.9357C37.564 44.6385 38.4543 43.3753 40.0474 42.1807C42.6525 40.2285 49.4663 39.9061 59.2678 41.2525C59.3522 42.0705 59.3962 42.9002 59.3962 43.7401C59.3965 56.0332 50.1282 66.1959 38.2138 67.6243ZM37.9326 3.94756C38.8224 2.98096 40.1105 2.40633 41.7703 2.23324C41.6731 3.19506 41.3478 4.63006 40.3272 5.7398C39.4375 6.70641 38.1493 7.28104 36.4895 7.45412C36.5869 6.4923 36.9121 5.0573 37.9326 3.94756ZM30.3853 5.7398C29.3642 4.63006 29.0395 3.19396 28.9422 2.23324C30.6021 2.40633 31.8902 2.98096 32.7799 3.94756C33.8005 5.0573 34.1258 6.4923 34.223 7.45412C32.5632 7.28117 31.2751 6.70654 30.3853 5.7398ZM27.6777 18.584C27.6777 16.4419 30.8281 16.3976 30.959 16.3965C31.563 16.3965 32.0527 15.9068 32.0527 15.3027C32.0527 13.1606 35.2031 13.1163 35.3308 13.1152C35.4648 13.1163 38.6152 13.1606 38.6152 15.3027C38.6152 15.904 39.1044 16.3928 39.7058 16.3965C39.8398 16.3976 42.9902 16.4419 42.9902 18.584V18.6322C40.5668 17.8916 37.9967 17.4902 35.334 17.4902C32.6712 17.4902 30.1012 17.8918 27.6777 18.6322V18.584ZM25.3542 21.8535C26.6824 22.6202 28.1305 23.7875 28.4093 25.3367C28.6539 26.6974 27.9793 28.2745 26.4056 30.0252C22.5914 34.2682 19.9552 33.8992 16.902 33.4683C15.8723 33.3239 14.8202 33.1768 13.7077 33.2009C16.154 28.2013 20.2845 24.1744 25.3542 21.8535Z" fill="url(#paint0_linear_25_1159)"/>
        <path d="M32.3975 43.0068C32.3323 42.6132 32.1481 42.2554 31.865 41.9724L29.852 39.9595C29.4921 39.5995 29.0141 39.4014 28.5051 39.4014H25.4172C24.5413 39.4014 23.7813 39.9947 23.5687 40.845L23.0353 42.9807C22.8579 43.685 23.1042 44.4414 23.6633 44.9076L27.9145 48.45C28.2563 48.7352 28.6894 48.8921 29.1348 48.8921H31.129C31.6902 48.8921 32.2206 48.6464 32.5838 48.2175C32.9459 47.7892 33.1008 47.2263 33.0083 46.6736L32.3975 43.0068ZM29.2375 46.7045L25.2001 43.3405L25.638 41.5889H28.3883L30.2548 43.4554L30.7958 46.7046H29.2375V46.7045Z" fill="url(#paint1_linear_25_1159)"/>
    </g>
    <defs>
        <linearGradient id="paint0_linear_25_1159" x1="9.08849" y1="34.9969" x2="61.5748" y2="34.9969" gradientUnits="userSpaceOnUse">
            <stop stop-color="#3CAB90"/>
            <stop offset="1" stop-color="#0E6752"/>
        </linearGradient>
        <linearGradient id="paint1_linear_25_1159" x1="22.9794" y1="44.1476" x2="33.0328" y2="44.1476" gradientUnits="userSpaceOnUse">
            <stop stop-color="#3CAB90"/>
            <stop offset="1" stop-color="#0E6752"/>
        </linearGradient>
        <clipPath id="clip0_25_1159">
            <rect width="70" height="70" fill="white" transform="translate(0.333984)"/>
        </clipPath>
    </defs>
</svg>
