<svg width="70" height="70" viewBox="0 0 70 70" fill="none" xmlns="http://www.w3.org/2000/svg">
    <path d="M8.7505 28.4375C8.7505 27.8573 8.98097 27.3009 9.39121 26.8907C9.80144 26.4805 10.3578 26.25 10.938 26.25H15.313C15.8932 26.25 16.4496 26.4805 16.8598 26.8907C17.27 27.3009 17.5005 27.8573 17.5005 28.4375C17.5005 29.0177 17.27 29.5741 16.8598 29.9843C16.4496 30.3945 15.8932 30.625 15.313 30.625H10.938C10.3578 30.625 9.80144 30.3945 9.39121 29.9843C8.98097 29.5741 8.7505 29.0177 8.7505 28.4375ZM19.5321 16.0645C19.9426 16.4749 20.4993 16.7055 21.0798 16.7055C21.6603 16.7055 22.217 16.4749 22.6275 16.0645C23.0379 15.654 23.2685 15.0973 23.2685 14.5168C23.2685 13.9363 23.0379 13.3796 22.6275 12.9691L19.5321 9.87656C19.1186 9.48364 18.5679 9.26783 17.9975 9.27513C17.427 9.28243 16.882 9.51228 16.4787 9.91566C16.0753 10.319 15.8454 10.864 15.8381 11.4344C15.8308 12.0049 16.0466 12.5556 16.4396 12.9691L19.5321 16.0645ZM35.0005 10.9375C35.5807 10.9375 36.1371 10.707 36.5473 10.2968C36.9575 9.88656 37.188 9.33016 37.188 8.75V4.375C37.188 3.79484 36.9575 3.23844 36.5473 2.8282C36.1371 2.41797 35.5807 2.1875 35.0005 2.1875C34.4203 2.1875 33.8639 2.41797 33.4537 2.8282C33.0435 3.23844 32.813 3.79484 32.813 4.375V8.75C32.813 9.33016 33.0435 9.88656 33.4537 10.2968C33.8639 10.707 34.4203 10.9375 35.0005 10.9375ZM48.9212 16.7043C49.2086 16.7045 49.4931 16.6481 49.7587 16.5383C50.0242 16.4286 50.2656 16.2675 50.4689 16.0645L53.5614 12.9691C53.9544 12.5556 54.1702 12.0049 54.1629 11.4344C54.1556 10.864 53.9257 10.319 53.5223 9.91566C53.119 9.51228 52.574 9.28243 52.0036 9.27513C51.4331 9.26783 50.8824 9.48364 50.4689 9.87656L47.3736 12.9691C47.0673 13.2751 46.8587 13.665 46.7741 14.0896C46.6896 14.5141 46.7329 14.9542 46.8986 15.3541C47.0643 15.7541 47.3449 16.0958 47.705 16.3362C48.065 16.5765 48.4883 16.7046 48.9212 16.7043ZM52.5005 28.4375C52.5005 29.0177 52.731 29.5741 53.1412 29.9843C53.5514 30.3945 54.1078 30.625 54.688 30.625H59.063C59.6432 30.625 60.1996 30.3945 60.6098 29.9843C61.02 29.5741 61.2505 29.0177 61.2505 28.4375C61.2505 27.8573 61.02 27.3009 60.6098 26.8907C60.1996 26.4805 59.6432 26.25 59.063 26.25H54.688C54.1078 26.25 53.5514 26.4805 53.1412 26.8907C52.731 27.3009 52.5005 27.8573 52.5005 28.4375ZM24.063 30.625C24.6432 30.625 25.1996 30.3945 25.6098 29.9843C26.02 29.5741 26.2505 29.0177 26.2505 28.4375C26.2505 26.1169 27.1724 23.8913 28.8133 22.2503C30.4543 20.6094 32.6799 19.6875 35.0005 19.6875C37.3211 19.6875 39.5467 20.6094 41.1877 22.2503C42.8286 23.8913 43.7505 26.1169 43.7505 28.4375C43.7505 29.0177 43.981 29.5741 44.3912 29.9843C44.8014 30.3945 45.3578 30.625 45.938 30.625C46.5182 30.625 47.0746 30.3945 47.4848 29.9843C47.895 29.5741 48.1255 29.0177 48.1255 28.4375C48.1255 24.9565 46.7427 21.6181 44.2813 19.1567C41.8199 16.6953 38.4815 15.3125 35.0005 15.3125C31.5195 15.3125 28.1811 16.6953 25.7197 19.1567C23.2583 21.6181 21.8755 24.9565 21.8755 28.4375C21.8755 29.0177 22.106 29.5741 22.5162 29.9843C22.9264 30.3945 23.4828 30.625 24.063 30.625ZM65.3275 60.1562C65.1359 60.4881 64.8605 60.7637 64.5289 60.9557C64.1973 61.1476 63.8211 61.2491 63.438 61.25H6.563C6.17975 61.2518 5.80275 61.1529 5.46976 60.9631C5.13676 60.7734 4.85946 60.4995 4.66563 60.1689C4.47179 59.8382 4.36823 59.4625 4.3653 59.0792C4.36237 58.696 4.46018 58.3187 4.64894 57.9852L15.7751 38.2977C15.9667 37.9592 16.245 37.6779 16.5814 37.4827C16.9179 37.2876 17.3002 37.1857 17.6892 37.1875H52.3091C52.698 37.1857 53.0804 37.2876 53.4168 37.4827C53.7533 37.6779 54.0316 37.9592 54.2232 38.2977L65.3493 57.9852C65.535 58.3176 65.6306 58.6928 65.6268 59.0736C65.6229 59.4544 65.5198 59.8276 65.3275 60.1562ZM51.0349 41.5625H44.3712L45.3228 45.9375H53.5068L51.0349 41.5625ZM40.8466 45.9375L39.895 41.5625H30.106L29.1544 45.9375H40.8466ZM28.2028 50.3125L26.7782 56.875H43.2228L41.7982 50.3125H28.2028ZM16.4943 45.9375H24.6782L25.6298 41.5625H18.9661L16.4943 45.9375ZM10.3118 56.875H22.2993L23.7267 50.3125H14.0224L10.3118 56.875ZM59.6892 56.875L55.9786 50.3125H46.2743L47.7017 56.875H59.6892Z" fill="currentColor"/>
</svg>
