<svg
        width="78"
        height="78"
        viewBox="0 0 78 78"
        fill="none"
        xmlns="http://www.w3.org/2000/svg"
        style="flex-grow: 0; flex-shrink: 0; width: 56px; height: 56px; position: relative;"
        preserveAspectRatio="xMidYMid meet"
>
    <rect x="11" y="11" width="56" height="56" rx="10" fill="#3CAB90"></rect>
    <rect
            x="11"
            y="11"
            width="56"
            height="56"
            rx="10"
            stroke="#3CAB90"
            stroke-opacity="0.15"
            stroke-width="21"
    ></rect>
    <path
            d="M35.5007 45.4167H29.084M32.584 39H27.334M35.5007 32.5833H29.6673M44.834 28.5L37.1381 39.2742C36.7975 39.7511 36.6272 39.9895 36.6346 40.1883C36.641 40.3614 36.724 40.5226 36.8611 40.6285C37.0186 40.75 37.3116 40.75 37.8976 40.75H43.6673L42.5007 49.5L50.1965 38.7258C50.5371 38.2489 50.7074 38.0105 50.7001 37.8117C50.6936 37.6386 50.6106 37.4774 50.4735 37.3715C50.3161 37.25 50.023 37.25 49.437 37.25H43.6673L44.834 28.5Z"
            stroke="white"
            stroke-width="2"
            stroke-linecap="round"
            stroke-linejoin="round"
    ></path>
</svg>