<svg width="36" height="36" viewBox="0 0 36 36" fill="none" xmlns="http://www.w3.org/2000/svg">
<g clip-path="url(#clip0_1422_2170)">
<path d="M0 6H48V30H0V6Z" fill="#1EB53A"/>
<path d="M0 6H48V18H0V6Z" fill="#0099B5"/>
<path d="M0 13.6802H48V22.3202H0V13.6802Z" fill="#CE1126"/>
<path d="M0 14.1602H48V21.8402H0V14.1602Z" fill="white"/>
<path d="M6.72003 12.72C8.31061 12.72 9.60003 11.4305 9.60003 9.83996C9.60003 8.24938 8.31061 6.95996 6.72003 6.95996C5.12945 6.95996 3.84003 8.24938 3.84003 9.83996C3.84003 11.4305 5.12945 12.72 6.72003 12.72Z" fill="white"/>
<path d="M7.67999 12.72C9.27057 12.72 10.56 11.4305 10.56 9.83996C10.56 8.24938 9.27057 6.95996 7.67999 6.95996C6.08941 6.95996 4.79999 8.24938 4.79999 9.83996C4.79999 11.4305 6.08941 12.72 7.67999 12.72Z" fill="#0099B5"/>
<path d="M13.056 11.5679L12.878 12.1157L13.1519 12.2047" fill="white"/>
<path d="M13.056 11.5679L13.234 12.1157L12.9601 12.2047" fill="white"/>
<path d="M13.6038 11.9663H13.0278V12.2543" fill="white"/>
<path d="M13.6038 11.9663L13.1378 12.3049L12.9685 12.0719" fill="white"/>
<path d="M12.5082 11.9658L12.9742 12.3044L13.1435 12.0714" fill="white"/>
<path d="M12.5082 11.9658H13.0842V12.2538" fill="white"/>
<path d="M13.3945 12.6099L13.2165 12.0621L12.9426 12.1511" fill="white"/>
<path d="M13.3945 12.6099L12.9285 12.2713L13.0978 12.0383" fill="white"/>
<path d="M12.7173 12.6094L13.1833 12.2708L13.0141 12.0378" fill="white"/>
<path d="M12.7173 12.6094L12.8953 12.0616L13.1692 12.1506" fill="white"/>
<path d="M13.056 9.26416L12.878 9.81197L13.1519 9.90097" fill="white"/>
<path d="M13.056 9.26416L13.234 9.81197L12.9601 9.90097" fill="white"/>
<path d="M13.6038 9.6626H13.0278V9.9506" fill="white"/>
<path d="M13.6038 9.6626L13.1378 10.0012L12.9685 9.76817" fill="white"/>
<path d="M12.5082 9.66211L12.9742 10.0007L13.1435 9.76768" fill="white"/>
<path d="M12.5082 9.66211H13.0842V9.95011" fill="white"/>
<path d="M13.3945 10.3062L13.2165 9.75834L12.9426 9.84734" fill="white"/>
<path d="M13.3945 10.3062L12.9285 9.96759L13.0978 9.73459" fill="white"/>
<path d="M12.7173 10.3057L13.1833 9.9671L13.0141 9.7341" fill="white"/>
<path d="M12.7173 10.3057L12.8953 9.75786L13.1692 9.84685" fill="white"/>
<path d="M13.056 6.95996L12.878 7.50777L13.1519 7.59677" fill="white"/>
<path d="M13.056 6.95996L13.234 7.50777L12.9601 7.59677" fill="white"/>
<path d="M13.6038 7.3584H13.0278V7.6464" fill="white"/>
<path d="M13.6038 7.3584L13.1378 7.69696L12.9685 7.46397" fill="white"/>
<path d="M12.5082 7.35791L12.9742 7.69647L13.1435 7.46348" fill="white"/>
<path d="M12.5082 7.35791H13.0842V7.64591" fill="white"/>
<path d="M13.3945 8.00195L13.2165 7.45414L12.9426 7.54314" fill="white"/>
<path d="M13.3945 8.00195L12.9285 7.66339L13.0978 7.43039" fill="white"/>
<path d="M12.7173 8.00146L13.1833 7.6629L13.0141 7.4299" fill="white"/>
<path d="M12.7173 8.00146L12.8953 7.45366L13.1692 7.54265" fill="white"/>
<path d="M15.36 11.5679L15.182 12.1157L15.4559 12.2047" fill="white"/>
<path d="M15.36 11.5679L15.538 12.1157L15.2641 12.2047" fill="white"/>
<path d="M15.9078 11.9663H15.3318V12.2543" fill="white"/>
<path d="M15.9078 11.9663L15.4418 12.3049L15.2725 12.0719" fill="white"/>
<path d="M14.8122 11.9658L15.2782 12.3044L15.4475 12.0714" fill="white"/>
<path d="M14.8122 11.9658H15.3882V12.2538" fill="white"/>
<path d="M15.6985 12.6099L15.5205 12.0621L15.2466 12.1511" fill="white"/>
<path d="M15.6985 12.6099L15.2325 12.2713L15.4018 12.0383" fill="white"/>
<path d="M15.0214 12.6094L15.4874 12.2708L15.3181 12.0378" fill="white"/>
<path d="M15.0214 12.6094L15.1994 12.0616L15.4733 12.1506" fill="white"/>
<path d="M15.36 9.26416L15.182 9.81197L15.4559 9.90097" fill="white"/>
<path d="M15.36 9.26416L15.538 9.81197L15.2641 9.90097" fill="white"/>
<path d="M15.9078 9.6626H15.3318V9.9506" fill="white"/>
<path d="M15.9078 9.6626L15.4418 10.0012L15.2725 9.76817" fill="white"/>
<path d="M14.8122 9.66211L15.2782 10.0007L15.4475 9.76768" fill="white"/>
<path d="M14.8122 9.66211H15.3882V9.95011" fill="white"/>
<path d="M15.6985 10.3062L15.5205 9.75834L15.2466 9.84734" fill="white"/>
<path d="M15.6985 10.3062L15.2325 9.96759L15.4018 9.73459" fill="white"/>
<path d="M15.0214 10.3057L15.4874 9.9671L15.3181 9.7341" fill="white"/>
<path d="M15.0214 10.3057L15.1994 9.75786L15.4733 9.84685" fill="white"/>
<path d="M15.36 6.95996L15.182 7.50777L15.4559 7.59677" fill="white"/>
<path d="M15.36 6.95996L15.538 7.50777L15.2641 7.59677" fill="white"/>
<path d="M15.9078 7.3584H15.3318V7.6464" fill="white"/>
<path d="M15.9078 7.3584L15.4418 7.69696L15.2725 7.46397" fill="white"/>
<path d="M14.8122 7.35791L15.2782 7.69647L15.4475 7.46348" fill="white"/>
<path d="M14.8122 7.35791H15.3882V7.64591" fill="white"/>
<path d="M15.6985 8.00195L15.5205 7.45414L15.2466 7.54314" fill="white"/>
<path d="M15.6985 8.00195L15.2325 7.66339L15.4018 7.43039" fill="white"/>
<path d="M15.0214 8.00146L15.4874 7.6629L15.3181 7.4299" fill="white"/>
<path d="M15.0214 8.00146L15.1994 7.45366L15.4733 7.54265" fill="white"/>
<path d="M17.664 11.5679L17.486 12.1157L17.7599 12.2047" fill="white"/>
<path d="M17.664 11.5679L17.842 12.1157L17.5681 12.2047" fill="white"/>
<path d="M18.2118 11.9663H17.6358V12.2543" fill="white"/>
<path d="M18.2118 11.9663L17.7458 12.3049L17.5765 12.0719" fill="white"/>
<path d="M17.1162 11.9658L17.5822 12.3044L17.7515 12.0714" fill="white"/>
<path d="M17.1162 11.9658H17.6922V12.2538" fill="white"/>
<path d="M18.0025 12.6099L17.8245 12.0621L17.5506 12.1511" fill="white"/>
<path d="M18.0025 12.6099L17.5365 12.2713L17.7058 12.0383" fill="white"/>
<path d="M17.3254 12.6094L17.7914 12.2708L17.6221 12.0378" fill="white"/>
<path d="M17.3254 12.6094L17.5034 12.0616L17.7773 12.1506" fill="white"/>
<path d="M17.664 9.26416L17.486 9.81197L17.7599 9.90097" fill="white"/>
<path d="M17.664 9.26416L17.842 9.81197L17.5681 9.90097" fill="white"/>
<path d="M18.2118 9.6626H17.6358V9.9506" fill="white"/>
<path d="M18.2118 9.6626L17.7458 10.0012L17.5765 9.76817" fill="white"/>
<path d="M17.1162 9.66211L17.5822 10.0007L17.7515 9.76768" fill="white"/>
<path d="M17.1162 9.66211H17.6922V9.95011" fill="white"/>
<path d="M18.0025 10.3062L17.8245 9.75834L17.5506 9.84734" fill="white"/>
<path d="M18.0025 10.3062L17.5365 9.96759L17.7058 9.73459" fill="white"/>
<path d="M17.3254 10.3057L17.7914 9.9671L17.6221 9.7341" fill="white"/>
<path d="M17.3254 10.3057L17.5034 9.75786L17.7773 9.84685" fill="white"/>
<path d="M17.664 6.95996L17.486 7.50777L17.7599 7.59677" fill="white"/>
<path d="M17.664 6.95996L17.842 7.50777L17.5681 7.59677" fill="white"/>
<path d="M18.2118 7.3584H17.6358V7.6464" fill="white"/>
<path d="M18.2118 7.3584L17.7458 7.69696L17.5765 7.46397" fill="white"/>
<path d="M17.1162 7.35791L17.5822 7.69647L17.7515 7.46348" fill="white"/>
<path d="M17.1162 7.35791H17.6922V7.64591" fill="white"/>
<path d="M18.0025 8.00195L17.8245 7.45414L17.5506 7.54314" fill="white"/>
<path d="M18.0025 8.00195L17.5365 7.66339L17.7058 7.43039" fill="white"/>
<path d="M17.3254 8.00146L17.7914 7.6629L17.6221 7.4299" fill="white"/>
<path d="M17.3254 8.00146L17.5034 7.45366L17.7773 7.54265" fill="white"/>
<path d="M8.448 11.5679L8.27 12.1157L8.54391 12.2047" fill="white"/>
<path d="M8.448 11.5679L8.62599 12.1157L8.35209 12.2047" fill="white"/>
<path d="M8.99579 11.9663H8.41979V12.2543" fill="white"/>
<path d="M8.99579 11.9663L8.52979 12.3049L8.36051 12.0719" fill="white"/>
<path d="M7.90021 11.9658L8.3662 12.3044L8.53548 12.0714" fill="white"/>
<path d="M7.90021 11.9658H8.47621V12.2538" fill="white"/>
<path d="M8.7865 12.6099L8.60851 12.0621L8.3346 12.1511" fill="white"/>
<path d="M8.7865 12.6099L8.32051 12.2713L8.48979 12.0383" fill="white"/>
<path d="M8.10938 12.6094L8.57537 12.2708L8.40609 12.0378" fill="white"/>
<path d="M8.10938 12.6094L8.28737 12.0616L8.56127 12.1506" fill="white"/>
<path d="M10.752 11.5679L10.574 12.1157L10.8479 12.2047" fill="white"/>
<path d="M10.752 11.5679L10.93 12.1157L10.6561 12.2047" fill="white"/>
<path d="M11.2998 11.9663H10.7238V12.2543" fill="white"/>
<path d="M11.2998 11.9663L10.8338 12.3049L10.6645 12.0719" fill="white"/>
<path d="M10.2042 11.9658L10.6702 12.3044L10.8395 12.0714" fill="white"/>
<path d="M10.2042 11.9658H10.7802V12.2538" fill="white"/>
<path d="M11.0905 12.6099L10.9125 12.0621L10.6386 12.1511" fill="white"/>
<path d="M11.0905 12.6099L10.6245 12.2713L10.7938 12.0383" fill="white"/>
<path d="M10.4134 12.6094L10.8794 12.2708L10.7101 12.0378" fill="white"/>
<path d="M10.4134 12.6094L10.5914 12.0616L10.8653 12.1506" fill="white"/>
<path d="M10.752 9.26416L10.574 9.81197L10.8479 9.90097" fill="white"/>
<path d="M10.752 9.26416L10.93 9.81197L10.6561 9.90097" fill="white"/>
<path d="M11.2998 9.6626H10.7238V9.9506" fill="white"/>
<path d="M11.2998 9.6626L10.8338 10.0012L10.6645 9.76817" fill="white"/>
<path d="M10.2042 9.66211L10.6702 10.0007L10.8395 9.76768" fill="white"/>
<path d="M10.2042 9.66211H10.7802V9.95011" fill="white"/>
<path d="M11.0905 10.3062L10.9125 9.75834L10.6386 9.84734" fill="white"/>
<path d="M11.0905 10.3062L10.6245 9.96759L10.7938 9.73459" fill="white"/>
<path d="M10.4134 10.3057L10.8794 9.9671L10.7101 9.7341" fill="white"/>
<path d="M10.4134 10.3057L10.5914 9.75786L10.8653 9.84685" fill="white"/>
</g>
<defs>
<clipPath id="clip0_1422_2170">
<rect width="36" height="36" fill="white"/>
</clipPath>
</defs>
</svg>
